{"glyphs":{"0":{"ha":1157,"x_min":85,"x_max":1072,"o":"m 1072 465 q 1053 321 1072 387 q 1000 201 1034 255 q 919 107 966 148 q 818 38 872 66 q 702 -4 763 10 q 579 -18 642 -18 q 456 -4 517 -18 q 340 38 395 10 q 239 107 286 66 q 158 201 192 148 q 104 321 123 255 q 85 465 85 387 q 104 609 85 543 q 158 729 123 675 q 239 824 192 783 q 340 892 286 865 q 456 935 395 920 q 579 949 517 949 q 702 935 642 949 q 818 892 763 920 q 919 824 872 865 q 1000 729 966 783 q 1053 609 1034 675 q 1072 465 1072 543 m 987 465 q 971 592 987 534 q 925 695 954 650 q 857 774 897 741 q 773 830 818 808 q 678 864 728 852 q 579 875 629 875 q 431 850 505 875 q 300 774 358 825 q 205 647 241 724 q 170 465 170 570 q 205 284 170 361 q 300 156 241 207 q 431 80 358 105 q 579 56 505 56 q 678 67 629 56 q 773 100 728 78 q 858 157 819 123 q 926 236 897 191 q 971 339 955 282 q 987 465 987 396 z "},"1":{"ha":472,"x_min":0,"x_max":306,"o":"m 222 0 l 222 857 l 0 787 l 0 863 l 222 932 l 306 932 l 306 0 l 222 0 z "},"2":{"ha":1011,"x_min":56,"x_max":928,"o":"m 56 0 l 56 57 q 374 238 231 155 q 617 392 517 320 q 771 530 718 465 q 822 660 825 595 q 795 748 820 708 q 724 815 770 787 q 608 859 677 844 q 450 875 540 875 q 344 869 395 875 q 247 850 294 863 q 155 819 199 838 q 66 774 110 800 l 66 867 q 157 901 113 886 q 247 927 201 916 q 341 943 292 938 q 446 949 390 949 q 630 929 545 949 q 777 872 715 909 q 873 779 838 834 q 908 653 908 724 q 864 524 908 589 q 735 391 820 460 q 528 245 651 321 q 245 78 404 168 l 928 78 l 928 0 l 56 0 z "},"3":{"ha":1008,"x_min":56,"x_max":911,"o":"m 596 497 q 735 465 676 487 q 834 414 795 444 q 892 346 873 384 q 911 267 911 309 q 874 139 911 193 q 773 51 837 85 q 625 -1 710 16 q 444 -18 540 -18 q 321 -13 376 -18 q 220 1 266 -8 q 134 24 174 11 q 56 53 94 37 l 56 151 q 231 78 140 101 q 424 56 321 56 q 603 71 528 56 q 728 114 679 86 q 801 180 777 141 q 825 265 825 218 q 703 412 825 366 q 328 460 581 458 l 328 533 q 675 573 558 533 q 791 703 791 614 q 698 831 791 785 q 424 876 605 876 q 325 871 371 876 q 237 854 279 865 q 155 828 195 844 q 74 791 115 812 l 74 889 q 163 915 119 904 q 250 934 206 926 q 340 945 294 941 q 437 949 387 949 q 549 943 494 949 q 652 926 604 938 q 742 896 701 914 q 813 850 783 877 q 860 788 843 823 q 876 708 876 753 q 859 638 876 672 q 807 576 842 604 q 719 527 772 547 q 596 497 667 506 z "},"4":{"ha":1068,"x_min":41,"x_max":1026,"o":"m 787 239 l 787 0 l 704 0 l 704 239 l 41 239 l 41 314 l 644 932 l 787 932 l 787 317 l 1026 317 l 1026 239 l 787 239 m 704 882 l 153 317 l 704 317 l 704 882 z "},"5":{"ha":1026,"x_min":83,"x_max":943,"o":"m 864 854 l 203 854 l 203 542 q 251 549 224 545 q 308 556 277 553 q 378 562 340 559 q 463 564 416 564 q 822 488 700 564 q 943 272 943 412 q 910 148 943 202 q 814 57 877 94 q 659 1 751 20 q 450 -18 567 -18 q 344 -13 396 -18 q 245 2 292 -7 q 157 23 199 11 q 83 47 116 35 l 83 142 q 151 111 113 126 q 235 83 189 95 q 335 63 281 71 q 450 56 389 56 q 623 70 547 56 q 751 112 699 84 q 831 180 804 140 q 859 272 859 220 q 828 373 859 332 q 742 440 797 414 q 609 478 686 467 q 439 490 532 490 q 350 487 391 490 q 273 478 309 484 q 207 465 237 472 q 147 449 176 457 l 121 449 l 121 932 l 864 932 l 864 854 z "},"6":{"ha":1074,"x_min":90,"x_max":1017,"o":"m 625 875 q 469 859 536 875 q 351 815 401 844 q 269 748 302 787 q 215 662 235 709 q 186 562 195 615 q 178 452 178 509 q 244 495 205 471 q 334 542 283 520 q 450 579 386 564 q 593 595 514 595 q 761 576 683 595 q 895 519 838 557 q 984 424 952 481 q 1017 289 1017 366 q 987 169 1017 225 q 902 72 958 113 q 765 6 846 30 q 578 -18 683 -18 q 383 10 473 -18 q 229 95 294 38 q 127 237 163 151 q 90 437 90 322 q 122 645 90 551 q 221 806 155 739 q 389 911 288 874 q 629 949 491 949 q 705 945 667 949 q 781 934 744 941 q 854 919 819 928 q 921 900 890 910 l 921 810 q 868 831 899 820 q 801 852 838 842 q 720 868 764 862 q 625 875 675 875 m 567 521 q 437 504 496 521 q 330 461 378 486 q 245 409 282 436 q 182 361 208 381 q 213 249 190 304 q 280 152 235 195 q 397 82 326 109 q 574 56 469 56 q 728 72 661 56 q 840 119 795 89 q 909 193 886 150 q 932 289 932 236 q 910 386 932 342 q 844 458 889 429 q 731 505 800 488 q 567 521 662 521 z "},"7":{"ha":930,"x_min":0,"x_max":889,"o":"m 330 0 l 231 0 l 772 854 l 0 854 l 0 932 l 889 932 l 889 885 l 330 0 z "},"8":{"ha":1103,"x_min":75,"x_max":1028,"o":"m 710 510 q 849 460 789 486 q 948 401 908 433 q 1008 331 988 370 q 1028 245 1028 293 q 993 135 1028 184 q 895 52 958 86 q 744 0 831 18 q 551 -18 656 -18 q 359 -2 447 -18 q 209 46 272 14 q 111 126 146 79 q 75 235 75 173 q 96 322 75 282 q 200 426 126 382 q 395 505 275 470 q 308 538 349 521 q 235 576 267 555 q 180 625 202 597 q 156 669 165 645 q 147 722 147 693 q 176 817 147 775 q 258 888 205 859 q 386 933 311 918 q 551 949 460 949 q 797 912 701 949 q 930 814 892 876 q 950 770 943 793 q 957 722 957 747 q 894 604 957 654 q 710 510 831 554 m 873 721 q 857 779 873 751 q 803 829 840 807 q 704 863 765 850 q 555 876 644 876 q 405 863 467 876 q 304 829 343 850 q 247 779 264 807 q 231 721 229 751 q 313 613 232 659 q 557 541 395 568 q 691 574 632 555 q 791 615 750 593 q 852 664 831 637 q 873 721 873 690 m 550 472 q 394 436 465 458 q 271 385 322 414 q 190 320 219 356 q 161 243 161 284 q 186 171 161 205 q 261 111 212 136 q 383 70 311 85 q 551 54 456 54 q 720 69 647 54 q 842 110 793 84 q 917 170 891 136 q 942 243 942 204 q 912 320 942 284 q 831 385 883 356 q 707 436 779 414 q 550 472 635 458 z "},"9":{"ha":1079,"x_min":62,"x_max":989,"o":"m 454 56 q 611 71 543 56 q 728 115 678 87 q 810 184 777 144 q 864 272 844 224 q 892 375 884 320 q 901 490 901 431 q 833 437 871 465 q 745 388 795 410 q 631 351 695 366 q 486 336 568 336 q 318 355 396 336 q 184 412 241 374 q 95 507 127 450 q 62 642 62 564 q 92 761 62 705 q 177 859 121 817 q 314 925 233 901 q 501 949 396 949 q 696 921 606 949 q 850 836 785 892 q 952 694 916 779 q 989 493 989 608 q 957 286 989 380 q 858 124 924 192 q 690 19 791 57 q 450 -18 589 -18 q 367 -14 408 -18 q 287 -2 326 -9 q 212 14 248 5 q 144 33 176 23 l 144 123 q 197 101 167 113 q 266 79 227 90 q 352 62 304 69 q 454 56 399 56 m 513 410 q 642 426 583 410 q 748 467 701 442 q 831 521 795 492 q 895 576 868 551 q 879 648 890 612 q 847 717 867 684 q 798 779 827 750 q 727 829 768 808 q 630 863 685 850 q 505 875 575 875 q 351 858 418 875 q 239 811 284 842 q 170 738 193 781 q 147 642 147 694 q 169 545 147 588 q 235 472 190 502 q 348 426 279 442 q 513 410 417 410 z "}," ":{"ha":522,"x_min":0,"x_max":0,"o":""},"!":{"ha":382,"x_min":139,"x_max":243,"o":"m 220 250 l 163 250 l 139 785 l 139 932 l 243 932 l 243 785 l 220 250 m 139 0 l 139 134 l 243 134 l 243 0 l 139 0 z "},"\"":{"ha":403,"x_min":49,"x_max":354,"o":"m 62 657 l 49 932 l 146 932 l 132 657 l 62 657 m 271 657 l 257 932 l 354 932 l 340 657 l 271 657 z "},"#":{"ha":974,"x_min":69,"x_max":904,"o":"m 725 604 l 665 329 l 827 329 l 827 267 l 652 267 l 591 0 l 524 0 l 583 267 l 302 267 l 243 0 l 175 0 l 235 267 l 69 267 l 69 329 l 248 329 l 309 604 l 147 604 l 147 667 l 322 667 l 380 932 l 449 932 l 390 667 l 671 667 l 729 932 l 798 932 l 739 667 l 904 667 l 904 604 l 725 604 m 376 604 l 315 329 l 597 329 l 657 604 l 376 604 z "},"$":{"ha":1065,"x_min":111,"x_max":954,"o":"m 879 783 q 825 808 855 795 q 755 832 794 821 q 668 851 716 843 q 562 860 621 859 l 562 509 q 705 469 635 490 q 831 417 775 448 q 920 345 886 387 q 954 244 954 303 q 938 163 954 199 q 895 101 922 127 q 830 56 867 75 q 749 26 792 38 q 657 8 705 14 q 562 0 610 2 l 562 -74 l 494 -74 l 494 0 q 388 5 438 1 q 291 18 337 9 q 201 37 245 26 q 117 62 158 48 l 117 164 q 296 92 202 113 q 494 71 390 71 l 494 449 q 354 486 422 466 q 231 534 285 505 q 144 603 177 562 q 111 701 111 643 q 145 810 111 766 q 234 880 179 854 q 357 919 288 907 q 494 932 425 930 l 494 1006 l 562 1006 l 562 930 q 648 924 607 929 q 728 912 689 920 q 804 896 766 905 q 879 876 841 886 l 879 783 m 869 240 q 844 310 869 281 q 777 362 819 340 q 679 400 734 384 q 562 432 623 417 l 562 71 q 687 84 630 73 q 784 115 743 95 q 847 166 825 136 q 869 240 869 197 m 196 704 q 220 641 196 667 q 285 593 244 614 q 380 556 326 572 q 494 525 435 540 l 494 860 q 368 848 423 859 q 274 818 312 838 q 216 770 236 799 q 196 704 196 742 z "},"%":{"ha":1378,"x_min":69,"x_max":1253,"o":"m 335 0 l 243 0 l 987 932 l 1078 932 l 335 0 m 1253 220 q 1231 121 1253 165 q 1173 46 1210 77 q 1088 -2 1137 15 q 987 -18 1040 -18 q 887 -2 935 -18 q 803 46 839 15 q 745 121 766 77 q 724 220 724 165 q 745 319 724 275 q 803 394 766 363 q 887 441 839 425 q 987 457 935 457 q 1088 441 1040 457 q 1173 394 1137 425 q 1231 319 1210 363 q 1253 220 1253 275 m 1173 220 q 1160 287 1173 256 q 1124 342 1148 319 q 1066 380 1101 366 q 987 393 1031 393 q 909 380 943 393 q 851 342 875 366 q 816 287 828 319 q 804 220 804 256 q 816 152 804 184 q 851 97 828 121 q 909 60 875 74 q 987 46 943 46 q 1066 60 1031 46 q 1124 97 1101 74 q 1160 152 1148 121 q 1173 220 1173 184 m 599 711 q 577 613 599 656 q 519 538 555 569 q 435 490 483 507 q 334 473 387 473 q 233 490 281 473 q 149 538 185 507 q 91 613 113 569 q 69 711 69 656 q 91 811 69 767 q 149 886 113 855 q 233 932 185 916 q 334 949 281 949 q 435 932 387 949 q 519 886 483 916 q 577 811 555 855 q 599 711 599 767 m 518 711 q 506 779 518 747 q 470 834 494 810 q 412 871 447 858 q 334 885 378 885 q 255 871 289 885 q 197 834 220 858 q 162 779 174 810 q 150 711 150 747 q 162 644 150 675 q 197 589 174 612 q 255 552 220 566 q 334 538 289 538 q 412 552 378 538 q 470 589 447 566 q 506 644 494 612 q 518 711 518 675 z "},"&":{"ha":1287,"x_min":107,"x_max":1202,"o":"m 1143 440 q 1097 281 1135 360 q 990 139 1059 203 q 1033 110 1011 124 q 1078 80 1054 96 q 1133 44 1103 64 q 1202 0 1162 25 l 1078 0 q 1002 47 1038 24 q 930 94 966 71 q 757 13 859 44 q 525 -18 656 -18 q 368 -3 444 -18 q 234 43 292 12 q 142 122 176 74 q 107 237 107 171 q 129 323 107 283 q 186 398 150 363 q 270 463 222 433 q 371 519 318 493 q 280 637 309 583 q 250 743 250 692 q 275 833 250 795 q 343 898 300 872 q 445 936 387 924 q 568 949 503 949 q 674 937 625 949 q 760 904 724 925 q 818 851 797 882 q 839 783 839 821 q 809 699 839 737 q 730 628 779 661 q 619 564 681 594 q 494 503 557 533 q 673 360 566 439 q 929 180 780 281 q 1022 301 990 234 q 1061 440 1055 369 l 1143 440 m 541 53 q 726 75 644 53 q 869 136 808 98 q 611 315 722 233 q 422 468 500 396 q 377 445 402 458 q 326 415 352 431 q 276 380 300 399 q 233 339 252 361 q 202 291 214 317 q 191 237 191 266 q 211 169 191 202 q 273 110 231 136 q 381 68 315 84 q 541 53 448 53 m 334 743 q 360 656 334 701 q 443 553 386 610 q 559 607 503 581 q 659 661 615 633 q 729 716 703 688 q 755 778 755 745 q 747 813 755 795 q 717 846 738 831 q 661 869 696 860 q 572 878 625 878 q 476 870 520 878 q 401 846 433 862 q 351 804 369 829 q 334 743 334 779 z "},"'":{"ha":195,"x_min":49,"x_max":146,"o":"m 62 657 l 49 932 l 146 932 l 132 657 l 62 657 z "},"(":{"ha":585,"x_min":111,"x_max":446,"o":"m 199 464 q 216 315 199 387 q 266 179 234 243 q 344 60 298 115 q 446 -37 389 5 l 390 -96 q 275 13 327 -48 q 187 146 224 75 q 131 298 151 218 q 111 464 111 378 q 131 630 111 550 q 187 782 151 710 q 275 914 224 853 q 390 1023 327 975 l 446 965 q 344 868 389 923 q 266 749 298 813 q 216 612 234 684 q 199 464 199 541 z "},")":{"ha":585,"x_min":139,"x_max":473,"o":"m 386 464 q 368 612 386 541 q 318 749 351 684 q 241 868 286 813 q 139 965 195 923 l 195 1023 q 310 914 258 975 q 398 782 361 853 q 454 630 434 710 q 473 464 473 550 q 454 298 473 378 q 398 146 434 218 q 310 13 361 75 q 195 -96 258 -48 l 139 -37 q 241 60 195 5 q 318 179 286 115 q 368 315 351 243 q 386 464 386 387 z "},"*":{"ha":700,"x_min":83,"x_max":616,"o":"m 579 488 l 379 612 l 387 392 l 311 392 l 321 612 l 122 488 l 83 551 l 293 663 l 83 774 l 122 836 l 321 713 l 311 932 l 387 932 l 378 713 l 579 836 l 616 774 l 406 663 l 616 551 l 579 488 z "},"+":{"ha":882,"x_min":117,"x_max":765,"o":"m 478 428 l 478 138 l 404 138 l 404 428 l 117 428 l 117 501 l 404 501 l 404 791 l 478 791 l 478 501 l 765 501 l 765 428 l 478 428 z "},",":{"ha":257,"x_min":33,"x_max":200,"o":"m 115 -138 l 33 -138 l 89 147 l 200 147 l 115 -138 z "},"-":{"ha":750,"x_min":111,"x_max":639,"o":"m 111 424 l 111 507 l 639 507 l 639 424 l 111 424 z "},".":{"ha":257,"x_min":69,"x_max":187,"o":"m 69 0 l 69 147 l 187 147 l 187 0 l 69 0 z "},"/":{"ha":694,"x_min":77,"x_max":618,"o":"m 158 -28 l 77 -28 l 536 974 l 618 974 l 158 -28 z "},":":{"ha":340,"x_min":111,"x_max":229,"o":"m 111 0 l 111 147 l 229 147 l 229 0 l 111 0 m 111 501 l 111 648 l 229 648 l 229 501 l 111 501 z "},";":{"ha":326,"x_min":61,"x_max":229,"o":"m 111 501 l 111 648 l 229 648 l 229 501 l 111 501 m 143 -138 l 61 -138 l 117 147 l 228 147 l 143 -138 z "},"<":{"ha":882,"x_min":106,"x_max":766,"o":"m 106 432 l 106 496 l 766 794 l 766 717 l 204 464 l 766 212 l 766 135 l 106 432 z "},"=":{"ha":882,"x_min":117,"x_max":765,"o":"m 117 557 l 117 631 l 765 631 l 765 557 l 117 557 m 117 297 l 117 372 l 765 372 l 765 297 l 117 297 z "},">":{"ha":882,"x_min":115,"x_max":777,"o":"m 777 432 l 115 135 l 115 212 l 677 464 l 115 717 l 115 794 l 777 496 l 777 432 z "},"?":{"ha":790,"x_min":83,"x_max":693,"o":"m 693 686 q 673 599 693 638 q 621 529 654 560 q 547 473 589 498 q 461 431 505 449 q 376 399 418 412 q 300 376 334 386 l 300 264 l 215 264 l 215 433 q 300 454 255 442 q 388 481 345 465 q 471 516 431 496 q 540 562 510 536 q 588 620 570 588 q 606 690 606 651 q 585 772 606 738 q 528 830 564 807 q 444 864 492 852 q 340 875 395 875 q 271 868 307 875 q 202 850 236 862 q 138 822 168 838 q 83 786 107 806 l 83 892 q 197 932 132 915 q 347 949 262 949 q 474 935 412 949 q 585 890 536 921 q 664 808 634 859 q 693 686 693 758 m 215 0 l 215 134 l 319 134 l 319 0 l 215 0 z "},"@":{"ha":1411,"x_min":106,"x_max":1305,"o":"m 856 296 q 822 269 842 283 q 777 245 803 256 q 719 227 751 234 q 646 220 686 220 q 557 233 599 220 q 484 271 515 245 q 435 334 453 296 q 416 419 416 371 q 444 547 416 492 q 515 640 471 602 q 616 695 559 677 q 733 714 673 714 q 820 703 783 714 q 895 672 858 691 l 901 704 l 982 704 l 930 396 q 929 388 930 394 q 927 374 928 381 q 926 361 926 368 q 925 354 925 355 q 949 303 925 319 q 1014 288 974 288 q 1095 307 1057 288 q 1160 360 1133 326 q 1204 438 1188 393 q 1219 534 1219 483 q 1185 684 1219 618 q 1089 793 1152 749 q 940 861 1027 838 q 746 884 852 884 q 595 868 667 884 q 461 824 523 852 q 351 755 400 795 q 267 666 302 715 q 213 560 232 616 q 195 441 195 503 q 230 280 195 352 q 330 159 264 209 q 489 82 395 109 q 700 56 583 56 q 874 72 791 56 q 1038 127 957 89 l 1072 60 q 889 -2 982 15 q 694 -20 795 -20 q 455 12 563 -20 q 269 103 347 43 q 149 248 191 163 q 106 441 106 334 q 129 580 106 513 q 193 704 152 647 q 293 809 235 762 q 422 889 352 856 q 574 941 493 923 q 743 960 656 960 q 973 929 869 960 q 1150 844 1076 899 q 1265 711 1224 789 q 1305 538 1305 633 q 1284 418 1305 475 q 1223 317 1263 361 q 1127 246 1183 273 q 1003 220 1072 220 q 961 223 981 220 q 922 235 941 227 q 887 258 903 243 q 856 296 870 273 m 664 283 q 711 288 687 283 q 758 302 734 292 q 803 329 781 313 q 844 368 825 345 l 882 595 q 812 636 848 623 q 732 650 777 650 q 647 636 688 650 q 575 594 606 622 q 524 524 543 566 q 505 424 505 481 q 517 358 505 385 q 549 315 528 332 q 600 291 570 298 q 664 283 629 283 z "},"A":{"ha":1129,"x_min":28,"x_max":1103,"o":"m 1010 0 l 882 245 l 249 245 l 121 0 l 28 0 l 515 932 l 615 932 l 1103 0 l 1010 0 m 566 850 l 290 323 l 840 323 l 566 850 z "},"B":{"ha":1162,"x_min":157,"x_max":1080,"o":"m 1080 257 q 1066 163 1080 203 q 1026 94 1052 123 q 965 47 1001 65 q 887 19 930 29 q 795 4 844 8 q 694 0 747 0 l 157 0 l 157 932 l 682 932 q 762 928 722 932 q 839 916 802 925 q 908 890 876 907 q 963 848 939 874 q 999 784 986 821 q 1013 696 1013 747 q 1001 617 1013 650 q 967 560 990 584 q 909 521 945 536 q 827 497 874 506 q 943 474 895 492 q 1021 425 991 456 q 1066 352 1052 395 q 1080 257 1080 310 m 933 694 q 930 734 933 714 q 918 771 928 753 q 891 805 909 789 q 842 832 873 821 q 765 849 810 843 q 654 856 719 856 l 241 856 l 241 530 l 654 530 q 801 544 746 530 q 885 579 856 557 q 924 631 915 602 q 933 694 933 661 m 991 258 q 973 349 991 311 q 917 410 955 386 q 819 445 879 433 q 677 456 760 456 l 241 456 l 241 77 l 689 77 q 832 86 774 77 q 925 118 890 96 q 976 175 961 140 q 991 258 991 210 z "},"C":{"ha":1207,"x_min":92,"x_max":1112,"o":"m 1112 74 q 1016 37 1063 54 q 916 7 968 20 q 808 -12 865 -5 q 684 -18 751 -18 q 525 -5 601 -18 q 382 36 448 9 q 263 103 317 63 q 171 197 210 144 q 112 318 133 251 q 92 465 92 385 q 112 612 92 545 q 171 733 133 680 q 263 827 210 787 q 382 895 317 867 q 524 935 448 922 q 684 949 600 949 q 808 942 751 949 q 916 923 865 935 q 1016 894 968 911 q 1112 857 1063 878 l 1112 755 q 1029 802 1074 780 q 934 840 985 823 q 825 865 883 856 q 700 875 766 875 q 467 846 566 875 q 305 763 369 817 q 210 634 241 710 q 179 465 179 559 q 210 296 179 372 q 305 168 241 221 q 467 86 369 115 q 700 57 566 57 q 826 66 766 57 q 937 92 885 76 q 1033 130 989 109 q 1112 175 1076 151 l 1112 74 l 1112 74 z "},"D":{"ha":1264,"x_min":157,"x_max":1174,"o":"m 1174 467 q 1155 308 1174 377 q 1103 186 1137 238 q 1020 99 1069 135 q 912 41 972 63 q 784 10 853 20 q 637 0 714 0 l 157 0 l 157 932 l 636 932 q 849 909 751 932 q 1020 833 947 887 q 1133 690 1092 779 q 1174 467 1174 600 m 1086 467 q 1072 601 1086 543 q 1029 702 1057 659 q 961 774 1001 745 q 871 822 921 804 q 762 847 821 840 q 636 854 703 854 l 241 854 l 241 78 l 636 78 q 819 96 736 78 q 961 158 901 114 q 1053 278 1020 203 q 1086 467 1086 353 z "},"E":{"ha":1048,"x_min":157,"x_max":943,"o":"m 157 0 l 157 932 l 933 932 l 933 852 l 249 852 l 249 532 l 899 532 l 899 453 l 249 453 l 249 79 l 943 79 l 943 0 l 157 0 z "},"F":{"ha":956,"x_min":157,"x_max":895,"o":"m 241 852 l 241 532 l 861 532 l 861 453 l 241 453 l 241 0 l 157 0 l 157 932 l 895 932 l 895 852 l 241 852 z "},"G":{"ha":1264,"x_min":92,"x_max":1150,"o":"m 705 949 q 825 942 770 949 q 932 924 881 936 q 1031 896 983 912 q 1128 859 1079 879 l 1128 755 q 1045 802 1089 780 q 951 840 1002 823 q 843 865 901 856 q 718 875 785 875 q 481 846 583 875 q 313 765 380 818 q 213 636 246 712 q 179 465 179 560 q 212 301 179 376 q 312 172 245 227 q 479 87 378 118 q 714 57 579 57 q 819 61 767 57 q 917 72 871 65 q 1001 86 963 78 q 1065 102 1039 94 l 1065 385 l 686 385 l 686 464 l 1150 464 l 1150 54 q 1049 23 1100 37 q 943 0 998 9 q 830 -14 888 -9 q 707 -18 771 -18 q 463 11 575 -18 q 268 101 350 41 q 138 252 185 161 q 92 465 92 342 q 113 615 92 547 q 175 736 135 682 q 270 830 214 790 q 394 896 326 870 q 541 936 463 922 q 705 949 620 949 z "},"H":{"ha":1318,"x_min":157,"x_max":1161,"o":"m 1076 0 l 1076 452 l 241 452 l 241 0 l 157 0 l 157 932 l 241 932 l 241 530 l 1076 530 l 1076 932 l 1161 932 l 1161 0 l 1076 0 z "},"I":{"ha":399,"x_min":157,"x_max":241,"o":"m 157 0 l 157 932 l 241 932 l 241 0 l 157 0 z "},"J":{"ha":821,"x_min":0,"x_max":668,"o":"m 668 298 q 641 163 668 221 q 565 66 614 105 q 448 8 516 28 q 298 -11 380 -11 q 205 -6 248 -11 q 126 5 162 -2 q 59 19 90 12 q 0 35 28 27 l 0 122 q 59 101 28 111 q 127 83 90 91 q 213 70 165 75 q 321 65 260 65 q 424 80 376 65 q 507 125 471 96 q 563 197 543 155 q 583 294 583 239 l 583 932 l 668 932 l 668 298 z "},"K":{"ha":1120,"x_min":157,"x_max":1096,"o":"m 243 493 l 936 932 l 1054 932 l 371 485 l 1096 0 l 951 0 l 243 475 l 243 0 l 157 0 l 157 932 l 243 932 l 243 493 z "},"L":{"ha":974,"x_min":157,"x_max":922,"o":"m 157 0 l 157 932 l 241 932 l 241 79 l 922 79 l 922 0 l 157 0 z "},"M":{"ha":1582,"x_min":157,"x_max":1425,"o":"m 1341 0 l 1341 793 l 829 0 l 754 0 l 241 796 l 241 0 l 157 0 l 157 932 l 248 932 l 794 87 l 1335 932 l 1425 932 l 1425 0 l 1341 0 z "},"N":{"ha":1300,"x_min":157,"x_max":1143,"o":"m 1051 0 l 241 821 l 241 0 l 157 0 l 157 932 l 250 932 l 1060 109 l 1060 932 l 1143 932 l 1143 0 l 1051 0 z "},"O":{"ha":1367,"x_min":92,"x_max":1275,"o":"m 1275 465 q 1230 249 1275 340 q 1105 98 1184 157 q 918 10 1025 39 q 685 -18 810 -18 q 451 10 559 -18 q 262 98 342 39 q 137 249 182 157 q 92 465 92 340 q 113 617 92 549 q 172 739 134 685 q 263 832 210 793 q 384 898 317 871 q 526 936 450 924 q 685 949 602 949 q 918 920 810 949 q 1105 832 1025 892 q 1230 682 1184 773 q 1275 465 1275 591 m 1187 465 q 1155 640 1187 564 q 1060 768 1123 716 q 903 847 997 820 q 685 873 809 873 q 466 846 561 873 q 308 767 372 819 q 212 639 244 715 q 179 465 179 563 q 212 290 179 366 q 308 162 244 214 q 466 84 372 111 q 685 57 561 57 q 903 84 809 57 q 1060 162 997 111 q 1155 290 1123 214 q 1187 465 1187 366 z "},"P":{"ha":1137,"x_min":157,"x_max":1065,"o":"m 1065 646 q 1043 522 1065 576 q 971 432 1020 469 q 845 377 922 395 q 660 358 768 358 l 241 358 l 241 0 l 157 0 l 157 932 l 660 932 q 845 913 768 932 q 971 859 922 895 q 1043 769 1020 823 q 1065 646 1065 715 m 978 646 q 956 753 978 712 q 888 815 934 793 q 772 845 842 838 q 606 852 702 852 l 241 852 l 241 437 l 606 437 q 685 437 643 437 q 769 441 728 437 q 848 457 810 446 q 915 491 886 468 q 961 551 943 514 q 978 646 978 589 z "},"Q":{"ha":1367,"x_min":92,"x_max":1358,"o":"m 1275 465 q 1235 260 1275 347 q 1125 114 1195 174 q 1245 79 1186 95 q 1358 54 1303 64 l 1325 -31 q 1187 11 1259 -14 q 1046 61 1115 35 q 880 1 972 20 q 685 -18 788 -18 q 451 10 559 -18 q 262 98 342 39 q 137 249 182 157 q 92 465 92 340 q 113 617 92 549 q 172 739 134 685 q 263 832 210 793 q 384 898 317 871 q 526 936 450 924 q 685 949 602 949 q 918 920 810 949 q 1105 832 1025 892 q 1230 682 1184 773 q 1275 465 1275 591 m 1187 465 q 1155 640 1187 564 q 1060 768 1123 716 q 903 847 997 820 q 685 873 809 873 q 466 846 561 873 q 308 767 372 819 q 212 639 244 715 q 179 465 179 563 q 212 290 179 366 q 308 162 244 214 q 466 84 372 111 q 685 57 561 57 q 949 98 841 57 q 873 130 907 115 q 812 156 838 144 q 758 180 783 169 l 791 249 q 908 195 846 221 q 1038 144 970 168 q 1149 277 1112 197 q 1187 465 1187 357 z "},"R":{"ha":1157,"x_min":157,"x_max":1107,"o":"m 241 399 l 241 0 l 157 0 l 157 932 l 621 932 q 803 915 727 932 q 927 865 879 899 q 998 781 976 831 q 1021 664 1021 731 q 966 497 1021 559 q 789 411 911 434 l 1107 0 l 1000 0 l 700 401 q 661 399 681 400 q 621 399 642 399 l 241 399 m 933 664 q 912 761 933 724 q 844 818 891 798 q 719 845 796 838 q 530 852 642 852 l 241 852 l 241 478 l 528 478 q 717 485 640 478 q 842 511 794 491 q 912 567 890 531 q 933 664 933 604 z "},"S":{"ha":1093,"x_min":113,"x_max":987,"o":"m 909 794 q 848 822 883 807 q 769 848 814 836 q 669 867 725 859 q 546 875 614 875 q 400 865 464 875 q 291 836 336 856 q 223 785 247 816 q 200 713 200 755 q 222 651 200 677 q 282 604 244 625 q 370 567 319 584 q 477 536 420 551 q 594 507 534 522 q 710 474 654 492 q 818 436 767 457 q 906 386 868 414 q 965 321 943 357 q 987 236 987 284 q 968 145 987 184 q 915 78 948 106 q 836 31 881 50 q 740 1 791 12 q 634 -14 688 -9 q 526 -18 579 -18 q 306 -1 405 -18 q 118 47 208 17 l 118 151 q 313 76 210 96 q 529 56 416 56 q 677 65 609 56 q 794 95 745 75 q 871 149 844 116 q 899 231 899 182 q 877 298 899 269 q 817 350 854 328 q 729 389 779 372 q 622 420 678 406 q 506 449 566 435 q 389 479 446 463 q 282 515 333 495 q 194 563 232 536 q 135 627 157 591 q 113 710 113 663 q 130 793 113 757 q 179 856 148 829 q 251 900 210 882 q 339 929 292 918 q 437 944 387 939 q 538 949 488 949 q 641 944 592 949 q 734 931 689 939 q 822 913 779 924 q 909 892 865 903 l 909 794 z "},"T":{"ha":985,"x_min":26,"x_max":958,"o":"m 534 854 l 534 0 l 450 0 l 450 854 l 26 854 l 26 932 l 958 932 l 958 854 l 534 854 z "},"U":{"ha":1238,"x_min":149,"x_max":1089,"o":"m 1089 293 q 1060 166 1089 223 q 971 67 1030 109 q 825 4 913 26 q 619 -18 736 -18 q 414 4 502 -18 q 267 67 326 26 q 178 166 208 109 q 149 293 149 223 l 149 932 l 233 932 l 233 286 q 258 198 233 239 q 332 125 283 156 q 452 75 380 94 q 619 57 524 57 q 785 75 713 57 q 906 125 857 94 q 980 198 955 156 q 1004 286 1004 239 l 1004 932 l 1089 932 l 1089 293 l 1089 293 z "},"V":{"ha":1136,"x_min":37,"x_max":1099,"o":"m 629 0 l 503 0 l 37 932 l 132 932 l 568 58 l 1004 932 l 1099 932 l 629 0 z "},"W":{"ha":1758,"x_min":52,"x_max":1707,"o":"m 936 932 l 1268 68 l 1613 932 l 1707 932 l 1332 0 l 1206 0 l 879 842 l 553 0 l 427 0 l 52 932 l 146 932 l 490 68 l 822 932 l 936 932 z "},"X":{"ha":1141,"x_min":62,"x_max":1080,"o":"m 571 421 l 170 0 l 62 0 l 518 478 l 85 932 l 192 932 l 571 533 l 951 932 l 1059 932 l 625 478 l 1080 0 l 974 0 l 571 421 z "},"Y":{"ha":1060,"x_min":50,"x_max":1010,"o":"m 572 395 l 572 0 l 488 0 l 488 395 l 50 932 l 151 932 l 530 465 l 908 932 l 1010 932 l 572 395 z "},"Z":{"ha":1011,"x_min":100,"x_max":921,"o":"m 100 0 l 100 69 l 775 852 l 118 852 l 118 932 l 907 932 l 907 886 l 211 79 l 921 79 l 921 0 l 100 0 z "},"[":{"ha":568,"x_min":175,"x_max":498,"o":"m 175 -82 l 175 1010 l 498 1010 l 498 937 l 260 937 l 260 -9 l 498 -9 l 498 -82 l 175 -82 z "},"\\":{"ha":694,"x_min":77,"x_max":618,"o":"m 77 974 l 158 974 l 618 -28 l 536 -28 l 77 974 z "},"]":{"ha":568,"x_min":69,"x_max":393,"o":"m 69 -82 l 69 -9 l 309 -9 l 309 937 l 69 937 l 69 1010 l 393 1010 l 393 -82 l 69 -82 z "},"^":{"ha":639,"x_min":41,"x_max":597,"o":"m 507 532 l 319 867 l 132 532 l 41 532 l 273 932 l 366 932 l 597 532 l 507 532 z "},"_":{"ha":694,"x_min":0,"x_max":694,"o":"m 0 -170 l 0 -92 l 694 -92 l 694 -170 l 0 -170 z "},"`":{"ha":733,"x_min":126,"x_max":453,"o":"m 161 970 l 453 825 l 425 772 l 126 899 l 161 970 z "},"a":{"ha":1234,"x_min":85,"x_max":1084,"o":"m 1000 0 l 1000 103 q 889 54 951 77 q 759 16 827 32 q 617 -9 690 -1 q 475 -18 545 -18 q 312 -2 384 -18 q 189 46 239 14 q 112 126 139 79 q 85 237 85 174 q 116 348 85 300 q 206 431 148 395 q 347 491 264 467 q 531 533 429 516 q 751 562 633 551 q 1000 581 869 573 l 1000 652 q 984 728 1000 695 q 939 786 968 762 q 870 828 909 811 q 785 854 831 844 q 689 869 739 865 q 587 873 638 873 q 463 867 519 873 q 357 848 406 860 q 264 821 309 836 q 174 787 219 805 l 174 886 q 375 930 268 911 q 602 949 481 949 q 791 931 703 949 q 945 876 880 914 q 1047 778 1010 838 q 1084 632 1084 718 l 1084 0 l 1000 0 m 1000 505 q 622 471 779 493 q 365 416 465 448 q 219 340 265 383 q 172 241 172 296 q 195 162 172 197 q 260 104 218 127 q 364 69 303 81 q 501 57 425 57 q 594 62 546 57 q 689 76 642 67 q 783 98 736 85 q 869 125 829 111 q 944 157 910 140 q 1000 192 977 174 l 1000 505 z "},"b":{"ha":1162,"x_min":157,"x_max":1080,"o":"m 1080 257 q 1066 163 1080 203 q 1026 94 1052 123 q 965 47 1001 65 q 887 19 930 29 q 795 4 844 8 q 694 0 747 0 l 157 0 l 157 932 l 682 932 q 762 928 722 932 q 839 916 802 925 q 908 890 876 907 q 963 848 939 874 q 999 784 986 821 q 1013 696 1013 747 q 1001 617 1013 650 q 967 560 990 584 q 909 521 945 536 q 827 497 874 506 q 943 474 895 492 q 1021 425 991 456 q 1066 352 1052 395 q 1080 257 1080 310 m 933 694 q 930 734 933 714 q 918 771 928 753 q 891 805 909 789 q 842 832 873 821 q 765 849 810 843 q 654 856 719 856 l 241 856 l 241 530 l 654 530 q 801 544 746 530 q 885 579 856 557 q 924 631 915 602 q 933 694 933 661 m 991 258 q 973 349 991 311 q 917 410 955 386 q 819 445 879 433 q 677 456 760 456 l 241 456 l 241 77 l 689 77 q 832 86 774 77 q 925 118 890 96 q 976 175 961 140 q 991 258 991 210 z "},"c":{"ha":1207,"x_min":92,"x_max":1112,"o":"m 1112 74 q 1016 37 1063 54 q 916 7 968 20 q 808 -12 865 -5 q 684 -18 751 -18 q 525 -5 601 -18 q 382 36 448 9 q 263 103 317 63 q 171 197 210 144 q 112 318 133 251 q 92 465 92 385 q 112 612 92 545 q 171 733 133 680 q 263 827 210 787 q 382 895 317 867 q 524 935 448 922 q 684 949 600 949 q 808 942 751 949 q 916 923 865 935 q 1016 894 968 911 q 1112 857 1063 878 l 1112 755 q 1029 802 1074 780 q 934 840 985 823 q 825 865 883 856 q 700 875 766 875 q 467 846 566 875 q 305 763 369 817 q 210 634 241 710 q 179 465 179 559 q 210 296 179 372 q 305 168 241 221 q 467 86 369 115 q 700 57 566 57 q 826 66 766 57 q 937 92 885 76 q 1033 130 989 109 q 1112 175 1076 151 l 1112 74 l 1112 74 z "},"d":{"ha":1264,"x_min":157,"x_max":1174,"o":"m 1174 467 q 1155 308 1174 377 q 1103 186 1137 238 q 1020 99 1069 135 q 912 41 972 63 q 784 10 853 20 q 637 0 714 0 l 157 0 l 157 932 l 636 932 q 849 909 751 932 q 1020 833 947 887 q 1133 690 1092 779 q 1174 467 1174 600 m 1086 467 q 1072 601 1086 543 q 1029 702 1057 659 q 961 774 1001 745 q 871 822 921 804 q 762 847 821 840 q 636 854 703 854 l 241 854 l 241 78 l 636 78 q 819 96 736 78 q 961 158 901 114 q 1053 278 1020 203 q 1086 467 1086 353 z "},"e":{"ha":1264,"x_min":92,"x_max":1173,"o":"m 1096 49 q 990 19 1039 31 q 894 -2 941 6 q 797 -13 846 -9 q 689 -17 748 -17 q 441 16 552 -17 q 253 112 331 50 q 134 262 176 174 q 92 460 92 350 q 132 655 92 566 q 245 808 172 744 q 418 907 317 871 q 642 942 519 942 q 867 908 768 942 q 1034 811 966 874 q 1137 658 1102 748 q 1173 456 1173 568 l 1173 435 l 179 435 q 222 278 186 348 q 325 159 258 208 q 487 84 391 111 q 713 58 584 58 q 824 66 768 58 q 932 86 880 73 q 1026 114 983 98 q 1096 147 1069 130 l 1096 49 m 1089 509 q 1057 645 1084 580 q 976 759 1030 709 q 839 838 922 808 q 640 867 756 867 q 449 838 531 867 q 310 759 367 808 q 220 645 253 710 q 179 509 188 581 l 1089 509 z "},"f":{"ha":1136,"x_min":157,"x_max":1051,"o":"m 633 852 q 457 839 531 852 q 335 795 383 825 q 264 721 288 766 q 241 612 241 675 l 241 509 l 1038 509 l 1038 429 l 241 429 l 241 0 l 157 0 l 157 627 q 182 755 157 699 q 263 851 208 812 q 406 911 319 890 q 616 932 493 932 l 1051 932 l 1051 852 l 633 852 z "},"g":{"ha":1264,"x_min":92,"x_max":1150,"o":"m 705 949 q 825 942 770 949 q 932 924 881 936 q 1031 896 983 912 q 1128 859 1079 879 l 1128 755 q 1045 802 1089 780 q 951 840 1002 823 q 843 865 901 856 q 718 875 785 875 q 481 846 583 875 q 313 765 380 818 q 213 636 246 712 q 179 465 179 560 q 212 301 179 376 q 312 172 245 227 q 479 87 378 118 q 714 57 579 57 q 819 61 767 57 q 917 72 871 65 q 1001 86 963 78 q 1065 102 1039 94 l 1065 385 l 686 385 l 686 464 l 1150 464 l 1150 54 q 1049 23 1100 37 q 943 0 998 9 q 830 -14 888 -9 q 707 -18 771 -18 q 463 11 575 -18 q 268 101 350 41 q 138 252 185 161 q 92 465 92 342 q 113 615 92 547 q 175 736 135 682 q 270 830 214 790 q 394 896 326 870 q 541 936 463 922 q 705 949 620 949 z "},"h":{"ha":1318,"x_min":157,"x_max":1161,"o":"m 1076 0 l 1076 452 l 241 452 l 241 0 l 157 0 l 157 932 l 241 932 l 241 530 l 1076 530 l 1076 932 l 1161 932 l 1161 0 l 1076 0 z "},"i":{"ha":399,"x_min":157,"x_max":241,"o":"m 157 0 l 157 932 l 241 932 l 241 0 l 157 0 z "},"j":{"ha":821,"x_min":0,"x_max":668,"o":"m 668 298 q 641 163 668 221 q 565 66 614 105 q 448 8 516 28 q 298 -11 380 -11 q 205 -6 248 -11 q 126 5 162 -2 q 59 19 90 12 q 0 35 28 27 l 0 122 q 59 101 28 111 q 127 83 90 91 q 213 70 165 75 q 321 65 260 65 q 424 80 376 65 q 507 125 471 96 q 563 197 543 155 q 583 294 583 239 l 583 932 l 668 932 l 668 298 z "},"k":{"ha":1204,"x_min":157,"x_max":1118,"o":"m 1031 0 q 994 137 1024 76 q 915 246 963 199 q 806 328 867 294 q 675 385 744 362 q 532 417 606 407 q 386 428 458 428 l 241 428 l 241 0 l 157 0 l 157 932 l 241 932 l 241 503 l 363 503 q 507 516 435 503 q 645 554 579 529 q 767 617 710 580 q 867 702 823 654 q 938 807 910 749 q 972 932 966 865 l 1060 932 q 1027 798 1053 858 q 963 690 1001 738 q 878 605 925 642 q 783 543 831 569 q 689 499 735 517 q 606 473 643 482 q 707 451 652 466 q 816 410 762 435 q 922 348 871 385 q 1015 260 974 311 q 1084 146 1056 210 q 1118 0 1112 81 l 1031 0 z "},"l":{"ha":986,"x_min":157,"x_max":972,"o":"m 241 322 q 252 214 241 259 q 294 139 262 168 q 388 96 327 110 q 551 82 450 82 l 972 82 l 972 0 l 534 0 q 350 18 422 0 q 234 74 277 36 q 174 169 191 111 q 157 306 157 227 l 157 932 l 241 932 l 241 322 z "},"m":{"ha":1731,"x_min":157,"x_max":1578,"o":"m 241 932 l 241 789 q 308 844 271 814 q 389 897 345 873 q 484 938 433 922 q 595 954 536 954 q 762 912 689 954 q 879 781 834 869 q 968 853 922 821 q 1063 907 1015 885 q 1163 942 1112 930 q 1270 954 1215 954 q 1397 930 1339 954 q 1494 865 1454 907 q 1556 768 1534 824 q 1578 648 1578 712 l 1578 0 l 1493 0 l 1493 627 q 1479 731 1493 685 q 1436 808 1466 777 q 1361 857 1407 840 q 1251 873 1315 873 q 1151 859 1200 873 q 1055 820 1101 844 q 970 766 1010 796 q 901 703 931 735 q 905 670 905 684 q 905 637 905 656 l 905 0 l 821 0 l 821 627 q 802 743 821 696 q 751 819 784 790 q 674 861 719 848 q 578 873 630 873 q 480 857 528 873 q 387 812 431 840 q 306 752 343 785 q 241 685 269 718 l 241 0 l 157 0 l 157 932 l 241 932 z "},"n":{"ha":1296,"x_min":157,"x_max":1143,"o":"m 1059 0 l 1059 615 q 1038 742 1059 692 q 979 821 1017 792 q 886 862 941 850 q 762 873 831 873 q 607 854 683 873 q 463 805 530 835 q 338 740 395 776 q 241 671 281 704 l 241 0 l 157 0 l 157 932 l 241 932 l 241 768 q 346 831 289 798 q 470 891 404 864 q 611 937 536 919 q 770 954 686 954 q 934 931 864 954 q 1051 867 1004 909 q 1120 766 1097 825 q 1143 633 1143 707 l 1143 0 l 1059 0 z "},"o":{"ha":1367,"x_min":92,"x_max":1275,"o":"m 1275 465 q 1230 249 1275 340 q 1105 98 1184 157 q 918 10 1025 39 q 685 -18 810 -18 q 451 10 559 -18 q 262 98 342 39 q 137 249 182 157 q 92 465 92 340 q 113 617 92 549 q 172 739 134 685 q 263 832 210 793 q 384 898 317 871 q 526 936 450 924 q 685 949 602 949 q 918 920 810 949 q 1105 832 1025 892 q 1230 682 1184 773 q 1275 465 1275 591 m 1187 465 q 1155 640 1187 564 q 1060 768 1123 716 q 903 847 997 820 q 685 873 809 873 q 466 846 561 873 q 308 767 372 819 q 212 639 244 715 q 179 465 179 563 q 212 290 179 366 q 308 162 244 214 q 466 84 372 111 q 685 57 561 57 q 903 84 809 57 q 1060 162 997 111 q 1155 290 1123 214 q 1187 465 1187 366 z "},"p":{"ha":1137,"x_min":157,"x_max":1065,"o":"m 1065 646 q 1043 522 1065 576 q 971 432 1020 469 q 845 377 922 395 q 660 358 768 358 l 241 358 l 241 0 l 157 0 l 157 932 l 660 932 q 845 913 768 932 q 971 859 922 895 q 1043 769 1020 823 q 1065 646 1065 715 m 978 646 q 956 753 978 712 q 888 815 934 793 q 772 845 842 838 q 606 852 702 852 l 241 852 l 241 437 l 606 437 q 685 437 643 437 q 769 441 728 437 q 848 457 810 446 q 915 491 886 468 q 961 551 943 514 q 978 646 978 589 z "},"q":{"ha":1367,"x_min":92,"x_max":1353,"o":"m 1275 465 q 1233 256 1275 345 q 1118 109 1191 168 q 1206 91 1164 98 q 1281 77 1249 83 q 1353 66 1319 71 l 1321 -22 l 1017 46 q 862 -2 945 14 q 685 -18 778 -18 q 451 10 559 -18 q 262 98 342 39 q 137 249 182 157 q 92 465 92 340 q 113 617 92 549 q 172 739 134 685 q 263 832 210 793 q 384 898 317 871 q 526 936 450 924 q 685 949 602 949 q 918 920 810 949 q 1105 832 1025 892 q 1230 682 1184 773 q 1275 465 1275 591 m 1187 465 q 1155 640 1187 564 q 1060 768 1123 716 q 903 847 997 820 q 685 873 809 873 q 466 846 561 873 q 308 767 372 819 q 212 639 244 715 q 179 465 179 563 q 212 290 179 366 q 308 162 244 214 q 466 84 372 111 q 685 57 561 57 q 903 84 809 57 q 1060 162 997 111 q 1155 290 1123 214 q 1187 465 1187 366 z "},"r":{"ha":847,"x_min":157,"x_max":847,"o":"m 847 860 q 792 873 827 866 q 703 880 758 880 q 560 862 627 880 q 436 811 493 843 q 330 737 378 779 q 241 647 281 694 l 241 0 l 157 0 l 157 932 l 241 932 l 241 742 q 340 828 287 789 q 452 896 393 867 q 576 940 511 924 q 710 956 641 956 q 753 955 734 956 q 788 952 772 954 q 818 948 804 950 q 847 943 832 946 l 847 860 l 847 860 z "},"s":{"ha":1093,"x_min":113,"x_max":987,"o":"m 909 794 q 848 822 883 807 q 769 848 814 836 q 669 867 725 859 q 546 875 614 875 q 400 865 464 875 q 291 836 336 856 q 223 785 247 816 q 200 713 200 755 q 222 651 200 677 q 282 604 244 625 q 370 567 319 584 q 477 536 420 551 q 594 507 534 522 q 710 474 654 492 q 818 436 767 457 q 906 386 868 414 q 965 321 943 357 q 987 236 987 284 q 968 145 987 184 q 915 78 948 106 q 836 31 881 50 q 740 1 791 12 q 634 -14 688 -9 q 526 -18 579 -18 q 306 -1 405 -18 q 118 47 208 17 l 118 151 q 313 76 210 96 q 529 56 416 56 q 677 65 609 56 q 794 95 745 75 q 871 149 844 116 q 899 231 899 182 q 877 298 899 269 q 817 350 854 328 q 729 389 779 372 q 622 420 678 406 q 506 449 566 435 q 389 479 446 463 q 282 515 333 495 q 194 563 232 536 q 135 627 157 591 q 113 710 113 663 q 130 793 113 757 q 179 856 148 829 q 251 900 210 882 q 339 929 292 918 q 437 944 387 939 q 538 949 488 949 q 641 944 592 949 q 734 931 689 939 q 822 913 779 924 q 909 892 865 903 l 909 794 z "},"t":{"ha":985,"x_min":26,"x_max":958,"o":"m 534 854 l 534 0 l 450 0 l 450 854 l 26 854 l 26 932 l 958 932 l 958 854 l 534 854 z "},"u":{"ha":1293,"x_min":153,"x_max":1136,"o":"m 239 932 l 239 317 q 258 189 238 239 q 317 110 279 138 q 410 70 355 81 q 533 58 465 58 q 688 78 612 58 q 831 126 764 97 q 955 192 899 156 q 1050 261 1010 228 l 1050 932 l 1136 932 l 1136 0 l 1050 0 l 1050 164 q 946 101 1002 134 q 824 40 890 68 q 684 -5 759 13 q 526 -22 610 -22 q 362 1 432 -22 q 245 68 292 25 q 176 169 199 111 q 153 298 153 228 l 153 932 l 239 932 z "},"v":{"ha":1136,"x_min":37,"x_max":1099,"o":"m 629 0 l 503 0 l 37 932 l 132 932 l 568 58 l 1004 932 l 1099 932 l 629 0 z "},"w":{"ha":1758,"x_min":52,"x_max":1707,"o":"m 936 932 l 1268 68 l 1613 932 l 1707 932 l 1332 0 l 1206 0 l 879 842 l 553 0 l 427 0 l 52 932 l 146 932 l 490 68 l 822 932 l 936 932 z "},"x":{"ha":1141,"x_min":62,"x_max":1080,"o":"m 571 421 l 170 0 l 62 0 l 518 478 l 85 932 l 192 932 l 571 533 l 951 932 l 1059 932 l 625 478 l 1080 0 l 974 0 l 571 421 z "},"y":{"ha":1265,"x_min":125,"x_max":1108,"o":"m 1108 340 q 1065 182 1108 249 q 948 71 1023 115 q 771 6 873 27 q 550 -16 669 -16 q 313 1 421 -16 q 125 47 205 18 l 125 146 q 214 112 168 127 q 313 84 260 96 q 424 66 365 73 q 553 60 484 60 q 736 78 650 60 q 885 133 821 97 q 985 220 948 168 q 1022 340 1022 273 l 1022 517 q 942 432 989 473 q 837 361 895 392 q 711 312 779 330 q 568 293 644 293 q 417 309 483 293 q 301 353 351 325 q 218 419 252 380 q 164 502 184 457 q 134 597 143 547 q 125 697 125 646 l 125 932 l 211 932 l 211 715 q 230 574 211 637 q 291 465 248 510 q 403 394 334 419 q 575 370 473 370 q 721 391 654 370 q 842 449 787 412 q 942 532 897 485 q 1022 632 987 580 l 1022 932 l 1108 932 l 1108 340 z "},"z":{"ha":1011,"x_min":100,"x_max":921,"o":"m 100 0 l 100 69 l 775 852 l 118 852 l 118 932 l 907 932 l 907 886 l 211 79 l 921 79 l 921 0 l 100 0 z "},"{":{"ha":536,"x_min":41,"x_max":467,"o":"m 197 240 q 193 327 197 291 q 175 386 189 363 q 136 420 161 409 q 68 431 111 431 l 41 431 l 41 500 l 68 500 q 137 511 111 500 q 176 546 163 522 q 194 605 190 569 q 197 692 197 642 l 197 775 q 209 883 197 838 q 245 956 220 927 q 308 997 269 984 q 399 1010 346 1010 l 467 1010 l 467 937 l 408 937 q 353 934 377 937 q 314 918 330 931 q 290 876 298 904 q 282 799 282 848 l 282 692 q 277 617 282 654 q 259 550 273 581 q 222 497 246 519 q 160 465 199 475 q 222 433 198 455 q 259 380 245 411 q 277 313 273 350 q 282 239 282 277 l 282 129 q 290 52 282 79 q 314 10 298 24 q 353 -6 330 -3 q 408 -9 377 -9 l 467 -9 l 467 -82 l 399 -82 q 308 -69 346 -82 q 245 -28 269 -56 q 209 45 220 1 q 197 153 197 90 l 197 240 z "},"|":{"ha":361,"x_min":139,"x_max":222,"o":"m 139 -328 l 139 1061 l 222 1061 l 222 -328 l 139 -328 z "},"}":{"ha":536,"x_min":69,"x_max":494,"o":"m 339 153 q 328 45 339 90 q 292 -28 316 1 q 229 -69 267 -56 q 138 -82 191 -82 l 69 -82 l 69 -9 l 127 -9 q 182 -6 159 -9 q 222 10 206 -3 q 246 52 238 24 q 254 129 254 79 l 254 239 q 259 313 254 277 q 277 380 264 350 q 315 433 291 411 q 376 465 338 455 q 314 497 338 475 q 276 550 290 519 q 259 617 263 581 q 254 692 254 654 l 254 799 q 246 876 254 848 q 222 918 238 904 q 182 934 206 931 q 127 937 159 937 l 69 937 l 69 1010 l 138 1010 q 229 997 191 1010 q 292 956 267 984 q 328 883 316 927 q 339 775 339 838 l 339 692 q 343 605 339 642 q 360 546 347 569 q 398 511 373 522 q 468 500 424 500 l 494 500 l 494 431 l 468 431 q 400 420 425 431 q 361 386 374 409 q 343 327 347 363 q 339 240 339 291 l 339 153 z "},"~":{"ha":882,"x_min":106,"x_max":777,"o":"m 777 460 q 708 412 748 431 q 612 392 667 392 q 527 404 570 392 q 439 429 484 415 q 350 454 395 442 q 262 465 306 465 q 216 458 239 465 q 174 441 194 452 q 136 416 153 430 q 106 389 119 402 l 106 469 q 138 497 120 484 q 178 519 157 509 q 222 534 199 528 q 268 539 245 539 q 353 527 309 539 q 442 502 397 515 q 531 476 487 488 q 619 464 576 464 q 665 471 643 464 q 708 489 688 477 q 746 514 728 500 q 777 542 763 528 l 777 460 l 777 460 z "}," ":{"ha":522,"x_min":0,"x_max":0,"o":""},"¡":{"ha":382,"x_min":139,"x_max":243,"o":"m 243 147 l 243 0 l 139 0 l 139 147 l 163 682 l 220 682 l 243 147 m 243 932 l 243 799 l 139 799 l 139 932 l 243 932 z "},"¢":{"ha":1023,"x_min":69,"x_max":954,"o":"m 954 136 q 872 104 912 119 q 789 79 832 90 q 700 62 747 68 q 597 56 652 56 l 597 -74 l 525 -74 l 525 57 q 344 93 427 64 q 199 175 260 123 q 104 302 138 227 q 69 473 69 376 q 104 645 69 570 q 199 772 138 720 q 344 854 260 825 q 525 890 427 884 l 525 1006 l 597 1006 l 597 893 q 700 886 652 892 q 789 870 747 880 q 872 845 832 859 q 954 812 912 830 l 954 718 q 882 758 920 739 q 800 790 844 777 q 705 812 755 804 q 597 821 655 821 l 597 129 q 706 137 655 129 q 802 159 758 145 q 885 192 847 174 q 954 231 923 210 l 954 136 m 160 473 q 182 340 160 399 q 250 236 205 280 q 363 166 295 193 q 525 132 432 139 l 525 818 q 363 783 432 810 q 250 712 295 756 q 182 608 205 668 q 160 473 160 547 z "},"£":{"ha":1101,"x_min":83,"x_max":1018,"o":"m 1018 3 q 990 -2 1008 1 q 945 -10 972 -6 q 881 -17 918 -14 q 798 -20 844 -20 q 677 -12 733 -20 q 568 7 621 -3 q 462 25 515 17 q 351 33 409 33 q 266 27 301 33 q 200 13 230 21 q 143 -3 171 5 q 83 -14 116 -11 l 83 64 q 152 81 116 68 q 216 118 187 94 q 264 180 245 142 q 283 273 283 218 l 283 421 l 85 421 l 85 494 l 283 494 l 283 579 q 306 736 283 667 q 377 852 329 805 q 499 924 425 900 q 677 949 574 949 q 755 946 719 949 q 825 938 791 943 q 892 925 859 932 q 962 909 926 918 l 962 810 q 910 832 937 821 q 852 853 884 844 q 783 869 821 863 q 696 875 745 875 q 545 860 607 875 q 443 807 482 844 q 386 706 404 769 q 368 547 368 643 l 368 494 l 815 494 l 815 421 l 368 421 l 368 273 q 351 171 368 217 q 307 100 333 125 q 321 103 312 102 q 340 106 330 105 q 360 107 351 106 q 378 107 370 107 q 484 99 431 107 q 590 81 537 91 q 692 62 642 71 q 789 54 743 54 q 876 60 838 54 q 943 74 914 66 q 990 90 972 81 q 1018 104 1009 98 l 1018 3 z "},"¤":{"ha":778,"x_min":82,"x_max":696,"o":"m 590 612 q 627 541 614 579 q 639 463 639 503 q 627 385 639 422 q 590 314 616 347 l 696 208 l 644 155 l 538 262 q 466 225 504 239 q 389 212 427 212 q 311 225 349 212 q 240 262 273 237 l 134 155 l 82 208 l 189 315 q 152 386 165 348 q 139 463 139 424 q 151 541 139 503 q 189 611 163 578 l 82 720 l 134 771 l 240 664 q 313 701 275 689 q 392 713 351 713 q 468 701 431 713 q 538 665 505 689 l 644 771 l 696 720 l 590 612 m 261 335 q 320 296 287 309 q 389 283 353 283 q 455 295 422 283 q 514 330 488 307 q 555 386 540 353 q 571 463 571 419 q 556 532 571 499 q 517 590 542 566 q 459 630 492 615 q 389 644 426 644 q 317 629 350 644 q 260 589 284 614 q 222 531 236 564 q 208 463 208 498 q 221 394 208 427 q 261 335 234 361 z "},"¥":{"ha":1126,"x_min":83,"x_max":1043,"o":"m 125 534 l 407 534 l 83 932 l 184 932 l 564 465 l 942 932 l 1043 932 l 720 534 l 1002 534 l 1002 461 l 660 461 l 606 395 l 606 340 l 1002 340 l 1002 267 l 606 267 l 606 0 l 521 0 l 521 267 l 125 267 l 125 340 l 521 340 l 521 395 l 467 461 l 125 461 l 125 534 z "},"¦":{"ha":361,"x_min":139,"x_max":222,"o":"m 139 456 l 139 970 l 222 970 l 222 456 l 139 456 m 139 -239 l 139 275 l 222 275 l 222 -239 l 139 -239 z "},"§":{"ha":694,"x_min":83,"x_max":611,"o":"m 611 444 q 602 387 611 412 q 576 340 593 361 q 536 304 559 320 q 486 277 513 289 q 546 218 523 251 q 570 142 570 186 q 550 71 570 101 q 498 21 531 41 q 421 -8 465 1 q 326 -18 376 -18 q 220 -8 269 -18 q 122 20 171 3 l 122 115 q 166 93 144 104 q 213 72 189 81 q 265 57 237 63 q 325 52 292 52 q 446 76 406 52 q 486 138 486 100 q 469 189 486 166 q 423 230 452 211 q 359 265 395 248 q 285 298 323 281 q 211 333 247 315 q 146 373 175 351 q 101 422 118 395 q 83 485 83 450 q 93 541 83 516 q 119 587 102 566 q 158 623 136 607 q 207 652 181 639 q 148 710 172 677 q 125 787 125 743 q 143 858 125 827 q 194 908 162 888 q 268 938 225 928 q 358 947 310 947 q 452 939 407 947 q 546 916 497 931 l 546 818 q 464 860 507 843 q 359 878 420 878 q 245 854 282 878 q 208 791 208 831 q 225 741 208 763 q 271 700 243 718 q 336 664 300 681 q 410 631 372 648 q 484 596 448 614 q 548 556 519 578 q 594 507 576 534 q 611 444 611 479 m 529 425 q 518 468 529 449 q 487 502 507 486 q 443 532 468 518 q 388 559 417 546 q 328 586 359 572 q 267 615 296 600 q 234 600 252 609 q 201 578 216 591 q 176 547 186 566 q 165 504 165 529 q 189 443 165 468 q 251 396 213 417 q 334 355 288 375 q 425 313 380 336 q 459 330 441 319 q 493 354 477 340 q 519 386 509 368 q 529 425 529 404 z "},"¨":{"ha":733,"x_min":180,"x_max":553,"o":"m 180 786 l 180 886 l 281 886 l 281 786 l 180 786 m 453 786 l 453 886 l 553 886 l 553 786 l 453 786 z "},"©":{"ha":1071,"x_min":69,"x_max":1002,"o":"m 1002 465 q 985 341 1002 401 q 938 230 968 282 q 865 136 907 178 q 770 63 823 94 q 659 17 718 33 q 534 0 599 0 q 411 17 471 0 q 300 63 351 33 q 206 136 248 94 q 133 230 163 178 q 86 341 102 282 q 69 465 69 401 q 86 589 69 530 q 133 701 102 649 q 206 795 163 753 q 300 868 248 838 q 411 915 351 899 q 534 932 470 932 q 659 915 599 932 q 770 868 718 899 q 865 795 823 838 q 938 701 907 753 q 985 589 968 649 q 1002 465 1002 530 m 734 235 q 689 213 711 222 q 643 197 667 203 q 594 187 620 191 q 538 183 568 183 q 429 202 479 183 q 342 258 379 222 q 284 347 305 294 q 262 465 262 399 q 284 584 262 531 q 342 672 305 636 q 429 728 379 709 q 538 747 479 747 q 594 744 568 747 q 643 733 620 740 q 689 717 667 726 q 734 696 711 707 l 734 615 q 644 669 688 649 q 547 689 600 689 q 458 673 497 689 q 393 627 420 656 q 353 556 367 597 q 339 465 339 515 q 353 374 339 415 q 393 303 367 333 q 458 258 420 274 q 547 241 497 241 q 644 261 600 241 q 734 314 688 281 l 734 235 m 134 465 q 165 309 134 382 q 251 181 197 235 q 378 95 305 127 q 534 64 451 64 q 692 95 618 64 q 821 181 766 127 q 907 309 876 235 q 939 465 939 382 q 907 623 939 549 q 821 751 876 696 q 692 838 766 806 q 534 869 618 869 q 378 838 451 869 q 251 751 305 806 q 165 623 197 696 q 134 465 134 549 z "},"ª":{"ha":690,"x_min":41,"x_max":614,"o":"m 62 322 l 62 385 l 614 385 l 614 322 l 62 322 m 541 479 l 541 536 q 486 511 515 524 q 423 489 457 498 q 351 473 389 479 q 268 467 312 467 q 173 475 215 467 q 102 500 132 484 q 57 541 73 517 q 41 596 41 565 q 76 673 41 642 q 174 724 110 705 q 331 754 239 744 q 541 768 424 764 l 541 786 q 523 837 541 817 q 477 868 506 857 q 410 885 448 880 q 330 890 372 890 q 252 886 286 890 q 192 874 219 882 q 141 857 165 867 q 92 835 117 846 l 92 909 q 208 934 148 923 q 338 945 267 945 q 447 936 397 945 q 534 909 497 928 q 593 860 572 890 q 614 786 614 829 l 614 479 l 541 479 m 541 717 q 340 703 421 713 q 210 678 259 693 q 139 643 161 663 q 118 597 118 623 q 160 539 118 557 q 283 522 201 522 q 364 529 326 522 q 436 545 403 535 q 495 568 469 555 q 541 593 522 581 l 541 717 z "},"«":{"ha":612,"x_min":56,"x_max":557,"o":"m 56 435 l 56 496 l 249 724 l 307 673 l 134 465 l 307 257 l 249 207 l 56 435 m 306 435 l 306 496 l 498 724 l 557 673 l 383 465 l 557 257 l 498 207 l 306 435 z "},"¬":{"ha":882,"x_min":117,"x_max":765,"o":"m 692 311 l 692 533 l 117 533 l 117 607 l 765 607 l 765 311 l 692 311 z "},"­":{"ha":750,"x_min":111,"x_max":639,"o":"m 111 424 l 111 507 l 639 507 l 639 424 l 111 424 z "},"®":{"ha":833,"x_min":74,"x_max":758,"o":"m 758 606 q 731 472 758 534 q 658 364 705 410 q 549 291 612 317 q 415 264 486 264 q 282 291 345 264 q 174 364 220 317 q 101 472 127 410 q 74 606 74 534 q 101 740 74 677 q 174 849 127 802 q 282 922 220 895 q 415 949 345 949 q 549 922 486 949 q 658 849 612 895 q 731 740 705 802 q 758 606 758 677 m 127 606 q 150 493 127 545 q 211 402 172 441 q 303 340 250 363 q 415 318 355 318 q 528 340 475 318 q 620 402 581 363 q 682 493 659 441 q 704 606 704 545 q 682 719 704 666 q 620 810 659 771 q 528 872 581 850 q 415 895 475 895 q 303 872 355 895 q 211 810 250 850 q 150 719 172 771 q 127 606 127 666 m 343 574 l 343 411 l 281 411 l 281 806 l 419 806 q 531 777 492 806 q 570 692 570 748 q 551 625 570 651 q 496 585 532 598 l 599 411 l 532 411 l 440 575 q 432 574 437 574 q 422 574 428 574 q 410 574 416 574 l 343 574 m 504 692 q 482 743 504 723 q 414 762 460 762 l 343 762 l 343 616 l 414 616 q 482 638 460 616 q 504 692 504 659 z "},"¯":{"ha":733,"x_min":180,"x_max":553,"o":"m 180 793 l 180 869 l 553 869 l 553 793 l 180 793 z "},"°":{"ha":518,"x_min":90,"x_max":428,"o":"m 90 762 q 103 828 90 798 q 139 882 117 859 q 193 919 162 905 q 258 932 224 932 q 324 919 293 932 q 378 882 355 905 q 414 828 401 859 q 428 762 428 798 q 414 697 428 728 q 378 644 401 667 q 324 608 355 621 q 258 595 293 595 q 193 608 224 595 q 139 644 162 621 q 103 697 117 667 q 90 762 90 728 m 157 762 q 164 722 157 741 q 186 690 172 704 q 218 669 200 677 q 258 661 237 661 q 298 669 279 661 q 331 690 317 677 q 353 722 345 704 q 361 762 361 741 q 353 802 361 783 q 331 835 345 821 q 298 857 317 849 q 258 865 279 865 q 218 857 237 865 q 186 835 200 849 q 164 802 172 821 q 157 762 157 783 z "},"±":{"ha":882,"x_min":117,"x_max":765,"o":"m 478 485 l 478 240 l 404 240 l 404 485 l 117 485 l 117 558 l 404 558 l 404 817 l 478 817 l 478 558 l 765 558 l 765 485 l 478 485 m 117 66 l 117 140 l 765 140 l 765 66 l 117 66 z "},"²":{"ha":710,"x_min":49,"x_max":633,"o":"m 49 345 l 49 400 q 257 509 165 461 q 413 598 349 557 q 511 677 477 640 q 545 754 545 714 q 525 810 545 787 q 472 849 505 834 q 396 872 439 865 q 307 879 353 879 q 179 860 241 879 q 56 808 117 842 l 56 897 q 120 916 90 907 q 181 930 151 924 q 244 939 212 936 q 313 942 276 942 q 436 930 379 942 q 535 893 493 918 q 600 835 576 869 q 624 755 624 800 q 597 674 624 713 q 516 596 570 636 q 382 511 462 555 q 196 411 302 466 l 633 411 l 633 345 l 49 345 z "},"³":{"ha":711,"x_min":49,"x_max":621,"o":"m 414 660 q 506 640 467 654 q 570 607 545 627 q 608 563 595 587 q 621 513 621 539 q 596 432 621 466 q 529 377 572 399 q 427 344 486 355 q 300 334 368 334 q 223 336 258 334 q 158 344 188 339 q 101 356 127 349 q 49 370 74 362 l 49 453 q 163 409 102 422 q 289 395 224 395 q 395 403 348 395 q 475 427 442 412 q 525 464 507 443 q 542 511 542 486 q 523 565 542 543 q 465 601 503 587 q 368 621 426 614 q 231 628 309 627 l 231 686 q 333 692 281 686 q 426 709 385 697 q 494 741 468 722 q 521 787 521 760 q 505 827 521 810 q 460 856 490 844 q 389 874 431 868 q 294 880 347 880 q 169 869 227 880 q 60 829 112 858 l 60 911 q 120 925 91 919 q 179 934 149 930 q 239 940 208 938 q 304 942 270 942 q 414 934 361 942 q 508 909 467 926 q 574 862 549 891 q 599 790 599 833 q 588 746 599 768 q 553 708 576 725 q 495 677 530 690 q 414 660 460 665 z "},"´":{"ha":733,"x_min":282,"x_max":607,"o":"m 607 899 l 309 772 l 282 825 l 572 970 l 607 899 z "},"µ":{"ha":979,"x_min":46,"x_max":850,"o":"m 310 650 l 227 218 q 250 153 235 182 q 287 101 265 123 q 336 68 308 80 q 401 57 365 57 q 494 74 452 57 q 571 117 536 90 q 635 178 606 144 q 688 245 664 212 l 765 650 l 850 650 l 772 245 q 765 195 767 217 q 762 153 762 172 q 765 110 762 130 q 771 73 767 91 q 781 38 775 56 q 791 0 786 20 l 707 0 q 689 66 697 31 q 681 154 681 102 q 625 94 654 124 q 561 39 596 64 q 483 0 525 15 q 387 -16 440 -16 q 277 21 325 -16 q 207 119 230 58 l 131 -278 l 46 -278 l 225 650 l 310 650 z "},"¶":{"ha":814,"x_min":83,"x_max":647,"o":"m 586 0 l 586 884 l 456 884 l 456 0 l 395 0 l 395 401 q 280 417 336 401 q 180 464 224 432 q 110 546 136 496 q 83 667 83 596 q 110 787 83 737 q 180 870 136 838 q 280 917 224 902 q 395 932 336 932 l 647 932 l 647 0 l 586 0 z "},"·":{"ha":257,"x_min":69,"x_max":187,"o":"m 69 395 l 69 542 l 187 542 l 187 395 l 69 395 z "},"¸":{"ha":733,"x_min":212,"x_max":524,"o":"m 380 -66 q 436 -71 410 -66 q 482 -87 463 -76 q 512 -117 501 -98 q 524 -164 524 -136 q 511 -215 524 -195 q 476 -249 498 -236 q 422 -267 454 -261 q 354 -272 391 -272 q 279 -266 315 -272 q 212 -254 242 -260 l 212 -186 q 278 -204 243 -197 q 349 -211 314 -211 q 397 -208 377 -211 q 428 -198 416 -204 q 445 -183 440 -192 q 450 -164 450 -174 q 444 -142 450 -151 q 425 -129 437 -134 q 399 -121 414 -123 q 368 -119 385 -119 q 332 -120 351 -119 q 298 -123 314 -121 l 350 14 l 411 14 l 380 -66 z "},"¹":{"ha":363,"x_min":14,"x_max":237,"o":"m 160 345 l 160 867 l 14 822 l 14 888 l 160 932 l 237 932 l 237 345 l 160 345 z "},"º":{"ha":722,"x_min":41,"x_max":681,"o":"m 681 705 q 657 607 681 651 q 592 532 634 563 q 491 484 550 500 q 363 467 433 467 q 232 484 292 467 q 131 532 173 500 q 65 607 88 563 q 41 705 41 651 q 65 804 41 760 q 131 879 88 848 q 232 928 173 911 q 363 945 292 945 q 491 928 433 945 q 592 879 550 911 q 657 804 634 848 q 681 705 681 760 m 607 705 q 589 785 607 751 q 538 842 570 819 q 460 876 505 865 q 363 888 416 888 q 264 876 309 888 q 186 842 219 865 q 135 785 153 819 q 117 705 117 751 q 135 626 117 660 q 186 569 153 592 q 264 535 219 547 q 363 524 309 524 q 462 535 417 524 q 539 570 507 547 q 589 627 571 593 q 607 705 607 661 m 75 322 l 75 385 l 647 385 l 647 322 l 75 322 z "},"»":{"ha":612,"x_min":56,"x_max":557,"o":"m 364 207 l 306 257 l 479 465 l 306 673 l 364 724 l 557 496 l 557 435 l 364 207 m 114 207 l 56 257 l 229 465 l 56 673 l 114 724 l 307 496 l 307 435 l 114 207 z "},"¼":{"ha":1192,"x_min":28,"x_max":1122,"o":"m 1122 119 l 990 119 l 990 0 l 916 0 l 916 119 l 559 119 l 559 182 l 892 494 l 990 494 l 990 183 l 1122 183 l 1122 119 m 916 431 l 653 183 l 916 183 l 916 431 m 174 437 l 174 868 l 28 823 l 28 888 l 174 932 l 249 932 l 249 437 l 174 437 m 203 0 l 111 0 l 854 932 l 945 932 l 203 0 z "},"½":{"ha":1301,"x_min":28,"x_max":1190,"o":"m 713 0 l 713 52 q 881 141 807 102 q 1004 213 954 180 q 1081 277 1055 246 q 1107 342 1107 307 q 1100 376 1107 358 q 1073 408 1093 393 q 1018 432 1053 422 q 928 441 983 441 q 822 425 878 441 q 718 382 767 409 l 718 461 q 824 491 770 480 q 933 503 878 503 q 1035 492 988 503 q 1116 462 1082 482 q 1168 413 1149 442 q 1187 346 1187 384 q 1170 281 1187 311 q 1112 218 1152 250 q 1010 149 1073 186 q 859 64 947 111 l 1190 64 l 1190 0 l 713 0 m 174 437 l 174 868 l 28 823 l 28 888 l 174 932 l 249 932 l 249 437 l 174 437 m 203 0 l 111 0 l 854 932 l 945 932 l 203 0 z "},"¾":{"ha":1358,"x_min":69,"x_max":1289,"o":"m 522 812 q 513 775 522 793 q 485 743 504 758 q 438 717 466 728 q 371 701 410 706 q 500 657 459 690 q 541 579 541 624 q 520 511 541 540 q 465 464 500 483 q 382 437 430 446 q 277 428 334 428 q 214 430 242 428 q 160 436 185 432 q 113 445 136 439 q 69 456 91 450 l 69 538 q 119 513 96 524 q 166 497 142 503 q 216 488 190 491 q 275 485 243 485 q 360 492 325 485 q 419 512 396 499 q 452 542 441 525 q 463 578 463 558 q 401 649 463 627 q 220 672 340 671 l 220 730 q 390 748 334 730 q 446 807 446 765 q 404 863 446 842 q 277 884 362 884 q 218 880 244 884 q 169 871 192 877 q 125 857 146 865 q 81 839 104 849 l 81 916 q 130 927 106 922 q 177 934 153 931 q 227 939 201 937 q 282 940 253 940 q 372 933 328 940 q 449 912 415 927 q 502 873 482 897 q 522 812 522 848 m 1289 119 l 1157 119 l 1157 0 l 1082 0 l 1082 119 l 726 119 l 726 182 l 1059 494 l 1157 494 l 1157 183 l 1289 183 l 1289 119 m 1082 431 l 819 183 l 1082 183 l 1082 431 m 370 0 l 278 0 l 1021 932 l 1111 932 l 370 0 z "},"¿":{"ha":790,"x_min":97,"x_max":707,"o":"m 97 245 q 117 333 97 294 q 169 403 136 372 q 243 458 201 434 q 329 501 285 483 q 414 533 372 519 q 490 555 456 546 l 490 668 l 575 668 l 575 498 q 490 478 535 490 q 402 451 446 467 q 319 415 359 435 q 250 370 280 395 q 202 312 220 344 q 184 241 184 280 q 205 159 184 194 q 262 102 226 125 q 346 68 298 79 q 450 57 395 57 q 519 63 484 57 q 588 81 555 70 q 652 110 622 93 q 707 146 683 126 l 707 40 q 593 0 658 17 q 443 -17 528 -17 q 316 -3 378 -17 q 205 42 254 11 q 126 123 156 73 q 97 245 97 173 m 575 932 l 575 799 l 471 799 l 471 932 l 575 932 z "},"À":{"ha":1129,"x_min":28,"x_max":1103,"o":"m 1010 0 l 882 245 l 249 245 l 121 0 l 28 0 l 515 932 l 615 932 l 1103 0 l 1010 0 m 566 850 l 290 323 l 840 323 l 566 850 m 360 1215 l 652 1071 l 624 1018 l 325 1144 l 360 1215 z "},"Á":{"ha":1129,"x_min":28,"x_max":1103,"o":"m 1010 0 l 882 245 l 249 245 l 121 0 l 28 0 l 515 932 l 615 932 l 1103 0 l 1010 0 m 566 850 l 290 323 l 840 323 l 566 850 m 806 1144 l 507 1018 l 481 1071 l 771 1215 l 806 1144 z "},"Â":{"ha":1129,"x_min":28,"x_max":1103,"o":"m 1010 0 l 882 245 l 249 245 l 121 0 l 28 0 l 515 932 l 615 932 l 1103 0 l 1010 0 m 566 850 l 290 323 l 840 323 l 566 850 m 802 1018 l 566 1126 l 330 1018 l 303 1066 l 566 1215 l 828 1066 l 802 1018 z "},"Ã":{"ha":1129,"x_min":28,"x_max":1103,"o":"m 1010 0 l 882 245 l 249 245 l 121 0 l 28 0 l 515 932 l 615 932 l 1103 0 l 1010 0 m 566 850 l 290 323 l 840 323 l 566 850 m 806 1173 q 801 1130 806 1156 q 781 1080 795 1104 q 742 1040 767 1057 q 678 1023 718 1023 q 615 1036 646 1023 q 556 1064 585 1049 q 501 1093 527 1080 q 453 1105 475 1105 q 421 1095 433 1105 q 403 1071 409 1085 q 395 1044 397 1057 q 392 1023 393 1030 l 328 1023 q 333 1066 328 1040 q 353 1115 338 1091 q 392 1156 367 1139 q 457 1173 417 1173 q 513 1160 484 1173 q 571 1132 542 1147 q 629 1104 601 1117 q 681 1091 656 1091 q 713 1101 701 1091 q 731 1125 725 1112 q 739 1152 737 1139 q 742 1173 741 1166 l 806 1173 l 806 1173 z "},"Ä":{"ha":1129,"x_min":28,"x_max":1103,"o":"m 1010 0 l 882 245 l 249 245 l 121 0 l 28 0 l 515 932 l 615 932 l 1103 0 l 1010 0 m 566 850 l 290 323 l 840 323 l 566 850 m 379 1031 l 379 1132 l 479 1132 l 479 1031 l 379 1031 m 652 1031 l 652 1132 l 751 1132 l 751 1031 l 652 1031 z "},"Å":{"ha":1129,"x_min":28,"x_max":1103,"o":"m 1010 0 l 882 245 l 249 245 l 121 0 l 28 0 l 515 932 l 615 932 l 1103 0 l 1010 0 m 566 850 l 290 323 l 840 323 l 566 850 m 388 1129 q 400 1182 388 1158 q 436 1222 413 1206 q 493 1248 460 1239 q 566 1257 526 1257 q 638 1248 605 1257 q 694 1222 671 1239 q 730 1182 718 1206 q 743 1129 743 1158 q 730 1076 743 1099 q 694 1035 718 1052 q 638 1010 671 1019 q 566 1001 605 1001 q 493 1010 526 1001 q 436 1035 460 1019 q 400 1076 413 1052 q 388 1129 388 1099 m 457 1129 q 483 1082 457 1101 q 566 1063 508 1063 q 647 1082 623 1063 q 672 1129 672 1101 q 647 1175 672 1156 q 566 1194 623 1194 q 483 1175 508 1194 q 457 1129 457 1156 z "},"Æ":{"ha":1629,"x_min":0,"x_max":1524,"o":"m 737 0 l 737 244 l 272 244 l 111 0 l 0 0 l 631 932 l 1514 932 l 1514 852 l 829 852 l 829 532 l 1479 532 l 1479 453 l 829 453 l 829 79 l 1524 79 l 1524 0 l 737 0 m 323 323 l 737 323 l 737 852 l 673 852 l 323 323 z "},"Ç":{"ha":1207,"x_min":92,"x_max":1112,"o":"m 657 -66 q 713 -71 687 -66 q 759 -87 739 -76 q 789 -117 778 -98 q 800 -164 800 -136 q 788 -215 800 -195 q 753 -249 775 -236 q 699 -267 730 -261 q 631 -272 668 -272 q 555 -266 592 -272 q 489 -254 519 -260 l 489 -186 q 555 -204 519 -197 q 625 -211 591 -211 q 673 -208 654 -211 q 705 -198 693 -204 q 722 -183 717 -192 q 727 -164 727 -174 q 720 -142 727 -151 q 702 -129 713 -134 q 676 -121 690 -123 q 645 -119 661 -119 q 609 -120 627 -119 q 575 -123 591 -121 l 615 -16 q 524 -5 569 -12 q 382 36 448 9 q 263 103 317 63 q 171 197 210 144 q 112 318 133 251 q 92 465 92 385 q 112 612 92 545 q 171 733 133 680 q 263 827 210 787 q 382 895 317 867 q 524 935 448 922 q 684 949 600 949 q 808 942 751 949 q 916 923 865 935 q 1016 894 968 911 q 1112 857 1063 878 l 1112 755 q 1029 802 1074 780 q 934 840 985 823 q 825 865 883 856 q 700 875 766 875 q 467 846 566 875 q 305 763 369 817 q 210 634 241 710 q 179 465 179 559 q 210 296 179 372 q 305 168 241 221 q 467 86 369 115 q 700 57 566 57 q 826 66 766 57 q 937 92 885 76 q 1033 130 989 109 q 1112 175 1076 151 l 1112 74 q 1016 37 1063 54 q 916 7 968 20 q 808 -12 865 -5 q 684 -18 751 -18 l 675 -18 l 657 -66 z "},"È":{"ha":1048,"x_min":157,"x_max":943,"o":"m 157 0 l 157 932 l 933 932 l 933 852 l 249 852 l 249 532 l 899 532 l 899 453 l 249 453 l 249 79 l 943 79 l 943 0 l 157 0 m 332 1215 l 624 1071 l 596 1018 l 297 1144 l 332 1215 z "},"É":{"ha":1048,"x_min":157,"x_max":943,"o":"m 157 0 l 157 932 l 933 932 l 933 852 l 249 852 l 249 532 l 899 532 l 899 453 l 249 453 l 249 79 l 943 79 l 943 0 l 157 0 m 778 1144 l 479 1018 l 453 1071 l 743 1215 l 778 1144 z "},"Ê":{"ha":1048,"x_min":157,"x_max":943,"o":"m 157 0 l 157 932 l 933 932 l 933 852 l 249 852 l 249 532 l 899 532 l 899 453 l 249 453 l 249 79 l 943 79 l 943 0 l 157 0 m 774 1018 l 538 1126 l 302 1018 l 275 1066 l 538 1215 l 800 1066 l 774 1018 z "},"Ë":{"ha":1048,"x_min":157,"x_max":943,"o":"m 157 0 l 157 932 l 933 932 l 933 852 l 249 852 l 249 532 l 899 532 l 899 453 l 249 453 l 249 79 l 943 79 l 943 0 l 157 0 m 351 1031 l 351 1132 l 452 1132 l 452 1031 l 351 1031 m 624 1031 l 624 1132 l 724 1132 l 724 1031 l 624 1031 z "},"Ì":{"ha":399,"x_min":-41,"x_max":286,"o":"m 157 0 l 157 932 l 241 932 l 241 0 l 157 0 m -6 1215 l 286 1071 l 258 1018 l -41 1144 l -6 1215 z "},"Í":{"ha":399,"x_min":115,"x_max":439,"o":"m 157 0 l 157 932 l 241 932 l 241 0 l 157 0 m 439 1144 l 141 1018 l 115 1071 l 405 1215 l 439 1144 z "},"Î":{"ha":399,"x_min":-63,"x_max":462,"o":"m 157 0 l 157 932 l 241 932 l 241 0 l 157 0 m 435 1018 l 199 1126 l -37 1018 l -63 1066 l 199 1215 l 462 1066 l 435 1018 z "},"Ï":{"ha":399,"x_min":13,"x_max":385,"o":"m 157 0 l 157 932 l 241 932 l 241 0 l 157 0 m 13 1031 l 13 1132 l 113 1132 l 113 1031 l 13 1031 m 286 1031 l 286 1132 l 385 1132 l 385 1031 l 286 1031 z "},"Ð":{"ha":1264,"x_min":21,"x_max":1174,"o":"m 1174 467 q 1149 283 1174 359 q 1079 155 1124 207 q 974 72 1035 103 q 839 25 912 41 q 685 5 766 9 q 518 0 603 0 l 157 0 l 157 441 l 21 441 l 21 511 l 157 511 l 157 932 l 517 932 q 684 927 602 932 q 839 906 766 922 q 973 860 911 890 q 1079 778 1034 829 q 1149 650 1124 726 q 1174 467 1174 574 m 1086 467 q 1053 652 1086 577 q 950 771 1019 726 q 779 836 882 817 q 538 854 675 854 l 241 854 l 241 511 l 623 511 l 623 441 l 241 441 l 241 78 l 538 78 q 680 82 611 78 q 810 98 749 85 q 922 136 871 111 q 1009 205 972 161 q 1066 312 1046 248 q 1086 467 1086 376 z "},"Ñ":{"ha":1300,"x_min":157,"x_max":1143,"o":"m 1051 0 l 241 821 l 241 0 l 157 0 l 157 932 l 250 932 l 1060 109 l 1060 932 l 1143 932 l 1143 0 l 1051 0 m 889 1173 q 884 1130 889 1156 q 865 1080 879 1104 q 826 1040 850 1057 q 762 1023 801 1023 q 699 1036 730 1023 q 639 1064 668 1049 q 584 1093 610 1080 q 536 1105 558 1105 q 504 1095 516 1105 q 486 1071 492 1085 q 478 1044 480 1057 q 475 1023 476 1030 l 411 1023 q 416 1066 411 1040 q 436 1115 422 1091 q 475 1156 450 1139 q 541 1173 500 1173 q 596 1160 567 1173 q 655 1132 625 1147 q 712 1104 684 1117 q 764 1091 740 1091 q 797 1101 785 1091 q 814 1125 808 1112 q 823 1152 821 1139 q 825 1173 825 1166 l 889 1173 l 889 1173 z "},"Ò":{"ha":1367,"x_min":92,"x_max":1275,"o":"m 1275 465 q 1230 249 1275 340 q 1105 98 1184 157 q 918 10 1025 39 q 685 -18 810 -18 q 451 10 559 -18 q 262 98 342 39 q 137 249 182 157 q 92 465 92 340 q 113 617 92 549 q 172 739 134 685 q 263 832 210 793 q 384 898 317 871 q 526 936 450 924 q 685 949 602 949 q 918 920 810 949 q 1105 832 1025 892 q 1230 682 1184 773 q 1275 465 1275 591 m 1187 465 q 1155 640 1187 564 q 1060 768 1123 716 q 903 847 997 820 q 685 873 809 873 q 466 846 561 873 q 308 767 372 819 q 212 639 244 715 q 179 465 179 563 q 212 290 179 366 q 308 162 244 214 q 466 84 372 111 q 685 57 561 57 q 903 84 809 57 q 1060 162 997 111 q 1155 290 1123 214 q 1187 465 1187 366 m 479 1215 l 771 1071 l 743 1018 l 444 1144 l 479 1215 z "},"Ó":{"ha":1367,"x_min":92,"x_max":1275,"o":"m 1275 465 q 1230 249 1275 340 q 1105 98 1184 157 q 918 10 1025 39 q 685 -18 810 -18 q 451 10 559 -18 q 262 98 342 39 q 137 249 182 157 q 92 465 92 340 q 113 617 92 549 q 172 739 134 685 q 263 832 210 793 q 384 898 317 871 q 526 936 450 924 q 685 949 602 949 q 918 920 810 949 q 1105 832 1025 892 q 1230 682 1184 773 q 1275 465 1275 591 m 1187 465 q 1155 640 1187 564 q 1060 768 1123 716 q 903 847 997 820 q 685 873 809 873 q 466 846 561 873 q 308 767 372 819 q 212 639 244 715 q 179 465 179 563 q 212 290 179 366 q 308 162 244 214 q 466 84 372 111 q 685 57 561 57 q 903 84 809 57 q 1060 162 997 111 q 1155 290 1123 214 q 1187 465 1187 366 m 925 1144 l 627 1018 l 600 1071 l 890 1215 l 925 1144 z "},"Ô":{"ha":1367,"x_min":92,"x_max":1275,"o":"m 1275 465 q 1230 249 1275 340 q 1105 98 1184 157 q 918 10 1025 39 q 685 -18 810 -18 q 451 10 559 -18 q 262 98 342 39 q 137 249 182 157 q 92 465 92 340 q 113 617 92 549 q 172 739 134 685 q 263 832 210 793 q 384 898 317 871 q 526 936 450 924 q 685 949 602 949 q 918 920 810 949 q 1105 832 1025 892 q 1230 682 1184 773 q 1275 465 1275 591 m 1187 465 q 1155 640 1187 564 q 1060 768 1123 716 q 903 847 997 820 q 685 873 809 873 q 466 846 561 873 q 308 767 372 819 q 212 639 244 715 q 179 465 179 563 q 212 290 179 366 q 308 162 244 214 q 466 84 372 111 q 685 57 561 57 q 903 84 809 57 q 1060 162 997 111 q 1155 290 1123 214 q 1187 465 1187 366 m 921 1018 l 685 1126 l 449 1018 l 422 1066 l 685 1215 l 947 1066 l 921 1018 z "},"Õ":{"ha":1367,"x_min":92,"x_max":1275,"o":"m 1275 465 q 1230 249 1275 340 q 1105 98 1184 157 q 918 10 1025 39 q 685 -18 810 -18 q 451 10 559 -18 q 262 98 342 39 q 137 249 182 157 q 92 465 92 340 q 113 617 92 549 q 172 739 134 685 q 263 832 210 793 q 384 898 317 871 q 526 936 450 924 q 685 949 602 949 q 918 920 810 949 q 1105 832 1025 892 q 1230 682 1184 773 q 1275 465 1275 591 m 1187 465 q 1155 640 1187 564 q 1060 768 1123 716 q 903 847 997 820 q 685 873 809 873 q 466 846 561 873 q 308 767 372 819 q 212 639 244 715 q 179 465 179 563 q 212 290 179 366 q 308 162 244 214 q 466 84 372 111 q 685 57 561 57 q 903 84 809 57 q 1060 162 997 111 q 1155 290 1123 214 q 1187 465 1187 366 m 925 1173 q 920 1130 925 1156 q 901 1080 915 1104 q 862 1040 886 1057 q 798 1023 837 1023 q 735 1036 766 1023 q 675 1064 704 1049 q 620 1093 646 1080 q 572 1105 594 1105 q 540 1095 552 1105 q 522 1071 528 1085 q 514 1044 516 1057 q 511 1023 512 1030 l 447 1023 q 452 1066 447 1040 q 472 1115 458 1091 q 511 1156 486 1139 q 576 1173 536 1173 q 632 1160 603 1173 q 691 1132 661 1147 q 748 1104 720 1117 q 800 1091 776 1091 q 832 1101 821 1091 q 850 1125 844 1112 q 859 1152 857 1139 q 861 1173 861 1166 l 925 1173 l 925 1173 z "},"Ö":{"ha":1367,"x_min":92,"x_max":1275,"o":"m 1275 465 q 1230 249 1275 340 q 1105 98 1184 157 q 918 10 1025 39 q 685 -18 810 -18 q 451 10 559 -18 q 262 98 342 39 q 137 249 182 157 q 92 465 92 340 q 113 617 92 549 q 172 739 134 685 q 263 832 210 793 q 384 898 317 871 q 526 936 450 924 q 685 949 602 949 q 918 920 810 949 q 1105 832 1025 892 q 1230 682 1184 773 q 1275 465 1275 591 m 1187 465 q 1155 640 1187 564 q 1060 768 1123 716 q 903 847 997 820 q 685 873 809 873 q 466 846 561 873 q 308 767 372 819 q 212 639 244 715 q 179 465 179 563 q 212 290 179 366 q 308 162 244 214 q 466 84 372 111 q 685 57 561 57 q 903 84 809 57 q 1060 162 997 111 q 1155 290 1123 214 q 1187 465 1187 366 m 498 1031 l 498 1132 l 599 1132 l 599 1031 l 498 1031 m 771 1031 l 771 1132 l 871 1132 l 871 1031 l 771 1031 z "},"×":{"ha":882,"x_min":154,"x_max":726,"o":"m 492 465 l 726 231 l 675 178 l 440 412 l 207 180 l 155 232 l 389 465 l 154 700 l 205 751 l 440 517 l 673 750 l 725 697 l 492 465 z "},"Ø":{"ha":1367,"x_min":92,"x_max":1275,"o":"m 1275 465 q 1230 249 1275 340 q 1105 98 1184 157 q 918 10 1025 39 q 685 -18 810 -18 q 541 -8 609 -18 q 411 22 472 3 l 307 -123 l 220 -123 l 343 49 q 239 116 286 76 q 160 207 193 155 q 109 323 127 259 q 92 465 92 388 q 113 617 92 549 q 172 739 134 685 q 263 832 210 793 q 384 898 317 871 q 526 936 450 924 q 685 949 602 949 q 958 907 834 949 l 1064 1054 l 1150 1054 l 1025 880 q 1128 813 1082 852 q 1207 722 1175 774 q 1257 607 1240 671 q 1275 465 1275 543 m 913 844 q 685 873 817 873 q 466 846 561 873 q 308 767 372 819 q 212 639 244 715 q 179 465 179 563 q 232 249 179 337 q 389 113 284 161 l 464 216 l 913 844 m 457 86 q 685 57 553 57 q 903 84 809 57 q 1060 162 997 111 q 1155 290 1123 214 q 1187 465 1187 366 q 1136 681 1187 592 q 981 818 1084 769 l 905 714 l 457 86 z "},"Ù":{"ha":1238,"x_min":149,"x_max":1089,"o":"m 1089 293 q 1060 166 1089 223 q 971 67 1030 109 q 825 4 913 26 q 619 -18 736 -18 q 414 4 502 -18 q 267 67 326 26 q 178 166 208 109 q 149 293 149 223 l 149 932 l 233 932 l 233 286 q 258 198 233 239 q 332 125 283 156 q 452 75 380 94 q 619 57 524 57 q 785 75 713 57 q 906 125 857 94 q 980 198 955 156 q 1004 286 1004 239 l 1004 932 l 1089 932 l 1089 293 l 1089 293 m 414 1215 l 706 1071 l 678 1018 l 379 1144 l 414 1215 z "},"Ú":{"ha":1238,"x_min":149,"x_max":1089,"o":"m 1089 293 q 1060 166 1089 223 q 971 67 1030 109 q 825 4 913 26 q 619 -18 736 -18 q 414 4 502 -18 q 267 67 326 26 q 178 166 208 109 q 149 293 149 223 l 149 932 l 233 932 l 233 286 q 258 198 233 239 q 332 125 283 156 q 452 75 380 94 q 619 57 524 57 q 785 75 713 57 q 906 125 857 94 q 980 198 955 156 q 1004 286 1004 239 l 1004 932 l 1089 932 l 1089 293 l 1089 293 m 860 1144 l 562 1018 l 535 1071 l 825 1215 l 860 1144 z "},"Û":{"ha":1238,"x_min":149,"x_max":1089,"o":"m 1089 293 q 1060 166 1089 223 q 971 67 1030 109 q 825 4 913 26 q 619 -18 736 -18 q 414 4 502 -18 q 267 67 326 26 q 178 166 208 109 q 149 293 149 223 l 149 932 l 233 932 l 233 286 q 258 198 233 239 q 332 125 283 156 q 452 75 380 94 q 619 57 524 57 q 785 75 713 57 q 906 125 857 94 q 980 198 955 156 q 1004 286 1004 239 l 1004 932 l 1089 932 l 1089 293 l 1089 293 m 856 1018 l 620 1126 l 384 1018 l 357 1066 l 620 1215 l 882 1066 l 856 1018 z "},"Ü":{"ha":1238,"x_min":149,"x_max":1089,"o":"m 1089 293 q 1060 166 1089 223 q 971 67 1030 109 q 825 4 913 26 q 619 -18 736 -18 q 414 4 502 -18 q 267 67 326 26 q 178 166 208 109 q 149 293 149 223 l 149 932 l 233 932 l 233 286 q 258 198 233 239 q 332 125 283 156 q 452 75 380 94 q 619 57 524 57 q 785 75 713 57 q 906 125 857 94 q 980 198 955 156 q 1004 286 1004 239 l 1004 932 l 1089 932 l 1089 293 l 1089 293 m 433 1031 l 433 1132 l 534 1132 l 534 1031 l 433 1031 m 706 1031 l 706 1132 l 806 1132 l 806 1031 l 706 1031 z "},"Ý":{"ha":1060,"x_min":50,"x_max":1010,"o":"m 572 395 l 572 0 l 488 0 l 488 395 l 50 932 l 151 932 l 530 465 l 908 932 l 1010 932 l 572 395 m 771 1144 l 473 1018 l 446 1071 l 736 1215 l 771 1144 z "},"Þ":{"ha":1093,"x_min":157,"x_max":1010,"o":"m 1010 492 q 987 367 1010 420 q 916 276 964 313 q 790 222 867 240 q 604 204 713 204 l 241 204 l 241 0 l 157 0 l 157 932 l 241 932 l 241 778 l 604 778 q 790 760 713 778 q 916 706 867 742 q 987 617 964 671 q 1010 492 1010 563 m 922 492 q 898 598 922 557 q 826 661 874 639 q 707 691 779 684 q 539 699 635 699 l 241 699 l 241 283 l 539 283 q 620 283 576 283 q 705 287 663 283 q 787 302 747 291 q 856 336 826 313 q 904 397 886 359 q 922 492 922 435 z "},"ß":{"ha":1200,"x_min":129,"x_max":1117,"o":"m 346 127 q 405 107 369 119 q 484 85 440 96 q 579 67 528 75 q 682 60 629 60 q 813 71 751 60 q 924 107 876 83 q 1000 171 972 132 q 1028 264 1028 210 q 994 364 1028 321 q 902 435 960 407 q 768 476 844 463 q 607 490 691 490 l 433 490 l 433 562 l 607 562 q 670 564 634 562 q 744 570 706 565 q 819 585 782 575 q 884 613 855 595 q 931 656 913 630 q 949 718 949 682 q 925 783 949 753 q 857 837 902 814 q 747 873 812 859 q 599 886 682 886 q 454 874 515 886 q 350 841 393 861 q 280 794 307 821 q 239 741 254 768 q 219 688 224 714 q 214 643 214 663 l 214 0 l 129 0 l 129 637 q 155 756 129 698 q 237 859 181 814 q 379 932 292 904 q 586 960 465 960 q 773 944 690 960 q 915 897 857 928 q 1005 822 973 867 q 1036 721 1036 778 q 1018 644 1036 677 q 972 588 1000 611 q 912 550 944 564 q 851 529 880 535 q 958 496 909 519 q 1042 441 1007 474 q 1097 365 1078 408 q 1117 271 1117 321 q 1088 155 1117 208 q 1005 65 1059 102 q 875 7 951 28 q 703 -14 798 -14 q 574 -8 632 -14 q 470 5 515 -2 q 393 20 425 13 q 346 31 362 27 l 346 127 l 346 127 z "},"à":{"ha":1234,"x_min":85,"x_max":1084,"o":"m 1000 0 l 1000 103 q 889 54 951 77 q 759 16 827 32 q 617 -9 690 -1 q 475 -18 545 -18 q 312 -2 384 -18 q 189 46 239 14 q 112 126 139 79 q 85 237 85 174 q 116 348 85 300 q 206 431 148 395 q 347 491 264 467 q 531 533 429 516 q 751 562 633 551 q 1000 581 869 573 l 1000 652 q 984 728 1000 695 q 939 786 968 762 q 870 828 909 811 q 785 854 831 844 q 689 869 739 865 q 587 873 638 873 q 463 867 519 873 q 357 848 406 860 q 264 821 309 836 q 174 787 219 805 l 174 886 q 375 930 268 911 q 602 949 481 949 q 791 931 703 949 q 945 876 880 914 q 1047 778 1010 838 q 1084 632 1084 718 l 1084 0 l 1000 0 m 1000 505 q 622 471 779 493 q 365 416 465 448 q 219 340 265 383 q 172 241 172 296 q 195 162 172 197 q 260 104 218 127 q 364 69 303 81 q 501 57 425 57 q 594 62 546 57 q 689 76 642 67 q 783 98 736 85 q 869 125 829 111 q 944 157 910 140 q 1000 192 977 174 l 1000 505 m 406 1215 l 697 1071 l 669 1018 l 370 1144 l 406 1215 z "},"á":{"ha":1234,"x_min":85,"x_max":1084,"o":"m 1000 0 l 1000 103 q 889 54 951 77 q 759 16 827 32 q 617 -9 690 -1 q 475 -18 545 -18 q 312 -2 384 -18 q 189 46 239 14 q 112 126 139 79 q 85 237 85 174 q 116 348 85 300 q 206 431 148 395 q 347 491 264 467 q 531 533 429 516 q 751 562 633 551 q 1000 581 869 573 l 1000 652 q 984 728 1000 695 q 939 786 968 762 q 870 828 909 811 q 785 854 831 844 q 689 869 739 865 q 587 873 638 873 q 463 867 519 873 q 357 848 406 860 q 264 821 309 836 q 174 787 219 805 l 174 886 q 375 930 268 911 q 602 949 481 949 q 791 931 703 949 q 945 876 880 914 q 1047 778 1010 838 q 1084 632 1084 718 l 1084 0 l 1000 0 m 1000 505 q 622 471 779 493 q 365 416 465 448 q 219 340 265 383 q 172 241 172 296 q 195 162 172 197 q 260 104 218 127 q 364 69 303 81 q 501 57 425 57 q 594 62 546 57 q 689 76 642 67 q 783 98 736 85 q 869 125 829 111 q 944 157 910 140 q 1000 192 977 174 l 1000 505 m 851 1144 l 553 1018 l 526 1071 l 817 1215 l 851 1144 z "},"â":{"ha":1234,"x_min":85,"x_max":1084,"o":"m 1000 0 l 1000 103 q 889 54 951 77 q 759 16 827 32 q 617 -9 690 -1 q 475 -18 545 -18 q 312 -2 384 -18 q 189 46 239 14 q 112 126 139 79 q 85 237 85 174 q 116 348 85 300 q 206 431 148 395 q 347 491 264 467 q 531 533 429 516 q 751 562 633 551 q 1000 581 869 573 l 1000 652 q 984 728 1000 695 q 939 786 968 762 q 870 828 909 811 q 785 854 831 844 q 689 869 739 865 q 587 873 638 873 q 463 867 519 873 q 357 848 406 860 q 264 821 309 836 q 174 787 219 805 l 174 886 q 375 930 268 911 q 602 949 481 949 q 791 931 703 949 q 945 876 880 914 q 1047 778 1010 838 q 1084 632 1084 718 l 1084 0 l 1000 0 m 1000 505 q 622 471 779 493 q 365 416 465 448 q 219 340 265 383 q 172 241 172 296 q 195 162 172 197 q 260 104 218 127 q 364 69 303 81 q 501 57 425 57 q 594 62 546 57 q 689 76 642 67 q 783 98 736 85 q 869 125 829 111 q 944 157 910 140 q 1000 192 977 174 l 1000 505 m 847 1018 l 611 1126 l 375 1018 l 349 1066 l 611 1215 l 873 1066 l 847 1018 z "},"ã":{"ha":1234,"x_min":85,"x_max":1084,"o":"m 1000 0 l 1000 103 q 889 54 951 77 q 759 16 827 32 q 617 -9 690 -1 q 475 -18 545 -18 q 312 -2 384 -18 q 189 46 239 14 q 112 126 139 79 q 85 237 85 174 q 116 348 85 300 q 206 431 148 395 q 347 491 264 467 q 531 533 429 516 q 751 562 633 551 q 1000 581 869 573 l 1000 652 q 984 728 1000 695 q 939 786 968 762 q 870 828 909 811 q 785 854 831 844 q 689 869 739 865 q 587 873 638 873 q 463 867 519 873 q 357 848 406 860 q 264 821 309 836 q 174 787 219 805 l 174 886 q 375 930 268 911 q 602 949 481 949 q 791 931 703 949 q 945 876 880 914 q 1047 778 1010 838 q 1084 632 1084 718 l 1084 0 l 1000 0 m 1000 505 q 622 471 779 493 q 365 416 465 448 q 219 340 265 383 q 172 241 172 296 q 195 162 172 197 q 260 104 218 127 q 364 69 303 81 q 501 57 425 57 q 594 62 546 57 q 689 76 642 67 q 783 98 736 85 q 869 125 829 111 q 944 157 910 140 q 1000 192 977 174 l 1000 505 m 851 1173 q 846 1130 851 1156 q 827 1080 841 1104 q 788 1040 812 1057 q 724 1023 763 1023 q 661 1036 692 1023 q 601 1064 630 1049 q 546 1093 572 1080 q 498 1105 520 1105 q 466 1095 478 1105 q 448 1071 454 1085 q 440 1044 442 1057 q 437 1023 438 1030 l 373 1023 q 378 1066 373 1040 q 398 1115 384 1091 q 437 1156 412 1139 q 503 1173 463 1173 q 558 1160 529 1173 q 617 1132 587 1147 q 674 1104 646 1117 q 726 1091 702 1091 q 759 1101 747 1091 q 777 1125 770 1112 q 785 1152 783 1139 q 787 1173 787 1166 l 851 1173 l 851 1173 z "},"ä":{"ha":1234,"x_min":85,"x_max":1084,"o":"m 1000 0 l 1000 103 q 889 54 951 77 q 759 16 827 32 q 617 -9 690 -1 q 475 -18 545 -18 q 312 -2 384 -18 q 189 46 239 14 q 112 126 139 79 q 85 237 85 174 q 116 348 85 300 q 206 431 148 395 q 347 491 264 467 q 531 533 429 516 q 751 562 633 551 q 1000 581 869 573 l 1000 652 q 984 728 1000 695 q 939 786 968 762 q 870 828 909 811 q 785 854 831 844 q 689 869 739 865 q 587 873 638 873 q 463 867 519 873 q 357 848 406 860 q 264 821 309 836 q 174 787 219 805 l 174 886 q 375 930 268 911 q 602 949 481 949 q 791 931 703 949 q 945 876 880 914 q 1047 778 1010 838 q 1084 632 1084 718 l 1084 0 l 1000 0 m 1000 505 q 622 471 779 493 q 365 416 465 448 q 219 340 265 383 q 172 241 172 296 q 195 162 172 197 q 260 104 218 127 q 364 69 303 81 q 501 57 425 57 q 594 62 546 57 q 689 76 642 67 q 783 98 736 85 q 869 125 829 111 q 944 157 910 140 q 1000 192 977 174 l 1000 505 m 425 1031 l 425 1132 l 525 1132 l 525 1031 l 425 1031 m 697 1031 l 697 1132 l 797 1132 l 797 1031 l 697 1031 z "},"å":{"ha":1234,"x_min":85,"x_max":1084,"o":"m 1000 0 l 1000 103 q 889 54 951 77 q 759 16 827 32 q 617 -9 690 -1 q 475 -18 545 -18 q 312 -2 384 -18 q 189 46 239 14 q 112 126 139 79 q 85 237 85 174 q 116 348 85 300 q 206 431 148 395 q 347 491 264 467 q 531 533 429 516 q 751 562 633 551 q 1000 581 869 573 l 1000 652 q 984 728 1000 695 q 939 786 968 762 q 870 828 909 811 q 785 854 831 844 q 689 869 739 865 q 587 873 638 873 q 463 867 519 873 q 357 848 406 860 q 264 821 309 836 q 174 787 219 805 l 174 886 q 375 930 268 911 q 602 949 481 949 q 791 931 703 949 q 945 876 880 914 q 1047 778 1010 838 q 1084 632 1084 718 l 1084 0 l 1000 0 m 1000 505 q 622 471 779 493 q 365 416 465 448 q 219 340 265 383 q 172 241 172 296 q 195 162 172 197 q 260 104 218 127 q 364 69 303 81 q 501 57 425 57 q 594 62 546 57 q 689 76 642 67 q 783 98 736 85 q 869 125 829 111 q 944 157 910 140 q 1000 192 977 174 l 1000 505 m 433 1129 q 446 1182 433 1158 q 482 1222 458 1206 q 538 1248 505 1239 q 611 1257 571 1257 q 683 1248 650 1257 q 740 1222 716 1239 q 776 1182 763 1206 q 789 1129 789 1158 q 776 1076 789 1099 q 740 1035 763 1052 q 683 1010 716 1019 q 611 1001 650 1001 q 538 1010 571 1001 q 482 1035 505 1019 q 446 1076 458 1052 q 433 1129 433 1099 m 503 1129 q 528 1082 503 1101 q 611 1063 553 1063 q 693 1082 668 1063 q 718 1129 718 1101 q 693 1175 718 1156 q 611 1194 668 1194 q 528 1175 553 1194 q 503 1129 503 1156 z "},"æ":{"ha":2155,"x_min":85,"x_max":2078,"o":"m 2001 49 q 1895 19 1944 31 q 1800 -2 1847 6 q 1703 -13 1752 -9 q 1594 -17 1653 -17 q 1310 28 1433 -17 q 1109 157 1187 73 q 946 75 1023 109 q 792 21 868 41 q 638 -9 716 0 q 475 -18 561 -18 q 312 -2 384 -18 q 189 46 239 14 q 112 126 139 79 q 85 237 85 174 q 116 348 85 300 q 206 431 148 395 q 347 491 264 467 q 531 533 429 516 q 751 562 633 551 q 1000 581 869 573 l 1000 652 q 984 728 1000 695 q 939 786 968 762 q 870 828 909 811 q 785 854 831 844 q 689 869 739 865 q 587 873 638 873 q 463 867 519 873 q 357 848 406 860 q 264 821 309 836 q 174 787 219 805 l 174 886 q 375 930 268 911 q 602 949 481 949 q 767 936 689 949 q 906 896 844 923 q 1011 824 968 868 q 1072 718 1055 780 q 1156 812 1107 770 q 1265 882 1204 853 q 1396 927 1325 911 q 1547 942 1468 942 q 1773 908 1674 942 q 1940 811 1872 874 q 2043 658 2007 748 q 2078 456 2078 568 l 2078 435 l 1084 435 q 1128 278 1092 348 q 1230 159 1164 208 q 1393 84 1296 111 q 1618 58 1489 58 q 1730 66 1673 58 q 1837 86 1786 73 q 1931 114 1889 98 q 2001 147 1974 130 l 2001 49 m 501 57 q 685 73 599 57 q 841 114 770 90 q 967 168 912 139 q 1059 224 1022 197 q 997 460 997 325 q 997 483 997 471 q 999 504 998 494 q 623 469 779 492 q 366 414 466 447 q 219 339 266 382 q 172 241 172 296 q 195 162 172 197 q 260 104 218 127 q 364 69 303 81 q 501 57 425 57 m 1994 509 q 1963 645 1990 580 q 1882 759 1935 709 q 1745 838 1828 808 q 1546 867 1662 867 q 1354 838 1436 867 q 1215 759 1272 808 q 1126 645 1158 710 q 1084 509 1093 581 l 1994 509 z "},"ç":{"ha":1207,"x_min":92,"x_max":1112,"o":"m 657 -66 q 713 -71 687 -66 q 759 -87 739 -76 q 789 -117 778 -98 q 800 -164 800 -136 q 788 -215 800 -195 q 753 -249 775 -236 q 699 -267 730 -261 q 631 -272 668 -272 q 555 -266 592 -272 q 489 -254 519 -260 l 489 -186 q 555 -204 519 -197 q 625 -211 591 -211 q 673 -208 654 -211 q 705 -198 693 -204 q 722 -183 717 -192 q 727 -164 727 -174 q 720 -142 727 -151 q 702 -129 713 -134 q 676 -121 690 -123 q 645 -119 661 -119 q 609 -120 627 -119 q 575 -123 591 -121 l 615 -16 q 524 -5 569 -12 q 382 36 448 9 q 263 103 317 63 q 171 197 210 144 q 112 318 133 251 q 92 465 92 385 q 112 612 92 545 q 171 733 133 680 q 263 827 210 787 q 382 895 317 867 q 524 935 448 922 q 684 949 600 949 q 808 942 751 949 q 916 923 865 935 q 1016 894 968 911 q 1112 857 1063 878 l 1112 755 q 1029 802 1074 780 q 934 840 985 823 q 825 865 883 856 q 700 875 766 875 q 467 846 566 875 q 305 763 369 817 q 210 634 241 710 q 179 465 179 559 q 210 296 179 372 q 305 168 241 221 q 467 86 369 115 q 700 57 566 57 q 826 66 766 57 q 937 92 885 76 q 1033 130 989 109 q 1112 175 1076 151 l 1112 74 q 1016 37 1063 54 q 916 7 968 20 q 808 -12 865 -5 q 684 -18 751 -18 l 675 -18 l 657 -66 z "},"è":{"ha":1264,"x_min":92,"x_max":1173,"o":"m 1096 49 q 990 19 1039 31 q 894 -2 941 6 q 797 -13 846 -9 q 689 -17 748 -17 q 441 16 552 -17 q 253 112 331 50 q 134 262 176 174 q 92 460 92 350 q 132 655 92 566 q 245 808 172 744 q 418 907 317 871 q 642 942 519 942 q 867 908 768 942 q 1034 811 966 874 q 1137 658 1102 748 q 1173 456 1173 568 l 1173 435 l 179 435 q 222 278 186 348 q 325 159 258 208 q 487 84 391 111 q 713 58 584 58 q 824 66 768 58 q 932 86 880 73 q 1026 114 983 98 q 1096 147 1069 130 l 1096 49 m 1089 509 q 1057 645 1084 580 q 976 759 1030 709 q 839 838 922 808 q 640 867 756 867 q 449 838 531 867 q 310 759 367 808 q 220 645 253 710 q 179 509 188 581 l 1089 509 m 429 1215 l 721 1071 l 693 1018 l 394 1144 l 429 1215 z "},"é":{"ha":1264,"x_min":92,"x_max":1173,"o":"m 1096 49 q 990 19 1039 31 q 894 -2 941 6 q 797 -13 846 -9 q 689 -17 748 -17 q 441 16 552 -17 q 253 112 331 50 q 134 262 176 174 q 92 460 92 350 q 132 655 92 566 q 245 808 172 744 q 418 907 317 871 q 642 942 519 942 q 867 908 768 942 q 1034 811 966 874 q 1137 658 1102 748 q 1173 456 1173 568 l 1173 435 l 179 435 q 222 278 186 348 q 325 159 258 208 q 487 84 391 111 q 713 58 584 58 q 824 66 768 58 q 932 86 880 73 q 1026 114 983 98 q 1096 147 1069 130 l 1096 49 m 1089 509 q 1057 645 1084 580 q 976 759 1030 709 q 839 838 922 808 q 640 867 756 867 q 449 838 531 867 q 310 759 367 808 q 220 645 253 710 q 179 509 188 581 l 1089 509 m 875 1144 l 576 1018 l 550 1071 l 840 1215 l 875 1144 z "},"ê":{"ha":1264,"x_min":92,"x_max":1173,"o":"m 1096 49 q 990 19 1039 31 q 894 -2 941 6 q 797 -13 846 -9 q 689 -17 748 -17 q 441 16 552 -17 q 253 112 331 50 q 134 262 176 174 q 92 460 92 350 q 132 655 92 566 q 245 808 172 744 q 418 907 317 871 q 642 942 519 942 q 867 908 768 942 q 1034 811 966 874 q 1137 658 1102 748 q 1173 456 1173 568 l 1173 435 l 179 435 q 222 278 186 348 q 325 159 258 208 q 487 84 391 111 q 713 58 584 58 q 824 66 768 58 q 932 86 880 73 q 1026 114 983 98 q 1096 147 1069 130 l 1096 49 m 1089 509 q 1057 645 1084 580 q 976 759 1030 709 q 839 838 922 808 q 640 867 756 867 q 449 838 531 867 q 310 759 367 808 q 220 645 253 710 q 179 509 188 581 l 1089 509 m 871 1018 l 635 1126 l 399 1018 l 372 1066 l 635 1215 l 897 1066 l 871 1018 z "},"ë":{"ha":1264,"x_min":92,"x_max":1173,"o":"m 1096 49 q 990 19 1039 31 q 894 -2 941 6 q 797 -13 846 -9 q 689 -17 748 -17 q 441 16 552 -17 q 253 112 331 50 q 134 262 176 174 q 92 460 92 350 q 132 655 92 566 q 245 808 172 744 q 418 907 317 871 q 642 942 519 942 q 867 908 768 942 q 1034 811 966 874 q 1137 658 1102 748 q 1173 456 1173 568 l 1173 435 l 179 435 q 222 278 186 348 q 325 159 258 208 q 487 84 391 111 q 713 58 584 58 q 824 66 768 58 q 932 86 880 73 q 1026 114 983 98 q 1096 147 1069 130 l 1096 49 m 1089 509 q 1057 645 1084 580 q 976 759 1030 709 q 839 838 922 808 q 640 867 756 867 q 449 838 531 867 q 310 759 367 808 q 220 645 253 710 q 179 509 188 581 l 1089 509 m 448 1031 l 448 1132 l 549 1132 l 549 1031 l 448 1031 m 721 1031 l 721 1132 l 821 1132 l 821 1031 l 721 1031 z "},"ì":{"ha":399,"x_min":-40,"x_max":287,"o":"m 157 0 l 157 932 l 241 932 l 241 0 l 157 0 m -5 1215 l 287 1071 l 259 1018 l -40 1144 l -5 1215 z "},"í":{"ha":399,"x_min":116,"x_max":441,"o":"m 157 0 l 157 932 l 241 932 l 241 0 l 157 0 m 441 1144 l 142 1018 l 116 1071 l 406 1215 l 441 1144 z "},"î":{"ha":399,"x_min":-62,"x_max":463,"o":"m 157 0 l 157 932 l 241 932 l 241 0 l 157 0 m 437 1018 l 201 1126 l -35 1018 l -62 1066 l 201 1215 l 463 1066 l 437 1018 z "},"ï":{"ha":399,"x_min":14,"x_max":387,"o":"m 157 0 l 157 932 l 241 932 l 241 0 l 157 0 m 14 1031 l 14 1132 l 115 1132 l 115 1031 l 14 1031 m 287 1031 l 287 1132 l 387 1132 l 387 1031 l 287 1031 z "},"ð":{"ha":1264,"x_min":21,"x_max":1174,"o":"m 1174 467 q 1149 283 1174 359 q 1079 155 1124 207 q 974 72 1035 103 q 839 25 912 41 q 685 5 766 9 q 518 0 603 0 l 157 0 l 157 441 l 21 441 l 21 511 l 157 511 l 157 932 l 517 932 q 684 927 602 932 q 839 906 766 922 q 973 860 911 890 q 1079 778 1034 829 q 1149 650 1124 726 q 1174 467 1174 574 m 1086 467 q 1053 652 1086 577 q 950 771 1019 726 q 779 836 882 817 q 538 854 675 854 l 241 854 l 241 511 l 623 511 l 623 441 l 241 441 l 241 78 l 538 78 q 680 82 611 78 q 810 98 749 85 q 922 136 871 111 q 1009 205 972 161 q 1066 312 1046 248 q 1086 467 1086 376 z "},"ñ":{"ha":1296,"x_min":157,"x_max":1143,"o":"m 1059 0 l 1059 615 q 1038 742 1059 692 q 979 821 1017 792 q 886 862 941 850 q 762 873 831 873 q 607 854 683 873 q 463 805 530 835 q 338 740 395 776 q 241 671 281 704 l 241 0 l 157 0 l 157 932 l 241 932 l 241 768 q 346 831 289 798 q 470 891 404 864 q 611 937 536 919 q 770 954 686 954 q 934 931 864 954 q 1051 867 1004 909 q 1120 766 1097 825 q 1143 633 1143 707 l 1143 0 l 1059 0 m 875 1173 q 870 1130 875 1156 q 850 1080 865 1104 q 811 1040 836 1057 q 747 1023 787 1023 q 685 1036 715 1023 q 625 1064 654 1049 q 570 1093 596 1080 q 522 1105 544 1105 q 490 1095 502 1105 q 472 1071 478 1085 q 464 1044 466 1057 q 461 1023 462 1030 l 397 1023 q 402 1066 397 1040 q 422 1115 408 1091 q 461 1156 436 1139 q 526 1173 486 1173 q 582 1160 553 1173 q 641 1132 611 1147 q 698 1104 670 1117 q 750 1091 726 1091 q 782 1101 770 1091 q 800 1125 794 1112 q 808 1152 806 1139 q 811 1173 810 1166 l 875 1173 l 875 1173 z "},"ò":{"ha":1367,"x_min":92,"x_max":1275,"o":"m 1275 465 q 1230 249 1275 340 q 1105 98 1184 157 q 918 10 1025 39 q 685 -18 810 -18 q 451 10 559 -18 q 262 98 342 39 q 137 249 182 157 q 92 465 92 340 q 113 617 92 549 q 172 739 134 685 q 263 832 210 793 q 384 898 317 871 q 526 936 450 924 q 685 949 602 949 q 918 920 810 949 q 1105 832 1025 892 q 1230 682 1184 773 q 1275 465 1275 591 m 1187 465 q 1155 640 1187 564 q 1060 768 1123 716 q 903 847 997 820 q 685 873 809 873 q 466 846 561 873 q 308 767 372 819 q 212 639 244 715 q 179 465 179 563 q 212 290 179 366 q 308 162 244 214 q 466 84 372 111 q 685 57 561 57 q 903 84 809 57 q 1060 162 997 111 q 1155 290 1123 214 q 1187 465 1187 366 m 479 1215 l 771 1071 l 743 1018 l 444 1144 l 479 1215 z "},"ó":{"ha":1367,"x_min":92,"x_max":1275,"o":"m 1275 465 q 1230 249 1275 340 q 1105 98 1184 157 q 918 10 1025 39 q 685 -18 810 -18 q 451 10 559 -18 q 262 98 342 39 q 137 249 182 157 q 92 465 92 340 q 113 617 92 549 q 172 739 134 685 q 263 832 210 793 q 384 898 317 871 q 526 936 450 924 q 685 949 602 949 q 918 920 810 949 q 1105 832 1025 892 q 1230 682 1184 773 q 1275 465 1275 591 m 1187 465 q 1155 640 1187 564 q 1060 768 1123 716 q 903 847 997 820 q 685 873 809 873 q 466 846 561 873 q 308 767 372 819 q 212 639 244 715 q 179 465 179 563 q 212 290 179 366 q 308 162 244 214 q 466 84 372 111 q 685 57 561 57 q 903 84 809 57 q 1060 162 997 111 q 1155 290 1123 214 q 1187 465 1187 366 m 925 1144 l 627 1018 l 600 1071 l 890 1215 l 925 1144 z "},"ô":{"ha":1367,"x_min":92,"x_max":1275,"o":"m 1275 465 q 1230 249 1275 340 q 1105 98 1184 157 q 918 10 1025 39 q 685 -18 810 -18 q 451 10 559 -18 q 262 98 342 39 q 137 249 182 157 q 92 465 92 340 q 113 617 92 549 q 172 739 134 685 q 263 832 210 793 q 384 898 317 871 q 526 936 450 924 q 685 949 602 949 q 918 920 810 949 q 1105 832 1025 892 q 1230 682 1184 773 q 1275 465 1275 591 m 1187 465 q 1155 640 1187 564 q 1060 768 1123 716 q 903 847 997 820 q 685 873 809 873 q 466 846 561 873 q 308 767 372 819 q 212 639 244 715 q 179 465 179 563 q 212 290 179 366 q 308 162 244 214 q 466 84 372 111 q 685 57 561 57 q 903 84 809 57 q 1060 162 997 111 q 1155 290 1123 214 q 1187 465 1187 366 m 921 1018 l 685 1126 l 449 1018 l 422 1066 l 685 1215 l 947 1066 l 921 1018 z "},"õ":{"ha":1367,"x_min":92,"x_max":1275,"o":"m 1275 465 q 1230 249 1275 340 q 1105 98 1184 157 q 918 10 1025 39 q 685 -18 810 -18 q 451 10 559 -18 q 262 98 342 39 q 137 249 182 157 q 92 465 92 340 q 113 617 92 549 q 172 739 134 685 q 263 832 210 793 q 384 898 317 871 q 526 936 450 924 q 685 949 602 949 q 918 920 810 949 q 1105 832 1025 892 q 1230 682 1184 773 q 1275 465 1275 591 m 1187 465 q 1155 640 1187 564 q 1060 768 1123 716 q 903 847 997 820 q 685 873 809 873 q 466 846 561 873 q 308 767 372 819 q 212 639 244 715 q 179 465 179 563 q 212 290 179 366 q 308 162 244 214 q 466 84 372 111 q 685 57 561 57 q 903 84 809 57 q 1060 162 997 111 q 1155 290 1123 214 q 1187 465 1187 366 m 925 1173 q 920 1130 925 1156 q 901 1080 915 1104 q 862 1040 886 1057 q 798 1023 837 1023 q 735 1036 766 1023 q 675 1064 704 1049 q 620 1093 646 1080 q 572 1105 594 1105 q 540 1095 552 1105 q 522 1071 528 1085 q 514 1044 516 1057 q 511 1023 512 1030 l 447 1023 q 452 1066 447 1040 q 472 1115 458 1091 q 511 1156 486 1139 q 576 1173 536 1173 q 632 1160 603 1173 q 691 1132 661 1147 q 748 1104 720 1117 q 800 1091 776 1091 q 832 1101 821 1091 q 850 1125 844 1112 q 859 1152 857 1139 q 861 1173 861 1166 l 925 1173 l 925 1173 z "},"ö":{"ha":1367,"x_min":92,"x_max":1275,"o":"m 1275 465 q 1230 249 1275 340 q 1105 98 1184 157 q 918 10 1025 39 q 685 -18 810 -18 q 451 10 559 -18 q 262 98 342 39 q 137 249 182 157 q 92 465 92 340 q 113 617 92 549 q 172 739 134 685 q 263 832 210 793 q 384 898 317 871 q 526 936 450 924 q 685 949 602 949 q 918 920 810 949 q 1105 832 1025 892 q 1230 682 1184 773 q 1275 465 1275 591 m 1187 465 q 1155 640 1187 564 q 1060 768 1123 716 q 903 847 997 820 q 685 873 809 873 q 466 846 561 873 q 308 767 372 819 q 212 639 244 715 q 179 465 179 563 q 212 290 179 366 q 308 162 244 214 q 466 84 372 111 q 685 57 561 57 q 903 84 809 57 q 1060 162 997 111 q 1155 290 1123 214 q 1187 465 1187 366 m 498 1031 l 498 1132 l 599 1132 l 599 1031 l 498 1031 m 771 1031 l 771 1132 l 871 1132 l 871 1031 l 771 1031 z "},"÷":{"ha":882,"x_min":117,"x_max":765,"o":"m 396 189 l 396 298 l 485 298 l 485 189 l 396 189 m 117 428 l 117 501 l 765 501 l 765 428 l 117 428 m 396 631 l 396 741 l 485 741 l 485 631 l 396 631 z "},"ø":{"ha":1367,"x_min":92,"x_max":1275,"o":"m 1275 465 q 1230 249 1275 340 q 1105 98 1184 157 q 918 10 1025 39 q 685 -18 810 -18 q 541 -8 609 -18 q 411 22 472 3 l 307 -123 l 220 -123 l 343 49 q 239 116 286 76 q 160 207 193 155 q 109 323 127 259 q 92 465 92 388 q 113 617 92 549 q 172 739 134 685 q 263 832 210 793 q 384 898 317 871 q 526 936 450 924 q 685 949 602 949 q 958 907 834 949 l 1064 1054 l 1150 1054 l 1025 880 q 1128 813 1082 852 q 1207 722 1175 774 q 1257 607 1240 671 q 1275 465 1275 543 m 913 844 q 685 873 817 873 q 466 846 561 873 q 308 767 372 819 q 212 639 244 715 q 179 465 179 563 q 232 249 179 337 q 389 113 284 161 l 464 216 l 913 844 m 457 86 q 685 57 553 57 q 903 84 809 57 q 1060 162 997 111 q 1155 290 1123 214 q 1187 465 1187 366 q 1136 681 1187 592 q 981 818 1084 769 l 905 714 l 457 86 z "},"ù":{"ha":1293,"x_min":153,"x_max":1136,"o":"m 239 932 l 239 317 q 258 189 238 239 q 317 110 279 138 q 410 70 355 81 q 533 58 465 58 q 688 78 612 58 q 831 126 764 97 q 955 192 899 156 q 1050 261 1010 228 l 1050 932 l 1136 932 l 1136 0 l 1050 0 l 1050 164 q 946 101 1002 134 q 824 40 890 68 q 684 -5 759 13 q 526 -22 610 -22 q 362 1 432 -22 q 245 68 292 25 q 176 169 199 111 q 153 298 153 228 l 153 932 l 239 932 m 439 1215 l 731 1071 l 703 1018 l 404 1144 l 439 1215 z "},"ú":{"ha":1293,"x_min":153,"x_max":1136,"o":"m 239 932 l 239 317 q 258 189 238 239 q 317 110 279 138 q 410 70 355 81 q 533 58 465 58 q 688 78 612 58 q 831 126 764 97 q 955 192 899 156 q 1050 261 1010 228 l 1050 932 l 1136 932 l 1136 0 l 1050 0 l 1050 164 q 946 101 1002 134 q 824 40 890 68 q 684 -5 759 13 q 526 -22 610 -22 q 362 1 432 -22 q 245 68 292 25 q 176 169 199 111 q 153 298 153 228 l 153 932 l 239 932 m 885 1144 l 587 1018 l 560 1071 l 850 1215 l 885 1144 z "},"û":{"ha":1293,"x_min":153,"x_max":1136,"o":"m 239 932 l 239 317 q 258 189 238 239 q 317 110 279 138 q 410 70 355 81 q 533 58 465 58 q 688 78 612 58 q 831 126 764 97 q 955 192 899 156 q 1050 261 1010 228 l 1050 932 l 1136 932 l 1136 0 l 1050 0 l 1050 164 q 946 101 1002 134 q 824 40 890 68 q 684 -5 759 13 q 526 -22 610 -22 q 362 1 432 -22 q 245 68 292 25 q 176 169 199 111 q 153 298 153 228 l 153 932 l 239 932 m 881 1018 l 645 1126 l 409 1018 l 382 1066 l 645 1215 l 907 1066 l 881 1018 z "},"ü":{"ha":1293,"x_min":153,"x_max":1136,"o":"m 239 932 l 239 317 q 258 189 238 239 q 317 110 279 138 q 410 70 355 81 q 533 58 465 58 q 688 78 612 58 q 831 126 764 97 q 955 192 899 156 q 1050 261 1010 228 l 1050 932 l 1136 932 l 1136 0 l 1050 0 l 1050 164 q 946 101 1002 134 q 824 40 890 68 q 684 -5 759 13 q 526 -22 610 -22 q 362 1 432 -22 q 245 68 292 25 q 176 169 199 111 q 153 298 153 228 l 153 932 l 239 932 m 458 1031 l 458 1132 l 559 1132 l 559 1031 l 458 1031 m 731 1031 l 731 1132 l 831 1132 l 831 1031 l 731 1031 z "},"ý":{"ha":1265,"x_min":125,"x_max":1108,"o":"m 1108 340 q 1065 182 1108 249 q 948 71 1023 115 q 771 6 873 27 q 550 -16 669 -16 q 313 1 421 -16 q 125 47 205 18 l 125 146 q 214 112 168 127 q 313 84 260 96 q 424 66 365 73 q 553 60 484 60 q 736 78 650 60 q 885 133 821 97 q 985 220 948 168 q 1022 340 1022 273 l 1022 517 q 942 432 989 473 q 837 361 895 392 q 711 312 779 330 q 568 293 644 293 q 417 309 483 293 q 301 353 351 325 q 218 419 252 380 q 164 502 184 457 q 134 597 143 547 q 125 697 125 646 l 125 932 l 211 932 l 211 715 q 230 574 211 637 q 291 465 248 510 q 403 394 334 419 q 575 370 473 370 q 721 391 654 370 q 842 449 787 412 q 942 532 897 485 q 1022 632 987 580 l 1022 932 l 1108 932 l 1108 340 m 856 1144 l 557 1018 l 531 1071 l 821 1215 l 856 1144 z "},"þ":{"ha":1093,"x_min":157,"x_max":1010,"o":"m 1010 492 q 987 367 1010 420 q 916 276 964 313 q 790 222 867 240 q 604 204 713 204 l 241 204 l 241 0 l 157 0 l 157 932 l 241 932 l 241 778 l 604 778 q 790 760 713 778 q 916 706 867 742 q 987 617 964 671 q 1010 492 1010 563 m 922 492 q 898 598 922 557 q 826 661 874 639 q 707 691 779 684 q 539 699 635 699 l 241 699 l 241 283 l 539 283 q 620 283 576 283 q 705 287 663 283 q 787 302 747 291 q 856 336 826 313 q 904 397 886 359 q 922 492 922 435 z "},"ÿ":{"ha":1265,"x_min":125,"x_max":1108,"o":"m 1108 340 q 1065 182 1108 249 q 948 71 1023 115 q 771 6 873 27 q 550 -16 669 -16 q 313 1 421 -16 q 125 47 205 18 l 125 146 q 214 112 168 127 q 313 84 260 96 q 424 66 365 73 q 553 60 484 60 q 736 78 650 60 q 885 133 821 97 q 985 220 948 168 q 1022 340 1022 273 l 1022 517 q 942 432 989 473 q 837 361 895 392 q 711 312 779 330 q 568 293 644 293 q 417 309 483 293 q 301 353 351 325 q 218 419 252 380 q 164 502 184 457 q 134 597 143 547 q 125 697 125 646 l 125 932 l 211 932 l 211 715 q 230 574 211 637 q 291 465 248 510 q 403 394 334 419 q 575 370 473 370 q 721 391 654 370 q 842 449 787 412 q 942 532 897 485 q 1022 632 987 580 l 1022 932 l 1108 932 l 1108 340 m 429 1031 l 429 1132 l 530 1132 l 530 1031 l 429 1031 m 702 1031 l 702 1132 l 802 1132 l 802 1031 l 702 1031 z "},"Ā":{"ha":1129,"x_min":28,"x_max":1103,"o":"m 1010 0 l 882 245 l 249 245 l 121 0 l 28 0 l 515 932 l 615 932 l 1103 0 l 1010 0 m 566 850 l 290 323 l 840 323 l 566 850 m 379 1038 l 379 1115 l 751 1115 l 751 1038 l 379 1038 z "},"ā":{"ha":1234,"x_min":85,"x_max":1084,"o":"m 1000 0 l 1000 103 q 889 54 951 77 q 759 16 827 32 q 617 -9 690 -1 q 475 -18 545 -18 q 312 -2 384 -18 q 189 46 239 14 q 112 126 139 79 q 85 237 85 174 q 116 348 85 300 q 206 431 148 395 q 347 491 264 467 q 531 533 429 516 q 751 562 633 551 q 1000 581 869 573 l 1000 652 q 984 728 1000 695 q 939 786 968 762 q 870 828 909 811 q 785 854 831 844 q 689 869 739 865 q 587 873 638 873 q 463 867 519 873 q 357 848 406 860 q 264 821 309 836 q 174 787 219 805 l 174 886 q 375 930 268 911 q 602 949 481 949 q 791 931 703 949 q 945 876 880 914 q 1047 778 1010 838 q 1084 632 1084 718 l 1084 0 l 1000 0 m 1000 505 q 622 471 779 493 q 365 416 465 448 q 219 340 265 383 q 172 241 172 296 q 195 162 172 197 q 260 104 218 127 q 364 69 303 81 q 501 57 425 57 q 594 62 546 57 q 689 76 642 67 q 783 98 736 85 q 869 125 829 111 q 944 157 910 140 q 1000 192 977 174 l 1000 505 m 425 1038 l 425 1115 l 797 1115 l 797 1038 l 425 1038 z "},"Ă":{"ha":1129,"x_min":28,"x_max":1103,"o":"m 1010 0 l 882 245 l 249 245 l 121 0 l 28 0 l 515 932 l 615 932 l 1103 0 l 1010 0 m 566 850 l 290 323 l 840 323 l 566 850 m 800 1187 q 779 1134 794 1162 q 737 1082 764 1105 q 668 1042 710 1058 q 566 1026 627 1026 q 463 1042 505 1026 q 393 1082 420 1058 q 352 1134 366 1105 q 331 1187 337 1162 l 410 1187 q 424 1159 414 1175 q 451 1129 433 1143 q 497 1105 469 1115 q 566 1095 525 1095 q 633 1105 606 1095 q 680 1129 661 1115 q 708 1159 698 1143 q 722 1187 718 1175 l 800 1187 l 800 1187 z "},"ă":{"ha":1234,"x_min":85,"x_max":1084,"o":"m 1000 0 l 1000 103 q 889 54 951 77 q 759 16 827 32 q 617 -9 690 -1 q 475 -18 545 -18 q 312 -2 384 -18 q 189 46 239 14 q 112 126 139 79 q 85 237 85 174 q 116 348 85 300 q 206 431 148 395 q 347 491 264 467 q 531 533 429 516 q 751 562 633 551 q 1000 581 869 573 l 1000 652 q 984 728 1000 695 q 939 786 968 762 q 870 828 909 811 q 785 854 831 844 q 689 869 739 865 q 587 873 638 873 q 463 867 519 873 q 357 848 406 860 q 264 821 309 836 q 174 787 219 805 l 174 886 q 375 930 268 911 q 602 949 481 949 q 791 931 703 949 q 945 876 880 914 q 1047 778 1010 838 q 1084 632 1084 718 l 1084 0 l 1000 0 m 1000 505 q 622 471 779 493 q 365 416 465 448 q 219 340 265 383 q 172 241 172 296 q 195 162 172 197 q 260 104 218 127 q 364 69 303 81 q 501 57 425 57 q 594 62 546 57 q 689 76 642 67 q 783 98 736 85 q 869 125 829 111 q 944 157 910 140 q 1000 192 977 174 l 1000 505 m 846 1187 q 825 1134 840 1162 q 783 1082 810 1105 q 714 1042 755 1058 q 611 1026 672 1026 q 508 1042 550 1026 q 439 1082 466 1058 q 397 1134 412 1105 q 376 1187 382 1162 l 455 1187 q 469 1159 459 1175 q 497 1129 479 1143 q 543 1105 515 1115 q 611 1095 570 1095 q 679 1105 651 1095 q 725 1129 707 1115 q 753 1159 743 1143 q 768 1187 764 1175 l 846 1187 l 846 1187 z "},"Ą":{"ha":1129,"x_min":28,"x_max":1193,"o":"m 1103 0 q 1050 -24 1074 -10 q 1009 -55 1026 -39 q 983 -89 992 -71 q 974 -123 974 -106 q 999 -165 974 -152 q 1071 -178 1024 -178 q 1135 -173 1105 -178 q 1193 -160 1164 -168 l 1193 -229 q 1135 -237 1165 -233 q 1060 -241 1105 -241 q 992 -236 1022 -241 q 940 -217 962 -230 q 907 -185 919 -205 q 896 -139 896 -166 q 923 -63 896 -98 q 1008 3 951 -28 l 882 245 l 249 245 l 121 0 l 28 0 l 515 932 l 615 932 l 1103 0 m 566 850 l 290 323 l 840 323 l 566 850 z "},"ą":{"ha":1234,"x_min":85,"x_max":1183,"o":"m 1084 0 q 997 -56 1029 -23 q 964 -123 964 -89 q 989 -165 964 -152 q 1061 -178 1015 -178 q 1125 -173 1095 -178 q 1183 -160 1155 -168 l 1183 -229 q 1125 -237 1156 -233 q 1050 -241 1095 -241 q 982 -236 1013 -241 q 931 -217 952 -230 q 898 -185 909 -205 q 886 -139 886 -166 q 914 -63 886 -98 q 1000 4 941 -28 l 1000 103 q 889 54 951 77 q 759 16 827 32 q 617 -9 690 -1 q 475 -18 545 -18 q 312 -2 384 -18 q 189 46 239 14 q 112 126 139 79 q 85 237 85 174 q 116 348 85 300 q 206 431 148 395 q 347 491 264 467 q 531 533 429 516 q 751 562 633 551 q 1000 581 869 573 l 1000 652 q 984 728 1000 695 q 939 786 968 762 q 870 828 909 811 q 785 854 831 844 q 689 869 739 865 q 587 873 638 873 q 463 867 519 873 q 357 848 406 860 q 264 821 309 836 q 174 787 219 805 l 174 886 q 375 930 268 911 q 602 949 481 949 q 791 931 703 949 q 945 876 880 914 q 1047 778 1010 838 q 1084 632 1084 718 l 1084 0 m 1000 505 q 622 471 779 493 q 365 416 465 448 q 219 340 265 383 q 172 241 172 296 q 195 162 172 197 q 260 104 218 127 q 364 69 303 81 q 501 57 425 57 q 594 62 546 57 q 689 76 642 67 q 783 98 736 85 q 869 125 829 111 q 944 157 910 140 q 1000 192 977 174 l 1000 505 z "},"Ć":{"ha":1207,"x_min":92,"x_max":1112,"o":"m 1112 74 q 1016 37 1063 54 q 916 7 968 20 q 808 -12 865 -5 q 684 -18 751 -18 q 525 -5 601 -18 q 382 36 448 9 q 263 103 317 63 q 171 197 210 144 q 112 318 133 251 q 92 465 92 385 q 112 612 92 545 q 171 733 133 680 q 263 827 210 787 q 382 895 317 867 q 524 935 448 922 q 684 949 600 949 q 808 942 751 949 q 916 923 865 935 q 1016 894 968 911 q 1112 857 1063 878 l 1112 755 q 1029 802 1074 780 q 934 840 985 823 q 825 865 883 856 q 700 875 766 875 q 467 846 566 875 q 305 763 369 817 q 210 634 241 710 q 179 465 179 559 q 210 296 179 372 q 305 168 241 221 q 467 86 369 115 q 700 57 566 57 q 826 66 766 57 q 937 92 885 76 q 1033 130 989 109 q 1112 175 1076 151 l 1112 74 l 1112 74 m 917 1144 l 618 1018 l 592 1071 l 882 1215 l 917 1144 z "},"ć":{"ha":1207,"x_min":92,"x_max":1112,"o":"m 1112 74 q 1016 37 1063 54 q 916 7 968 20 q 808 -12 865 -5 q 684 -18 751 -18 q 525 -5 601 -18 q 382 36 448 9 q 263 103 317 63 q 171 197 210 144 q 112 318 133 251 q 92 465 92 385 q 112 612 92 545 q 171 733 133 680 q 263 827 210 787 q 382 895 317 867 q 524 935 448 922 q 684 949 600 949 q 808 942 751 949 q 916 923 865 935 q 1016 894 968 911 q 1112 857 1063 878 l 1112 755 q 1029 802 1074 780 q 934 840 985 823 q 825 865 883 856 q 700 875 766 875 q 467 846 566 875 q 305 763 369 817 q 210 634 241 710 q 179 465 179 559 q 210 296 179 372 q 305 168 241 221 q 467 86 369 115 q 700 57 566 57 q 826 66 766 57 q 937 92 885 76 q 1033 130 989 109 q 1112 175 1076 151 l 1112 74 l 1112 74 m 918 1144 l 620 1018 l 593 1071 l 884 1215 l 918 1144 z "},"Ĉ":{"ha":1207,"x_min":92,"x_max":1112,"o":"m 1112 74 q 1016 37 1063 54 q 916 7 968 20 q 808 -12 865 -5 q 684 -18 751 -18 q 525 -5 601 -18 q 382 36 448 9 q 263 103 317 63 q 171 197 210 144 q 112 318 133 251 q 92 465 92 385 q 112 612 92 545 q 171 733 133 680 q 263 827 210 787 q 382 895 317 867 q 524 935 448 922 q 684 949 600 949 q 808 942 751 949 q 916 923 865 935 q 1016 894 968 911 q 1112 857 1063 878 l 1112 755 q 1029 802 1074 780 q 934 840 985 823 q 825 865 883 856 q 700 875 766 875 q 467 846 566 875 q 305 763 369 817 q 210 634 241 710 q 179 465 179 559 q 210 296 179 372 q 305 168 241 221 q 467 86 369 115 q 700 57 566 57 q 826 66 766 57 q 937 92 885 76 q 1033 130 989 109 q 1112 175 1076 151 l 1112 74 l 1112 74 m 913 1018 l 677 1126 l 441 1018 l 414 1066 l 677 1215 l 939 1066 l 913 1018 z "},"ĉ":{"ha":1207,"x_min":92,"x_max":1112,"o":"m 1112 74 q 1016 37 1063 54 q 916 7 968 20 q 808 -12 865 -5 q 684 -18 751 -18 q 525 -5 601 -18 q 382 36 448 9 q 263 103 317 63 q 171 197 210 144 q 112 318 133 251 q 92 465 92 385 q 112 612 92 545 q 171 733 133 680 q 263 827 210 787 q 382 895 317 867 q 524 935 448 922 q 684 949 600 949 q 808 942 751 949 q 916 923 865 935 q 1016 894 968 911 q 1112 857 1063 878 l 1112 755 q 1029 802 1074 780 q 934 840 985 823 q 825 865 883 856 q 700 875 766 875 q 467 846 566 875 q 305 763 369 817 q 210 634 241 710 q 179 465 179 559 q 210 296 179 372 q 305 168 241 221 q 467 86 369 115 q 700 57 566 57 q 826 66 766 57 q 937 92 885 76 q 1033 130 989 109 q 1112 175 1076 151 l 1112 74 l 1112 74 m 914 1018 l 678 1126 l 442 1018 l 416 1066 l 678 1215 l 941 1066 l 914 1018 z "},"Ċ":{"ha":1207,"x_min":92,"x_max":1112,"o":"m 1112 74 q 1016 37 1063 54 q 916 7 968 20 q 808 -12 865 -5 q 684 -18 751 -18 q 525 -5 601 -18 q 382 36 448 9 q 263 103 317 63 q 171 197 210 144 q 112 318 133 251 q 92 465 92 385 q 112 612 92 545 q 171 733 133 680 q 263 827 210 787 q 382 895 317 867 q 524 935 448 922 q 684 949 600 949 q 808 942 751 949 q 916 923 865 935 q 1016 894 968 911 q 1112 857 1063 878 l 1112 755 q 1029 802 1074 780 q 934 840 985 823 q 825 865 883 856 q 700 875 766 875 q 467 846 566 875 q 305 763 369 817 q 210 634 241 710 q 179 465 179 559 q 210 296 179 372 q 305 168 241 221 q 467 86 369 115 q 700 57 566 57 q 826 66 766 57 q 937 92 885 76 q 1033 130 989 109 q 1112 175 1076 151 l 1112 74 l 1112 74 m 624 1031 l 624 1136 l 729 1136 l 729 1031 l 624 1031 z "},"ċ":{"ha":1207,"x_min":92,"x_max":1112,"o":"m 1112 74 q 1016 37 1063 54 q 916 7 968 20 q 808 -12 865 -5 q 684 -18 751 -18 q 525 -5 601 -18 q 382 36 448 9 q 263 103 317 63 q 171 197 210 144 q 112 318 133 251 q 92 465 92 385 q 112 612 92 545 q 171 733 133 680 q 263 827 210 787 q 382 895 317 867 q 524 935 448 922 q 684 949 600 949 q 808 942 751 949 q 916 923 865 935 q 1016 894 968 911 q 1112 857 1063 878 l 1112 755 q 1029 802 1074 780 q 934 840 985 823 q 825 865 883 856 q 700 875 766 875 q 467 846 566 875 q 305 763 369 817 q 210 634 241 710 q 179 465 179 559 q 210 296 179 372 q 305 168 241 221 q 467 86 369 115 q 700 57 566 57 q 826 66 766 57 q 937 92 885 76 q 1033 130 989 109 q 1112 175 1076 151 l 1112 74 l 1112 74 m 625 1031 l 625 1136 l 730 1136 l 730 1031 l 625 1031 z "},"Č":{"ha":1207,"x_min":92,"x_max":1112,"o":"m 1112 74 q 1016 37 1063 54 q 916 7 968 20 q 808 -12 865 -5 q 684 -18 751 -18 q 525 -5 601 -18 q 382 36 448 9 q 263 103 317 63 q 171 197 210 144 q 112 318 133 251 q 92 465 92 385 q 112 612 92 545 q 171 733 133 680 q 263 827 210 787 q 382 895 317 867 q 524 935 448 922 q 684 949 600 949 q 808 942 751 949 q 916 923 865 935 q 1016 894 968 911 q 1112 857 1063 878 l 1112 755 q 1029 802 1074 780 q 934 840 985 823 q 825 865 883 856 q 700 875 766 875 q 467 846 566 875 q 305 763 369 817 q 210 634 241 710 q 179 465 179 559 q 210 296 179 372 q 305 168 241 221 q 467 86 369 115 q 700 57 566 57 q 826 66 766 57 q 937 92 885 76 q 1033 130 989 109 q 1112 175 1076 151 l 1112 74 l 1112 74 m 939 1166 l 677 1018 l 414 1166 l 441 1215 l 677 1107 l 913 1215 l 939 1166 z "},"č":{"ha":1207,"x_min":92,"x_max":1112,"o":"m 1112 74 q 1016 37 1063 54 q 916 7 968 20 q 808 -12 865 -5 q 684 -18 751 -18 q 525 -5 601 -18 q 382 36 448 9 q 263 103 317 63 q 171 197 210 144 q 112 318 133 251 q 92 465 92 385 q 112 612 92 545 q 171 733 133 680 q 263 827 210 787 q 382 895 317 867 q 524 935 448 922 q 684 949 600 949 q 808 942 751 949 q 916 923 865 935 q 1016 894 968 911 q 1112 857 1063 878 l 1112 755 q 1029 802 1074 780 q 934 840 985 823 q 825 865 883 856 q 700 875 766 875 q 467 846 566 875 q 305 763 369 817 q 210 634 241 710 q 179 465 179 559 q 210 296 179 372 q 305 168 241 221 q 467 86 369 115 q 700 57 566 57 q 826 66 766 57 q 937 92 885 76 q 1033 130 989 109 q 1112 175 1076 151 l 1112 74 l 1112 74 m 941 1166 l 678 1018 l 416 1166 l 442 1215 l 678 1107 l 914 1215 l 941 1166 z "},"Ď":{"ha":1264,"x_min":157,"x_max":1174,"o":"m 1174 467 q 1155 308 1174 377 q 1103 186 1137 238 q 1020 99 1069 135 q 912 41 972 63 q 784 10 853 20 q 637 0 714 0 l 157 0 l 157 932 l 636 932 q 849 909 751 932 q 1020 833 947 887 q 1133 690 1092 779 q 1174 467 1174 600 m 1086 467 q 1072 601 1086 543 q 1029 702 1057 659 q 961 774 1001 745 q 871 822 921 804 q 762 847 821 840 q 636 854 703 854 l 241 854 l 241 78 l 636 78 q 819 96 736 78 q 961 158 901 114 q 1053 278 1020 203 q 1086 467 1086 353 m 795 1166 l 532 1018 l 270 1166 l 296 1215 l 532 1107 l 768 1215 l 795 1166 z "},"ď":{"ha":1264,"x_min":157,"x_max":1174,"o":"m 1174 467 q 1155 308 1174 377 q 1103 186 1137 238 q 1020 99 1069 135 q 912 41 972 63 q 784 10 853 20 q 637 0 714 0 l 157 0 l 157 932 l 636 932 q 849 909 751 932 q 1020 833 947 887 q 1133 690 1092 779 q 1174 467 1174 600 m 1086 467 q 1072 601 1086 543 q 1029 702 1057 659 q 961 774 1001 745 q 871 822 921 804 q 762 847 821 840 q 636 854 703 854 l 241 854 l 241 78 l 636 78 q 819 96 736 78 q 961 158 901 114 q 1053 278 1020 203 q 1086 467 1086 353 m 796 1166 l 534 1018 l 271 1166 l 298 1215 l 534 1107 l 770 1215 l 796 1166 z "},"Đ":{"ha":1264,"x_min":21,"x_max":1174,"o":"m 1174 467 q 1149 283 1174 359 q 1079 155 1124 207 q 974 72 1035 103 q 839 25 912 41 q 685 5 766 9 q 518 0 603 0 l 157 0 l 157 441 l 21 441 l 21 511 l 157 511 l 157 932 l 517 932 q 684 927 602 932 q 839 906 766 922 q 973 860 911 890 q 1079 778 1034 829 q 1149 650 1124 726 q 1174 467 1174 574 m 1086 467 q 1053 652 1086 577 q 950 771 1019 726 q 779 836 882 817 q 538 854 675 854 l 241 854 l 241 511 l 623 511 l 623 441 l 241 441 l 241 78 l 538 78 q 680 82 611 78 q 810 98 749 85 q 922 136 871 111 q 1009 205 972 161 q 1066 312 1046 248 q 1086 467 1086 376 z "},"đ":{"ha":1264,"x_min":21,"x_max":1174,"o":"m 1174 467 q 1149 283 1174 359 q 1079 155 1124 207 q 974 72 1035 103 q 839 25 912 41 q 685 5 766 9 q 518 0 603 0 l 157 0 l 157 441 l 21 441 l 21 511 l 157 511 l 157 932 l 517 932 q 684 927 602 932 q 839 906 766 922 q 973 860 911 890 q 1079 778 1034 829 q 1149 650 1124 726 q 1174 467 1174 574 m 1086 467 q 1053 652 1086 577 q 950 771 1019 726 q 779 836 882 817 q 538 854 675 854 l 241 854 l 241 511 l 623 511 l 623 441 l 241 441 l 241 78 l 538 78 q 680 82 611 78 q 810 98 749 85 q 922 136 871 111 q 1009 205 972 161 q 1066 312 1046 248 q 1086 467 1086 376 z "},"Ē":{"ha":1048,"x_min":157,"x_max":943,"o":"m 157 0 l 157 932 l 933 932 l 933 852 l 249 852 l 249 532 l 899 532 l 899 453 l 249 453 l 249 79 l 943 79 l 943 0 l 157 0 m 351 1038 l 351 1115 l 724 1115 l 724 1038 l 351 1038 z "},"ē":{"ha":1264,"x_min":92,"x_max":1173,"o":"m 1096 49 q 990 19 1039 31 q 894 -2 941 6 q 797 -13 846 -9 q 689 -17 748 -17 q 441 16 552 -17 q 253 112 331 50 q 134 262 176 174 q 92 460 92 350 q 132 655 92 566 q 245 808 172 744 q 418 907 317 871 q 642 942 519 942 q 867 908 768 942 q 1034 811 966 874 q 1137 658 1102 748 q 1173 456 1173 568 l 1173 435 l 179 435 q 222 278 186 348 q 325 159 258 208 q 487 84 391 111 q 713 58 584 58 q 824 66 768 58 q 932 86 880 73 q 1026 114 983 98 q 1096 147 1069 130 l 1096 49 m 1089 509 q 1057 645 1084 580 q 976 759 1030 709 q 839 838 922 808 q 640 867 756 867 q 449 838 531 867 q 310 759 367 808 q 220 645 253 710 q 179 509 188 581 l 1089 509 m 448 1038 l 448 1115 l 821 1115 l 821 1038 l 448 1038 z "},"Ĕ":{"ha":1048,"x_min":157,"x_max":943,"o":"m 157 0 l 157 932 l 933 932 l 933 852 l 249 852 l 249 532 l 899 532 l 899 453 l 249 453 l 249 79 l 943 79 l 943 0 l 157 0 m 772 1187 q 751 1134 766 1162 q 709 1082 736 1105 q 641 1042 682 1058 q 538 1026 599 1026 q 435 1042 477 1026 q 366 1082 393 1058 q 324 1134 338 1105 q 303 1187 309 1162 l 382 1187 q 396 1159 386 1175 q 424 1129 406 1143 q 469 1105 441 1115 q 538 1095 497 1095 q 606 1105 578 1095 q 652 1129 633 1115 q 680 1159 670 1143 q 694 1187 690 1175 l 772 1187 l 772 1187 z "},"ĕ":{"ha":1264,"x_min":92,"x_max":1173,"o":"m 1096 49 q 990 19 1039 31 q 894 -2 941 6 q 797 -13 846 -9 q 689 -17 748 -17 q 441 16 552 -17 q 253 112 331 50 q 134 262 176 174 q 92 460 92 350 q 132 655 92 566 q 245 808 172 744 q 418 907 317 871 q 642 942 519 942 q 867 908 768 942 q 1034 811 966 874 q 1137 658 1102 748 q 1173 456 1173 568 l 1173 435 l 179 435 q 222 278 186 348 q 325 159 258 208 q 487 84 391 111 q 713 58 584 58 q 824 66 768 58 q 932 86 880 73 q 1026 114 983 98 q 1096 147 1069 130 l 1096 49 m 1089 509 q 1057 645 1084 580 q 976 759 1030 709 q 839 838 922 808 q 640 867 756 867 q 449 838 531 867 q 310 759 367 808 q 220 645 253 710 q 179 509 188 581 l 1089 509 m 869 1187 q 848 1134 863 1162 q 806 1082 833 1105 q 738 1042 779 1058 q 635 1026 696 1026 q 532 1042 574 1026 q 463 1082 490 1058 q 421 1134 435 1105 q 400 1187 406 1162 l 479 1187 q 493 1159 483 1175 q 520 1129 503 1143 q 566 1105 538 1115 q 635 1095 594 1095 q 703 1105 675 1095 q 749 1129 730 1115 q 777 1159 767 1143 q 791 1187 787 1175 l 869 1187 l 869 1187 z "},"Ė":{"ha":1048,"x_min":157,"x_max":943,"o":"m 157 0 l 157 932 l 933 932 l 933 852 l 249 852 l 249 532 l 899 532 l 899 453 l 249 453 l 249 79 l 943 79 l 943 0 l 157 0 m 485 1031 l 485 1136 l 590 1136 l 590 1031 l 485 1031 z "},"ė":{"ha":1264,"x_min":92,"x_max":1173,"o":"m 1096 49 q 990 19 1039 31 q 894 -2 941 6 q 797 -13 846 -9 q 689 -17 748 -17 q 441 16 552 -17 q 253 112 331 50 q 134 262 176 174 q 92 460 92 350 q 132 655 92 566 q 245 808 172 744 q 418 907 317 871 q 642 942 519 942 q 867 908 768 942 q 1034 811 966 874 q 1137 658 1102 748 q 1173 456 1173 568 l 1173 435 l 179 435 q 222 278 186 348 q 325 159 258 208 q 487 84 391 111 q 713 58 584 58 q 824 66 768 58 q 932 86 880 73 q 1026 114 983 98 q 1096 147 1069 130 l 1096 49 m 1089 509 q 1057 645 1084 580 q 976 759 1030 709 q 839 838 922 808 q 640 867 756 867 q 449 838 531 867 q 310 759 367 808 q 220 645 253 710 q 179 509 188 581 l 1089 509 m 582 1031 l 582 1136 l 687 1136 l 687 1031 l 582 1031 z "},"Ę":{"ha":1048,"x_min":157,"x_max":943,"o":"m 943 0 q 849 -13 890 0 q 780 -46 808 -26 q 738 -86 752 -65 q 724 -123 724 -107 q 749 -165 724 -152 q 821 -178 774 -178 q 885 -173 854 -178 q 943 -160 915 -168 l 943 -229 q 885 -237 915 -233 q 810 -241 854 -241 q 742 -236 772 -241 q 690 -217 711 -230 q 657 -185 669 -205 q 646 -139 646 -166 q 672 -65 646 -99 q 751 0 699 -31 l 157 0 l 157 932 l 933 932 l 933 852 l 249 852 l 249 532 l 899 532 l 899 453 l 249 453 l 249 79 l 943 79 l 943 0 l 943 0 z "},"ę":{"ha":1264,"x_min":92,"x_max":1173,"o":"m 1096 49 q 1029 19 1059 37 q 979 -19 1000 1 q 947 -60 958 -39 q 936 -98 936 -80 q 961 -140 936 -127 q 1034 -153 987 -153 q 1097 -148 1067 -153 q 1156 -135 1127 -142 l 1156 -204 q 1097 -212 1128 -208 q 1022 -216 1067 -216 q 955 -211 985 -216 q 903 -192 924 -205 q 870 -160 882 -180 q 859 -114 859 -141 q 877 -51 859 -80 q 933 5 896 -22 q 818 -12 876 -6 q 689 -17 760 -17 q 441 16 552 -17 q 253 112 331 50 q 134 262 176 174 q 92 460 92 350 q 132 655 92 566 q 245 808 172 744 q 418 907 317 871 q 642 942 519 942 q 867 908 768 942 q 1034 811 966 874 q 1137 658 1102 748 q 1173 456 1173 568 l 1173 435 l 179 435 q 222 278 186 348 q 325 159 258 208 q 487 84 391 111 q 713 58 584 58 q 824 66 768 58 q 932 86 880 73 q 1026 114 983 98 q 1096 147 1069 130 l 1096 49 m 1089 509 q 1057 645 1084 580 q 976 759 1030 709 q 839 838 922 808 q 640 867 756 867 q 449 838 531 867 q 310 759 367 808 q 220 645 253 710 q 179 509 188 581 l 1089 509 z "},"Ě":{"ha":1048,"x_min":157,"x_max":943,"o":"m 157 0 l 157 932 l 933 932 l 933 852 l 249 852 l 249 532 l 899 532 l 899 453 l 249 453 l 249 79 l 943 79 l 943 0 l 157 0 m 800 1166 l 538 1018 l 275 1166 l 302 1215 l 538 1107 l 774 1215 l 800 1166 z "},"ě":{"ha":1264,"x_min":92,"x_max":1173,"o":"m 1096 49 q 990 19 1039 31 q 894 -2 941 6 q 797 -13 846 -9 q 689 -17 748 -17 q 441 16 552 -17 q 253 112 331 50 q 134 262 176 174 q 92 460 92 350 q 132 655 92 566 q 245 808 172 744 q 418 907 317 871 q 642 942 519 942 q 867 908 768 942 q 1034 811 966 874 q 1137 658 1102 748 q 1173 456 1173 568 l 1173 435 l 179 435 q 222 278 186 348 q 325 159 258 208 q 487 84 391 111 q 713 58 584 58 q 824 66 768 58 q 932 86 880 73 q 1026 114 983 98 q 1096 147 1069 130 l 1096 49 m 1089 509 q 1057 645 1084 580 q 976 759 1030 709 q 839 838 922 808 q 640 867 756 867 q 449 838 531 867 q 310 759 367 808 q 220 645 253 710 q 179 509 188 581 l 1089 509 m 897 1166 l 635 1018 l 372 1166 l 399 1215 l 635 1107 l 871 1215 l 897 1166 z "},"Ĝ":{"ha":1264,"x_min":92,"x_max":1150,"o":"m 705 949 q 825 942 770 949 q 932 924 881 936 q 1031 896 983 912 q 1128 859 1079 879 l 1128 755 q 1045 802 1089 780 q 951 840 1002 823 q 843 865 901 856 q 718 875 785 875 q 481 846 583 875 q 313 765 380 818 q 213 636 246 712 q 179 465 179 560 q 212 301 179 376 q 312 172 245 227 q 479 87 378 118 q 714 57 579 57 q 819 61 767 57 q 917 72 871 65 q 1001 86 963 78 q 1065 102 1039 94 l 1065 385 l 686 385 l 686 464 l 1150 464 l 1150 54 q 1049 23 1100 37 q 943 0 998 9 q 830 -14 888 -9 q 707 -18 771 -18 q 463 11 575 -18 q 268 101 350 41 q 138 252 185 161 q 92 465 92 342 q 113 615 92 547 q 175 736 135 682 q 270 830 214 790 q 394 896 326 870 q 541 936 463 922 q 705 949 620 949 m 924 1018 l 688 1126 l 452 1018 l 425 1066 l 688 1215 l 950 1066 l 924 1018 z "},"ĝ":{"ha":1264,"x_min":92,"x_max":1150,"o":"m 705 949 q 825 942 770 949 q 932 924 881 936 q 1031 896 983 912 q 1128 859 1079 879 l 1128 755 q 1045 802 1089 780 q 951 840 1002 823 q 843 865 901 856 q 718 875 785 875 q 481 846 583 875 q 313 765 380 818 q 213 636 246 712 q 179 465 179 560 q 212 301 179 376 q 312 172 245 227 q 479 87 378 118 q 714 57 579 57 q 819 61 767 57 q 917 72 871 65 q 1001 86 963 78 q 1065 102 1039 94 l 1065 385 l 686 385 l 686 464 l 1150 464 l 1150 54 q 1049 23 1100 37 q 943 0 998 9 q 830 -14 888 -9 q 707 -18 771 -18 q 463 11 575 -18 q 268 101 350 41 q 138 252 185 161 q 92 465 92 342 q 113 615 92 547 q 175 736 135 682 q 270 830 214 790 q 394 896 326 870 q 541 936 463 922 q 705 949 620 949 m 924 1018 l 688 1126 l 452 1018 l 425 1066 l 688 1215 l 950 1066 l 924 1018 z "},"Ğ":{"ha":1264,"x_min":92,"x_max":1150,"o":"m 705 949 q 825 942 770 949 q 932 924 881 936 q 1031 896 983 912 q 1128 859 1079 879 l 1128 755 q 1045 802 1089 780 q 951 840 1002 823 q 843 865 901 856 q 718 875 785 875 q 481 846 583 875 q 313 765 380 818 q 213 636 246 712 q 179 465 179 560 q 212 301 179 376 q 312 172 245 227 q 479 87 378 118 q 714 57 579 57 q 819 61 767 57 q 917 72 871 65 q 1001 86 963 78 q 1065 102 1039 94 l 1065 385 l 686 385 l 686 464 l 1150 464 l 1150 54 q 1049 23 1100 37 q 943 0 998 9 q 830 -14 888 -9 q 707 -18 771 -18 q 463 11 575 -18 q 268 101 350 41 q 138 252 185 161 q 92 465 92 342 q 113 615 92 547 q 175 736 135 682 q 270 830 214 790 q 394 896 326 870 q 541 936 463 922 q 705 949 620 949 m 922 1187 q 901 1134 916 1162 q 859 1082 886 1105 q 790 1042 832 1058 q 688 1026 749 1026 q 585 1042 627 1026 q 515 1082 543 1058 q 474 1134 488 1105 q 453 1187 459 1162 l 532 1187 q 546 1159 536 1175 q 573 1129 555 1143 q 619 1105 591 1115 q 688 1095 647 1095 q 755 1105 728 1095 q 802 1129 783 1115 q 830 1159 820 1143 q 844 1187 840 1175 l 922 1187 l 922 1187 z "},"ğ":{"ha":1264,"x_min":92,"x_max":1150,"o":"m 705 949 q 825 942 770 949 q 932 924 881 936 q 1031 896 983 912 q 1128 859 1079 879 l 1128 755 q 1045 802 1089 780 q 951 840 1002 823 q 843 865 901 856 q 718 875 785 875 q 481 846 583 875 q 313 765 380 818 q 213 636 246 712 q 179 465 179 560 q 212 301 179 376 q 312 172 245 227 q 479 87 378 118 q 714 57 579 57 q 819 61 767 57 q 917 72 871 65 q 1001 86 963 78 q 1065 102 1039 94 l 1065 385 l 686 385 l 686 464 l 1150 464 l 1150 54 q 1049 23 1100 37 q 943 0 998 9 q 830 -14 888 -9 q 707 -18 771 -18 q 463 11 575 -18 q 268 101 350 41 q 138 252 185 161 q 92 465 92 342 q 113 615 92 547 q 175 736 135 682 q 270 830 214 790 q 394 896 326 870 q 541 936 463 922 q 705 949 620 949 m 922 1187 q 901 1134 916 1162 q 859 1082 886 1105 q 790 1042 832 1058 q 688 1026 749 1026 q 585 1042 627 1026 q 515 1082 543 1058 q 474 1134 488 1105 q 453 1187 459 1162 l 532 1187 q 546 1159 536 1175 q 573 1129 555 1143 q 619 1105 591 1115 q 688 1095 647 1095 q 755 1105 728 1095 q 802 1129 783 1115 q 830 1159 820 1143 q 844 1187 840 1175 l 922 1187 l 922 1187 z "},"Ġ":{"ha":1264,"x_min":92,"x_max":1150,"o":"m 705 949 q 825 942 770 949 q 932 924 881 936 q 1031 896 983 912 q 1128 859 1079 879 l 1128 755 q 1045 802 1089 780 q 951 840 1002 823 q 843 865 901 856 q 718 875 785 875 q 481 846 583 875 q 313 765 380 818 q 213 636 246 712 q 179 465 179 560 q 212 301 179 376 q 312 172 245 227 q 479 87 378 118 q 714 57 579 57 q 819 61 767 57 q 917 72 871 65 q 1001 86 963 78 q 1065 102 1039 94 l 1065 385 l 686 385 l 686 464 l 1150 464 l 1150 54 q 1049 23 1100 37 q 943 0 998 9 q 830 -14 888 -9 q 707 -18 771 -18 q 463 11 575 -18 q 268 101 350 41 q 138 252 185 161 q 92 465 92 342 q 113 615 92 547 q 175 736 135 682 q 270 830 214 790 q 394 896 326 870 q 541 936 463 922 q 705 949 620 949 m 635 1031 l 635 1136 l 740 1136 l 740 1031 l 635 1031 z "},"ġ":{"ha":1264,"x_min":92,"x_max":1150,"o":"m 705 949 q 825 942 770 949 q 932 924 881 936 q 1031 896 983 912 q 1128 859 1079 879 l 1128 755 q 1045 802 1089 780 q 951 840 1002 823 q 843 865 901 856 q 718 875 785 875 q 481 846 583 875 q 313 765 380 818 q 213 636 246 712 q 179 465 179 560 q 212 301 179 376 q 312 172 245 227 q 479 87 378 118 q 714 57 579 57 q 819 61 767 57 q 917 72 871 65 q 1001 86 963 78 q 1065 102 1039 94 l 1065 385 l 686 385 l 686 464 l 1150 464 l 1150 54 q 1049 23 1100 37 q 943 0 998 9 q 830 -14 888 -9 q 707 -18 771 -18 q 463 11 575 -18 q 268 101 350 41 q 138 252 185 161 q 92 465 92 342 q 113 615 92 547 q 175 736 135 682 q 270 830 214 790 q 394 896 326 870 q 541 936 463 922 q 705 949 620 949 m 635 1031 l 635 1136 l 740 1136 l 740 1031 l 635 1031 z "},"Ģ":{"ha":1264,"x_min":92,"x_max":1150,"o":"m 705 949 q 825 942 770 949 q 932 924 881 936 q 1031 896 983 912 q 1128 859 1079 879 l 1128 755 q 1045 802 1089 780 q 951 840 1002 823 q 843 865 901 856 q 718 875 785 875 q 481 846 583 875 q 313 765 380 818 q 213 636 246 712 q 179 465 179 560 q 212 301 179 376 q 312 172 245 227 q 479 87 378 118 q 714 57 579 57 q 819 61 767 57 q 917 72 871 65 q 1001 86 963 78 q 1065 102 1039 94 l 1065 385 l 686 385 l 686 464 l 1150 464 l 1150 54 q 1049 23 1100 37 q 943 0 998 9 q 830 -14 888 -9 q 707 -18 771 -18 q 463 11 575 -18 q 268 101 350 41 q 138 252 185 161 q 92 465 92 342 q 113 615 92 547 q 175 736 135 682 q 270 830 214 790 q 394 896 326 870 q 541 936 463 922 q 705 949 620 949 m 706 -282 l 637 -282 l 664 -97 l 762 -97 l 706 -282 z "},"ģ":{"ha":1264,"x_min":92,"x_max":1150,"o":"m 705 949 q 825 942 770 949 q 932 924 881 936 q 1031 896 983 912 q 1128 859 1079 879 l 1128 755 q 1045 802 1089 780 q 951 840 1002 823 q 843 865 901 856 q 718 875 785 875 q 481 846 583 875 q 313 765 380 818 q 213 636 246 712 q 179 465 179 560 q 212 301 179 376 q 312 172 245 227 q 479 87 378 118 q 714 57 579 57 q 819 61 767 57 q 917 72 871 65 q 1001 86 963 78 q 1065 102 1039 94 l 1065 385 l 686 385 l 686 464 l 1150 464 l 1150 54 q 1049 23 1100 37 q 943 0 998 9 q 830 -14 888 -9 q 707 -18 771 -18 q 463 11 575 -18 q 268 101 350 41 q 138 252 185 161 q 92 465 92 342 q 113 615 92 547 q 175 736 135 682 q 270 830 214 790 q 394 896 326 870 q 541 936 463 922 q 705 949 620 949 m 706 -282 l 637 -282 l 664 -97 l 762 -97 l 706 -282 z "},"Ĥ":{"ha":1318,"x_min":157,"x_max":1161,"o":"m 1076 0 l 1076 452 l 241 452 l 241 0 l 157 0 l 157 932 l 241 932 l 241 530 l 1076 530 l 1076 932 l 1161 932 l 1161 0 l 1076 0 m 896 1018 l 660 1126 l 424 1018 l 397 1066 l 660 1215 l 922 1066 l 896 1018 z "},"ĥ":{"ha":1318,"x_min":157,"x_max":1161,"o":"m 1076 0 l 1076 452 l 241 452 l 241 0 l 157 0 l 157 932 l 241 932 l 241 530 l 1076 530 l 1076 932 l 1161 932 l 1161 0 l 1076 0 m 896 1018 l 660 1126 l 424 1018 l 397 1066 l 660 1215 l 922 1066 l 896 1018 z "},"Ħ":{"ha":1318,"x_min":37,"x_max":1280,"o":"m 1076 0 l 1076 452 l 241 452 l 241 0 l 157 0 l 157 665 l 37 665 l 37 742 l 157 742 l 157 932 l 241 932 l 241 742 l 1076 742 l 1076 932 l 1161 932 l 1161 742 l 1280 742 l 1280 665 l 1161 665 l 1161 0 l 1076 0 m 1076 530 l 1076 665 l 241 665 l 241 530 l 1076 530 z "},"ħ":{"ha":1318,"x_min":37,"x_max":1280,"o":"m 1076 0 l 1076 452 l 241 452 l 241 0 l 157 0 l 157 665 l 37 665 l 37 742 l 157 742 l 157 932 l 241 932 l 241 742 l 1076 742 l 1076 932 l 1161 932 l 1161 742 l 1280 742 l 1280 665 l 1161 665 l 1161 0 l 1076 0 m 1076 530 l 1076 665 l 241 665 l 241 530 l 1076 530 z "},"Ĩ":{"ha":399,"x_min":-39,"x_max":439,"o":"m 157 0 l 157 932 l 241 932 l 241 0 l 157 0 m 439 1173 q 434 1130 439 1156 q 415 1080 429 1104 q 376 1040 401 1057 q 312 1023 351 1023 q 249 1036 280 1023 q 190 1064 218 1049 q 135 1093 161 1080 q 87 1105 109 1105 q 55 1095 66 1105 q 37 1071 43 1085 q 28 1044 31 1057 q 26 1023 26 1030 l -39 1023 q -33 1066 -39 1040 q -14 1115 -28 1091 q 26 1156 1 1139 q 91 1173 51 1173 q 146 1160 117 1173 q 205 1132 176 1147 q 262 1104 235 1117 q 315 1091 290 1091 q 347 1101 335 1091 q 365 1125 359 1112 q 373 1152 371 1139 q 376 1173 375 1166 l 439 1173 l 439 1173 z "},"ĩ":{"ha":399,"x_min":-37,"x_max":441,"o":"m 157 0 l 157 932 l 241 932 l 241 0 l 157 0 m 441 1173 q 436 1130 441 1156 q 416 1080 431 1104 q 377 1040 402 1057 q 313 1023 353 1023 q 251 1036 281 1023 q 191 1064 220 1049 q 136 1093 162 1080 q 88 1105 110 1105 q 56 1095 68 1105 q 38 1071 44 1085 q 30 1044 32 1057 q 27 1023 28 1030 l -37 1023 q -32 1066 -37 1040 q -12 1115 -26 1091 q 27 1156 2 1139 q 92 1173 52 1173 q 148 1160 119 1173 q 207 1132 177 1147 q 264 1104 236 1117 q 316 1091 292 1091 q 348 1101 336 1091 q 366 1125 360 1112 q 374 1152 372 1139 q 377 1173 376 1166 l 441 1173 l 441 1173 z "},"Ī":{"ha":399,"x_min":13,"x_max":385,"o":"m 157 0 l 157 932 l 241 932 l 241 0 l 157 0 m 13 1038 l 13 1115 l 385 1115 l 385 1038 l 13 1038 z "},"ī":{"ha":399,"x_min":14,"x_max":387,"o":"m 157 0 l 157 932 l 241 932 l 241 0 l 157 0 m 14 1038 l 14 1115 l 387 1115 l 387 1038 l 14 1038 z "},"Ĭ":{"ha":399,"x_min":-35,"x_max":434,"o":"m 157 0 l 157 932 l 241 932 l 241 0 l 157 0 m 434 1187 q 413 1134 428 1162 q 371 1082 398 1105 q 302 1042 344 1058 q 199 1026 260 1026 q 96 1042 138 1026 q 27 1082 54 1058 q -15 1134 0 1105 q -35 1187 -29 1162 l 43 1187 q 57 1159 47 1175 q 85 1129 67 1143 q 131 1105 103 1115 q 199 1095 159 1095 q 267 1105 239 1095 q 313 1129 295 1115 q 342 1159 332 1143 q 356 1187 352 1175 l 434 1187 l 434 1187 z "},"ĭ":{"ha":399,"x_min":-34,"x_max":435,"o":"m 157 0 l 157 932 l 241 932 l 241 0 l 157 0 m 435 1187 q 414 1134 429 1162 q 372 1082 399 1105 q 303 1042 345 1058 q 201 1026 262 1026 q 98 1042 140 1026 q 28 1082 56 1058 q -13 1134 1 1105 q -34 1187 -28 1162 l 45 1187 q 59 1159 49 1175 q 86 1129 68 1143 q 132 1105 104 1115 q 201 1095 160 1095 q 269 1105 241 1095 q 315 1129 296 1115 q 343 1159 333 1143 q 357 1187 353 1175 l 435 1187 l 435 1187 z "},"Į":{"ha":399,"x_min":32,"x_max":330,"o":"m 157 932 l 241 932 l 241 0 l 216 0 q 193 -16 205 -7 q 152 -51 170 -33 q 122 -87 134 -68 q 110 -123 110 -105 q 135 -165 110 -152 q 207 -178 160 -178 q 271 -173 241 -178 q 330 -160 301 -168 l 330 -229 q 271 -237 301 -233 q 196 -241 241 -241 q 128 -236 159 -241 q 76 -217 98 -230 q 43 -185 55 -205 q 32 -139 32 -166 q 64 -58 32 -95 q 157 9 95 -23 l 157 932 z "},"į":{"ha":399,"x_min":32,"x_max":330,"o":"m 157 932 l 241 932 l 241 0 l 216 0 q 193 -16 205 -7 q 152 -51 170 -33 q 122 -87 134 -68 q 110 -123 110 -105 q 135 -165 110 -152 q 207 -178 160 -178 q 271 -173 241 -178 q 330 -160 301 -168 l 330 -229 q 271 -237 301 -233 q 196 -241 241 -241 q 128 -236 159 -241 q 76 -217 98 -230 q 43 -185 55 -205 q 32 -139 32 -166 q 64 -58 32 -95 q 157 9 95 -23 l 157 932 z "},"İ":{"ha":399,"x_min":146,"x_max":252,"o":"m 157 0 l 157 932 l 241 932 l 241 0 l 157 0 m 146 1031 l 146 1136 l 252 1136 l 252 1031 l 146 1031 z "},"ı":{"ha":399,"x_min":157,"x_max":241,"o":"m 157 0 l 157 932 l 241 932 l 241 0 l 157 0 z "},"Ĳ":{"ha":1219,"x_min":157,"x_max":1067,"o":"m 157 0 l 157 932 l 241 932 l 241 0 l 157 0 m 1067 298 q 1040 163 1067 221 q 964 66 1013 105 q 847 8 915 28 q 697 -11 779 -11 q 604 -6 646 -11 q 525 5 561 -2 q 457 19 488 12 q 399 35 427 27 l 399 122 q 458 101 427 111 q 526 83 488 91 q 611 70 564 75 q 720 65 659 65 q 822 80 774 65 q 906 125 870 96 q 962 197 941 155 q 982 294 982 239 l 982 932 l 1067 932 l 1067 298 z "},"ĳ":{"ha":1219,"x_min":157,"x_max":1067,"o":"m 157 0 l 157 932 l 241 932 l 241 0 l 157 0 m 1067 298 q 1040 163 1067 221 q 964 66 1013 105 q 847 8 915 28 q 697 -11 779 -11 q 604 -6 646 -11 q 525 5 561 -2 q 457 19 488 12 q 399 35 427 27 l 399 122 q 458 101 427 111 q 526 83 488 91 q 611 70 564 75 q 720 65 659 65 q 822 80 774 65 q 906 125 870 96 q 962 197 941 155 q 982 294 982 239 l 982 932 l 1067 932 l 1067 298 z "},"Ĵ":{"ha":821,"x_min":0,"x_max":889,"o":"m 668 298 q 641 163 668 221 q 565 66 614 105 q 448 8 516 28 q 298 -11 380 -11 q 205 -6 248 -11 q 126 5 162 -2 q 59 19 90 12 q 0 35 28 27 l 0 122 q 59 101 28 111 q 127 83 90 91 q 213 70 165 75 q 321 65 260 65 q 424 80 376 65 q 507 125 471 96 q 563 197 543 155 q 583 294 583 239 l 583 932 l 668 932 l 668 298 m 863 1018 l 627 1126 l 391 1018 l 364 1066 l 627 1215 l 889 1066 l 863 1018 z "},"ĵ":{"ha":821,"x_min":0,"x_max":889,"o":"m 668 298 q 641 163 668 221 q 565 66 614 105 q 448 8 516 28 q 298 -11 380 -11 q 205 -6 248 -11 q 126 5 162 -2 q 59 19 90 12 q 0 35 28 27 l 0 122 q 59 101 28 111 q 127 83 90 91 q 213 70 165 75 q 321 65 260 65 q 424 80 376 65 q 507 125 471 96 q 563 197 543 155 q 583 294 583 239 l 583 932 l 668 932 l 668 298 m 863 1018 l 627 1126 l 391 1018 l 364 1066 l 627 1215 l 889 1066 l 863 1018 z "},"Ķ":{"ha":1120,"x_min":157,"x_max":1096,"o":"m 243 493 l 936 932 l 1054 932 l 371 485 l 1096 0 l 951 0 l 243 475 l 243 0 l 157 0 l 157 932 l 243 932 l 243 493 m 564 -282 l 496 -282 l 522 -97 l 620 -97 l 564 -282 z "},"ķ":{"ha":1204,"x_min":157,"x_max":1118,"o":"m 1031 0 q 994 137 1024 76 q 915 246 963 199 q 806 328 867 294 q 675 385 744 362 q 532 417 606 407 q 386 428 458 428 l 241 428 l 241 0 l 157 0 l 157 932 l 241 932 l 241 503 l 363 503 q 507 516 435 503 q 645 554 579 529 q 767 617 710 580 q 867 702 823 654 q 938 807 910 749 q 972 932 966 865 l 1060 932 q 1027 798 1053 858 q 963 690 1001 738 q 878 605 925 642 q 783 543 831 569 q 689 499 735 517 q 606 473 643 482 q 707 451 652 466 q 816 410 762 435 q 922 348 871 385 q 1015 260 974 311 q 1084 146 1056 210 q 1118 0 1112 81 l 1031 0 m 607 -282 l 538 -282 l 565 -97 l 663 -97 l 607 -282 z "},"ĸ":{"ha":1204,"x_min":157,"x_max":1118,"o":"m 1031 0 q 994 137 1024 76 q 915 246 963 199 q 806 328 867 294 q 675 385 744 362 q 532 417 606 407 q 386 428 458 428 l 241 428 l 241 0 l 157 0 l 157 932 l 241 932 l 241 503 l 363 503 q 507 516 435 503 q 645 554 579 529 q 767 617 710 580 q 867 702 823 654 q 938 807 910 749 q 972 932 966 865 l 1060 932 q 1027 798 1053 858 q 963 690 1001 738 q 878 605 925 642 q 783 543 831 569 q 689 499 735 517 q 606 473 643 482 q 707 451 652 466 q 816 410 762 435 q 922 348 871 385 q 1015 260 974 311 q 1084 146 1056 210 q 1118 0 1112 81 l 1031 0 z "},"Ĺ":{"ha":974,"x_min":116,"x_max":922,"o":"m 157 0 l 157 932 l 241 932 l 241 79 l 922 79 l 922 0 l 157 0 m 441 1144 l 142 1018 l 116 1071 l 406 1215 l 441 1144 z "},"ĺ":{"ha":986,"x_min":116,"x_max":972,"o":"m 241 322 q 252 214 241 259 q 294 139 262 168 q 388 96 327 110 q 551 82 450 82 l 972 82 l 972 0 l 534 0 q 350 18 422 0 q 234 74 277 36 q 174 169 191 111 q 157 306 157 227 l 157 932 l 241 932 l 241 322 m 441 1144 l 142 1018 l 116 1071 l 406 1215 l 441 1144 z "},"Ļ":{"ha":974,"x_min":157,"x_max":922,"o":"m 157 0 l 157 932 l 241 932 l 241 79 l 922 79 l 922 0 l 157 0 m 551 -282 l 483 -282 l 509 -97 l 607 -97 l 551 -282 z "},"ļ":{"ha":986,"x_min":157,"x_max":972,"o":"m 241 322 q 252 214 241 259 q 294 139 262 168 q 388 96 327 110 q 551 82 450 82 l 972 82 l 972 0 l 534 0 q 350 18 422 0 q 234 74 277 36 q 174 169 191 111 q 157 306 157 227 l 157 932 l 241 932 l 241 322 m 581 -282 l 512 -282 l 538 -97 l 636 -97 l 581 -282 z "},"Ľ":{"ha":974,"x_min":157,"x_max":922,"o":"m 157 0 l 157 932 l 241 932 l 241 79 l 922 79 l 922 0 l 157 0 m 667 688 l 598 688 l 644 932 l 741 932 l 667 688 z "},"ľ":{"ha":986,"x_min":157,"x_max":972,"o":"m 241 322 q 252 214 241 259 q 294 139 262 168 q 388 96 327 110 q 551 82 450 82 l 972 82 l 972 0 l 534 0 q 350 18 422 0 q 234 74 277 36 q 174 169 191 111 q 157 306 157 227 l 157 932 l 241 932 l 241 322 m 668 688 l 600 688 l 646 932 l 743 932 l 668 688 z "},"Ŀ":{"ha":974,"x_min":157,"x_max":922,"o":"m 157 0 l 157 932 l 241 932 l 241 79 l 922 79 l 922 0 l 157 0 m 625 393 l 625 540 l 743 540 l 743 393 l 625 393 z "},"ŀ":{"ha":986,"x_min":157,"x_max":972,"o":"m 241 322 q 252 214 241 259 q 294 139 262 168 q 388 96 327 110 q 551 82 450 82 l 972 82 l 972 0 l 534 0 q 350 18 422 0 q 234 74 277 36 q 174 169 191 111 q 157 306 157 227 l 157 932 l 241 932 l 241 322 m 639 395 l 639 542 l 757 542 l 757 395 l 639 395 z "},"Ł":{"ha":974,"x_min":4,"x_max":922,"o":"m 157 0 l 157 406 l 29 357 l 4 424 l 157 482 l 157 932 l 241 932 l 241 515 l 496 614 l 521 547 l 241 439 l 241 79 l 922 79 l 922 0 l 157 0 z "},"ł":{"ha":986,"x_min":4,"x_max":972,"o":"m 157 482 l 157 932 l 241 932 l 241 515 l 496 614 l 521 547 l 241 439 l 241 322 q 252 214 241 259 q 294 139 262 168 q 388 96 327 110 q 551 82 450 82 l 972 82 l 972 0 l 534 0 q 350 18 422 0 q 234 74 277 36 q 174 169 191 111 q 157 306 157 227 l 157 406 l 29 357 l 4 424 l 157 482 z "},"Ń":{"ha":1300,"x_min":157,"x_max":1143,"o":"m 1051 0 l 241 821 l 241 0 l 157 0 l 157 932 l 250 932 l 1060 109 l 1060 932 l 1143 932 l 1143 0 l 1051 0 m 889 1144 l 591 1018 l 564 1071 l 854 1215 l 889 1144 z "},"ń":{"ha":1296,"x_min":157,"x_max":1143,"o":"m 1059 0 l 1059 615 q 1038 742 1059 692 q 979 821 1017 792 q 886 862 941 850 q 762 873 831 873 q 607 854 683 873 q 463 805 530 835 q 338 740 395 776 q 241 671 281 704 l 241 0 l 157 0 l 157 932 l 241 932 l 241 768 q 346 831 289 798 q 470 891 404 864 q 611 937 536 919 q 770 954 686 954 q 934 931 864 954 q 1051 867 1004 909 q 1120 766 1097 825 q 1143 633 1143 707 l 1143 0 l 1059 0 m 875 1144 l 576 1018 l 550 1071 l 840 1215 l 875 1144 z "},"Ņ":{"ha":1300,"x_min":157,"x_max":1143,"o":"m 1051 0 l 241 821 l 241 0 l 157 0 l 157 932 l 250 932 l 1060 109 l 1060 932 l 1143 932 l 1143 0 l 1051 0 m 656 -282 l 587 -282 l 614 -97 l 711 -97 l 656 -282 z "},"ņ":{"ha":1296,"x_min":157,"x_max":1143,"o":"m 1059 0 l 1059 615 q 1038 742 1059 692 q 979 821 1017 792 q 886 862 941 850 q 762 873 831 873 q 607 854 683 873 q 463 805 530 835 q 338 740 395 776 q 241 671 281 704 l 241 0 l 157 0 l 157 932 l 241 932 l 241 768 q 346 831 289 798 q 470 891 404 864 q 611 937 536 919 q 770 954 686 954 q 934 931 864 954 q 1051 867 1004 909 q 1120 766 1097 825 q 1143 633 1143 707 l 1143 0 l 1059 0 m 653 -282 l 585 -282 l 611 -97 l 709 -97 l 653 -282 z "},"Ň":{"ha":1300,"x_min":157,"x_max":1143,"o":"m 1051 0 l 241 821 l 241 0 l 157 0 l 157 932 l 250 932 l 1060 109 l 1060 932 l 1143 932 l 1143 0 l 1051 0 m 911 1166 l 649 1018 l 387 1166 l 413 1215 l 649 1107 l 885 1215 l 911 1166 z "},"ň":{"ha":1296,"x_min":157,"x_max":1143,"o":"m 1059 0 l 1059 615 q 1038 742 1059 692 q 979 821 1017 792 q 886 862 941 850 q 762 873 831 873 q 607 854 683 873 q 463 805 530 835 q 338 740 395 776 q 241 671 281 704 l 241 0 l 157 0 l 157 932 l 241 932 l 241 768 q 346 831 289 798 q 470 891 404 864 q 611 937 536 919 q 770 954 686 954 q 934 931 864 954 q 1051 867 1004 909 q 1120 766 1097 825 q 1143 633 1143 707 l 1143 0 l 1059 0 m 897 1166 l 635 1018 l 372 1166 l 399 1215 l 635 1107 l 871 1215 l 897 1166 z "},"ŉ":{"ha":1425,"x_min":1,"x_max":1272,"o":"m 69 688 l 1 688 l 47 932 l 144 932 l 69 688 m 1187 0 l 1187 615 q 1167 742 1187 692 q 1108 821 1146 792 q 1015 862 1069 850 q 891 873 960 873 q 735 854 812 873 q 591 805 659 835 q 467 740 524 776 q 370 671 410 704 l 370 0 l 286 0 l 286 932 l 370 932 l 370 768 q 475 831 418 798 q 598 891 532 864 q 740 937 665 919 q 899 954 815 954 q 1063 931 993 954 q 1180 867 1133 909 q 1249 766 1226 825 q 1272 633 1272 707 l 1272 0 l 1187 0 z "},"Ŋ":{"ha":1300,"x_min":157,"x_max":1143,"o":"m 1143 298 q 1121 163 1143 221 q 1054 66 1098 105 q 947 8 1010 28 q 802 -11 883 -11 q 712 -6 751 -11 q 643 5 673 -2 q 585 19 612 12 q 530 35 558 27 l 530 122 q 585 101 559 111 q 644 83 612 91 q 720 70 677 75 q 823 65 762 65 q 972 105 914 65 q 1050 221 1030 145 l 1048 221 l 241 839 l 241 0 l 157 0 l 157 932 l 250 932 l 1059 314 l 1059 932 l 1143 932 l 1143 298 z "},"ŋ":{"ha":1296,"x_min":157,"x_max":1143,"o":"m 1059 615 q 1038 742 1059 692 q 979 821 1017 792 q 886 862 941 850 q 762 873 831 873 q 607 854 683 873 q 463 805 530 835 q 338 740 395 776 q 241 671 281 704 l 241 0 l 157 0 l 157 932 l 241 932 l 241 768 q 346 831 289 798 q 470 891 404 864 q 611 937 536 919 q 770 954 686 954 q 934 931 864 954 q 1051 867 1004 909 q 1120 766 1097 825 q 1143 633 1143 707 l 1143 300 q 1121 164 1143 222 q 1056 68 1098 106 q 952 10 1013 29 q 815 -9 892 -9 q 733 -5 771 -9 q 663 5 696 -1 q 601 18 630 11 q 545 33 572 26 l 545 123 q 600 102 572 113 q 660 84 627 92 q 730 71 692 76 q 819 66 769 66 q 998 126 938 66 q 1059 296 1059 186 l 1059 615 z "},"Ō":{"ha":1367,"x_min":92,"x_max":1275,"o":"m 1275 465 q 1230 249 1275 340 q 1105 98 1184 157 q 918 10 1025 39 q 685 -18 810 -18 q 451 10 559 -18 q 262 98 342 39 q 137 249 182 157 q 92 465 92 340 q 113 617 92 549 q 172 739 134 685 q 263 832 210 793 q 384 898 317 871 q 526 936 450 924 q 685 949 602 949 q 918 920 810 949 q 1105 832 1025 892 q 1230 682 1184 773 q 1275 465 1275 591 m 1187 465 q 1155 640 1187 564 q 1060 768 1123 716 q 903 847 997 820 q 685 873 809 873 q 466 846 561 873 q 308 767 372 819 q 212 639 244 715 q 179 465 179 563 q 212 290 179 366 q 308 162 244 214 q 466 84 372 111 q 685 57 561 57 q 903 84 809 57 q 1060 162 997 111 q 1155 290 1123 214 q 1187 465 1187 366 m 498 1038 l 498 1115 l 871 1115 l 871 1038 l 498 1038 z "},"ō":{"ha":1367,"x_min":92,"x_max":1275,"o":"m 1275 465 q 1230 249 1275 340 q 1105 98 1184 157 q 918 10 1025 39 q 685 -18 810 -18 q 451 10 559 -18 q 262 98 342 39 q 137 249 182 157 q 92 465 92 340 q 113 617 92 549 q 172 739 134 685 q 263 832 210 793 q 384 898 317 871 q 526 936 450 924 q 685 949 602 949 q 918 920 810 949 q 1105 832 1025 892 q 1230 682 1184 773 q 1275 465 1275 591 m 1187 465 q 1155 640 1187 564 q 1060 768 1123 716 q 903 847 997 820 q 685 873 809 873 q 466 846 561 873 q 308 767 372 819 q 212 639 244 715 q 179 465 179 563 q 212 290 179 366 q 308 162 244 214 q 466 84 372 111 q 685 57 561 57 q 903 84 809 57 q 1060 162 997 111 q 1155 290 1123 214 q 1187 465 1187 366 m 498 1038 l 498 1115 l 871 1115 l 871 1038 l 498 1038 z "},"Ŏ":{"ha":1367,"x_min":92,"x_max":1275,"o":"m 1275 465 q 1230 249 1275 340 q 1105 98 1184 157 q 918 10 1025 39 q 685 -18 810 -18 q 451 10 559 -18 q 262 98 342 39 q 137 249 182 157 q 92 465 92 340 q 113 617 92 549 q 172 739 134 685 q 263 832 210 793 q 384 898 317 871 q 526 936 450 924 q 685 949 602 949 q 918 920 810 949 q 1105 832 1025 892 q 1230 682 1184 773 q 1275 465 1275 591 m 1187 465 q 1155 640 1187 564 q 1060 768 1123 716 q 903 847 997 820 q 685 873 809 873 q 466 846 561 873 q 308 767 372 819 q 212 639 244 715 q 179 465 179 563 q 212 290 179 366 q 308 162 244 214 q 466 84 372 111 q 685 57 561 57 q 903 84 809 57 q 1060 162 997 111 q 1155 290 1123 214 q 1187 465 1187 366 m 920 1187 q 899 1134 913 1162 q 857 1082 884 1105 q 788 1042 829 1058 q 685 1026 746 1026 q 582 1042 624 1026 q 513 1082 540 1058 q 471 1134 486 1105 q 450 1187 456 1162 l 529 1187 q 543 1159 533 1175 q 571 1129 553 1143 q 616 1105 589 1115 q 685 1095 644 1095 q 753 1105 725 1095 q 799 1129 781 1115 q 827 1159 817 1143 q 842 1187 838 1175 l 920 1187 l 920 1187 z "},"ŏ":{"ha":1367,"x_min":92,"x_max":1275,"o":"m 1275 465 q 1230 249 1275 340 q 1105 98 1184 157 q 918 10 1025 39 q 685 -18 810 -18 q 451 10 559 -18 q 262 98 342 39 q 137 249 182 157 q 92 465 92 340 q 113 617 92 549 q 172 739 134 685 q 263 832 210 793 q 384 898 317 871 q 526 936 450 924 q 685 949 602 949 q 918 920 810 949 q 1105 832 1025 892 q 1230 682 1184 773 q 1275 465 1275 591 m 1187 465 q 1155 640 1187 564 q 1060 768 1123 716 q 903 847 997 820 q 685 873 809 873 q 466 846 561 873 q 308 767 372 819 q 212 639 244 715 q 179 465 179 563 q 212 290 179 366 q 308 162 244 214 q 466 84 372 111 q 685 57 561 57 q 903 84 809 57 q 1060 162 997 111 q 1155 290 1123 214 q 1187 465 1187 366 m 920 1187 q 899 1134 913 1162 q 857 1082 884 1105 q 788 1042 829 1058 q 685 1026 746 1026 q 582 1042 624 1026 q 513 1082 540 1058 q 471 1134 486 1105 q 450 1187 456 1162 l 529 1187 q 543 1159 533 1175 q 571 1129 553 1143 q 616 1105 589 1115 q 685 1095 644 1095 q 753 1105 725 1095 q 799 1129 781 1115 q 827 1159 817 1143 q 842 1187 838 1175 l 920 1187 l 920 1187 z "},"Ő":{"ha":1367,"x_min":92,"x_max":1275,"o":"m 1275 465 q 1230 249 1275 340 q 1105 98 1184 157 q 918 10 1025 39 q 685 -18 810 -18 q 451 10 559 -18 q 262 98 342 39 q 137 249 182 157 q 92 465 92 340 q 113 617 92 549 q 172 739 134 685 q 263 832 210 793 q 384 898 317 871 q 526 936 450 924 q 685 949 602 949 q 918 920 810 949 q 1105 832 1025 892 q 1230 682 1184 773 q 1275 465 1275 591 m 1187 465 q 1155 640 1187 564 q 1060 768 1123 716 q 903 847 997 820 q 685 873 809 873 q 466 846 561 873 q 308 767 372 819 q 212 639 244 715 q 179 465 179 563 q 212 290 179 366 q 308 162 244 214 q 466 84 372 111 q 685 57 561 57 q 903 84 809 57 q 1060 162 997 111 q 1155 290 1123 214 q 1187 465 1187 366 m 730 1144 l 529 1018 l 493 1066 l 686 1211 l 730 1144 m 971 1144 l 770 1018 l 733 1066 l 926 1211 l 971 1144 z "},"ő":{"ha":1367,"x_min":92,"x_max":1275,"o":"m 1275 465 q 1230 249 1275 340 q 1105 98 1184 157 q 918 10 1025 39 q 685 -18 810 -18 q 451 10 559 -18 q 262 98 342 39 q 137 249 182 157 q 92 465 92 340 q 113 617 92 549 q 172 739 134 685 q 263 832 210 793 q 384 898 317 871 q 526 936 450 924 q 685 949 602 949 q 918 920 810 949 q 1105 832 1025 892 q 1230 682 1184 773 q 1275 465 1275 591 m 1187 465 q 1155 640 1187 564 q 1060 768 1123 716 q 903 847 997 820 q 685 873 809 873 q 466 846 561 873 q 308 767 372 819 q 212 639 244 715 q 179 465 179 563 q 212 290 179 366 q 308 162 244 214 q 466 84 372 111 q 685 57 561 57 q 903 84 809 57 q 1060 162 997 111 q 1155 290 1123 214 q 1187 465 1187 366 m 730 1144 l 529 1018 l 493 1066 l 686 1211 l 730 1144 m 971 1144 l 770 1018 l 733 1066 l 926 1211 l 971 1144 z "},"Œ":{"ha":1860,"x_min":92,"x_max":1754,"o":"m 968 0 q 897 -7 932 -3 q 826 -13 862 -10 q 751 -17 789 -16 q 671 -18 713 -18 q 445 10 551 -18 q 261 98 339 39 q 137 249 182 157 q 92 465 92 340 q 113 617 92 549 q 174 739 135 685 q 267 832 213 793 q 386 898 321 871 q 522 936 450 924 q 671 949 595 949 q 751 947 713 949 q 826 944 789 946 q 897 939 862 942 q 968 932 932 936 l 1744 932 l 1744 852 l 1060 852 l 1060 532 l 1710 532 l 1710 453 l 1060 453 l 1060 79 l 1754 79 l 1754 0 l 968 0 m 671 57 q 831 63 755 57 q 968 83 906 68 l 968 847 q 831 868 906 862 q 671 873 755 873 q 466 846 557 873 q 311 767 375 819 q 213 639 248 715 q 179 465 179 563 q 211 290 179 366 q 306 162 243 214 q 460 84 369 111 q 671 57 552 57 z "},"œ":{"ha":2346,"x_min":92,"x_max":2268,"o":"m 2192 49 q 2086 19 2134 31 q 1990 -2 2037 6 q 1893 -13 1942 -9 q 1785 -17 1844 -17 q 1596 1 1683 -17 q 1439 55 1509 20 q 1316 140 1369 90 q 1232 254 1264 190 q 1146 133 1200 184 q 1021 48 1092 81 q 865 -2 950 14 q 685 -18 779 -18 q 451 10 559 -18 q 262 98 342 39 q 137 249 182 157 q 92 465 92 340 q 113 617 92 549 q 172 739 134 685 q 263 832 210 793 q 384 898 317 871 q 526 936 450 924 q 685 949 602 949 q 867 932 781 949 q 1024 881 953 916 q 1149 794 1095 846 q 1235 669 1203 741 q 1315 782 1266 732 q 1429 868 1364 833 q 1571 923 1493 904 q 1737 942 1649 942 q 1963 908 1864 942 q 2130 811 2062 874 q 2233 658 2197 748 q 2268 456 2268 568 l 2268 435 l 1275 435 q 1318 278 1282 348 q 1420 159 1354 208 q 1583 84 1487 111 q 1808 58 1680 58 q 1920 66 1863 58 q 2028 86 1976 73 q 2122 114 2079 98 q 2192 147 2165 130 l 2192 49 m 1187 465 q 1155 640 1187 564 q 1060 768 1123 716 q 903 847 997 820 q 685 873 809 873 q 466 846 561 873 q 308 767 372 819 q 212 639 244 715 q 179 465 179 563 q 212 290 179 366 q 308 162 244 214 q 466 84 372 111 q 685 57 561 57 q 903 84 809 57 q 1060 162 997 111 q 1155 290 1123 214 q 1187 465 1187 366 m 2185 509 q 2153 645 2180 580 q 2072 759 2126 709 q 1935 838 2018 808 q 1736 867 1852 867 q 1545 838 1627 867 q 1406 759 1463 808 q 1316 645 1349 710 q 1275 509 1284 581 l 2185 509 z "},"Ŕ":{"ha":1157,"x_min":157,"x_max":1107,"o":"m 241 399 l 241 0 l 157 0 l 157 932 l 621 932 q 803 915 727 932 q 927 865 879 899 q 998 781 976 831 q 1021 664 1021 731 q 966 497 1021 559 q 789 411 911 434 l 1107 0 l 1000 0 l 700 401 q 661 399 681 400 q 621 399 642 399 l 241 399 m 933 664 q 912 761 933 724 q 844 818 891 798 q 719 845 796 838 q 530 852 642 852 l 241 852 l 241 478 l 528 478 q 717 485 640 478 q 842 511 794 491 q 912 567 890 531 q 933 664 933 604 m 768 1144 l 470 1018 l 444 1071 l 734 1215 l 768 1144 z "},"ŕ":{"ha":847,"x_min":157,"x_max":847,"o":"m 847 860 q 792 873 827 866 q 703 880 758 880 q 560 862 627 880 q 436 811 493 843 q 330 737 378 779 q 241 647 281 694 l 241 0 l 157 0 l 157 932 l 241 932 l 241 742 q 340 828 287 789 q 452 896 393 867 q 576 940 511 924 q 710 956 641 956 q 753 955 734 956 q 788 952 772 954 q 818 948 804 950 q 847 943 832 946 l 847 860 l 847 860 m 704 1144 l 406 1018 l 379 1071 l 669 1215 l 704 1144 z "},"Ŗ":{"ha":1157,"x_min":157,"x_max":1107,"o":"m 241 399 l 241 0 l 157 0 l 157 932 l 621 932 q 803 915 727 932 q 927 865 879 899 q 998 781 976 831 q 1021 664 1021 731 q 966 497 1021 559 q 789 411 911 434 l 1107 0 l 1000 0 l 700 401 q 661 399 681 400 q 621 399 642 399 l 241 399 m 933 664 q 912 761 933 724 q 844 818 891 798 q 719 845 796 838 q 530 852 642 852 l 241 852 l 241 478 l 528 478 q 717 485 640 478 q 842 511 794 491 q 912 567 890 531 q 933 664 933 604 m 583 -282 l 515 -282 l 541 -97 l 639 -97 l 583 -282 z "},"ŗ":{"ha":847,"x_min":139,"x_max":847,"o":"m 847 860 q 792 873 827 866 q 703 880 758 880 q 560 862 627 880 q 436 811 493 843 q 330 737 378 779 q 241 647 281 694 l 241 0 l 157 0 l 157 932 l 241 932 l 241 742 q 340 828 287 789 q 452 896 393 867 q 576 940 511 924 q 710 956 641 956 q 753 955 734 956 q 788 952 772 954 q 818 948 804 950 q 847 943 832 946 l 847 860 l 847 860 m 208 -282 l 139 -282 l 165 -97 l 263 -97 l 208 -282 z "},"Ř":{"ha":1157,"x_min":157,"x_max":1107,"o":"m 241 399 l 241 0 l 157 0 l 157 932 l 621 932 q 803 915 727 932 q 927 865 879 899 q 998 781 976 831 q 1021 664 1021 731 q 966 497 1021 559 q 789 411 911 434 l 1107 0 l 1000 0 l 700 401 q 661 399 681 400 q 621 399 642 399 l 241 399 m 933 664 q 912 761 933 724 q 844 818 891 798 q 719 845 796 838 q 530 852 642 852 l 241 852 l 241 478 l 528 478 q 717 485 640 478 q 842 511 794 491 q 912 567 890 531 q 933 664 933 604 m 791 1166 l 528 1018 l 266 1166 l 292 1215 l 528 1107 l 764 1215 l 791 1166 z "},"ř":{"ha":847,"x_min":157,"x_max":847,"o":"m 847 860 q 792 873 827 866 q 703 880 758 880 q 560 862 627 880 q 436 811 493 843 q 330 737 378 779 q 241 647 281 694 l 241 0 l 157 0 l 157 932 l 241 932 l 241 742 q 340 828 287 789 q 452 896 393 867 q 576 940 511 924 q 710 956 641 956 q 753 955 734 956 q 788 952 772 954 q 818 948 804 950 q 847 943 832 946 l 847 860 l 847 860 m 726 1166 l 464 1018 l 201 1166 l 228 1215 l 464 1107 l 700 1215 l 726 1166 z "},"Ś":{"ha":1093,"x_min":113,"x_max":987,"o":"m 909 794 q 848 822 883 807 q 769 848 814 836 q 669 867 725 859 q 546 875 614 875 q 400 865 464 875 q 291 836 336 856 q 223 785 247 816 q 200 713 200 755 q 222 651 200 677 q 282 604 244 625 q 370 567 319 584 q 477 536 420 551 q 594 507 534 522 q 710 474 654 492 q 818 436 767 457 q 906 386 868 414 q 965 321 943 357 q 987 236 987 284 q 968 145 987 184 q 915 78 948 106 q 836 31 881 50 q 740 1 791 12 q 634 -14 688 -9 q 526 -18 579 -18 q 306 -1 405 -18 q 118 47 208 17 l 118 151 q 313 76 210 96 q 529 56 416 56 q 677 65 609 56 q 794 95 745 75 q 871 149 844 116 q 899 231 899 182 q 877 298 899 269 q 817 350 854 328 q 729 389 779 372 q 622 420 678 406 q 506 449 566 435 q 389 479 446 463 q 282 515 333 495 q 194 563 232 536 q 135 627 157 591 q 113 710 113 663 q 130 793 113 757 q 179 856 148 829 q 251 900 210 882 q 339 929 292 918 q 437 944 387 939 q 538 949 488 949 q 641 944 592 949 q 734 931 689 939 q 822 913 779 924 q 909 892 865 903 l 909 794 m 778 1144 l 479 1018 l 453 1071 l 743 1215 l 778 1144 z "},"ś":{"ha":1093,"x_min":113,"x_max":987,"o":"m 909 794 q 848 822 883 807 q 769 848 814 836 q 669 867 725 859 q 546 875 614 875 q 400 865 464 875 q 291 836 336 856 q 223 785 247 816 q 200 713 200 755 q 222 651 200 677 q 282 604 244 625 q 370 567 319 584 q 477 536 420 551 q 594 507 534 522 q 710 474 654 492 q 818 436 767 457 q 906 386 868 414 q 965 321 943 357 q 987 236 987 284 q 968 145 987 184 q 915 78 948 106 q 836 31 881 50 q 740 1 791 12 q 634 -14 688 -9 q 526 -18 579 -18 q 306 -1 405 -18 q 118 47 208 17 l 118 151 q 313 76 210 96 q 529 56 416 56 q 677 65 609 56 q 794 95 745 75 q 871 149 844 116 q 899 231 899 182 q 877 298 899 269 q 817 350 854 328 q 729 389 779 372 q 622 420 678 406 q 506 449 566 435 q 389 479 446 463 q 282 515 333 495 q 194 563 232 536 q 135 627 157 591 q 113 710 113 663 q 130 793 113 757 q 179 856 148 829 q 251 900 210 882 q 339 929 292 918 q 437 944 387 939 q 538 949 488 949 q 641 944 592 949 q 734 931 689 939 q 822 913 779 924 q 909 892 865 903 l 909 794 m 778 1144 l 479 1018 l 453 1071 l 743 1215 l 778 1144 z "},"Ŝ":{"ha":1093,"x_min":113,"x_max":987,"o":"m 909 794 q 848 822 883 807 q 769 848 814 836 q 669 867 725 859 q 546 875 614 875 q 400 865 464 875 q 291 836 336 856 q 223 785 247 816 q 200 713 200 755 q 222 651 200 677 q 282 604 244 625 q 370 567 319 584 q 477 536 420 551 q 594 507 534 522 q 710 474 654 492 q 818 436 767 457 q 906 386 868 414 q 965 321 943 357 q 987 236 987 284 q 968 145 987 184 q 915 78 948 106 q 836 31 881 50 q 740 1 791 12 q 634 -14 688 -9 q 526 -18 579 -18 q 306 -1 405 -18 q 118 47 208 17 l 118 151 q 313 76 210 96 q 529 56 416 56 q 677 65 609 56 q 794 95 745 75 q 871 149 844 116 q 899 231 899 182 q 877 298 899 269 q 817 350 854 328 q 729 389 779 372 q 622 420 678 406 q 506 449 566 435 q 389 479 446 463 q 282 515 333 495 q 194 563 232 536 q 135 627 157 591 q 113 710 113 663 q 130 793 113 757 q 179 856 148 829 q 251 900 210 882 q 339 929 292 918 q 437 944 387 939 q 538 949 488 949 q 641 944 592 949 q 734 931 689 939 q 822 913 779 924 q 909 892 865 903 l 909 794 m 774 1018 l 538 1126 l 302 1018 l 275 1066 l 538 1215 l 800 1066 l 774 1018 z "},"ŝ":{"ha":1093,"x_min":113,"x_max":987,"o":"m 909 794 q 848 822 883 807 q 769 848 814 836 q 669 867 725 859 q 546 875 614 875 q 400 865 464 875 q 291 836 336 856 q 223 785 247 816 q 200 713 200 755 q 222 651 200 677 q 282 604 244 625 q 370 567 319 584 q 477 536 420 551 q 594 507 534 522 q 710 474 654 492 q 818 436 767 457 q 906 386 868 414 q 965 321 943 357 q 987 236 987 284 q 968 145 987 184 q 915 78 948 106 q 836 31 881 50 q 740 1 791 12 q 634 -14 688 -9 q 526 -18 579 -18 q 306 -1 405 -18 q 118 47 208 17 l 118 151 q 313 76 210 96 q 529 56 416 56 q 677 65 609 56 q 794 95 745 75 q 871 149 844 116 q 899 231 899 182 q 877 298 899 269 q 817 350 854 328 q 729 389 779 372 q 622 420 678 406 q 506 449 566 435 q 389 479 446 463 q 282 515 333 495 q 194 563 232 536 q 135 627 157 591 q 113 710 113 663 q 130 793 113 757 q 179 856 148 829 q 251 900 210 882 q 339 929 292 918 q 437 944 387 939 q 538 949 488 949 q 641 944 592 949 q 734 931 689 939 q 822 913 779 924 q 909 892 865 903 l 909 794 m 774 1018 l 538 1126 l 302 1018 l 275 1066 l 538 1215 l 800 1066 l 774 1018 z "},"Ş":{"ha":1093,"x_min":113,"x_max":987,"o":"m 558 -66 q 614 -71 588 -66 q 660 -87 640 -76 q 690 -117 679 -98 q 701 -164 701 -136 q 689 -215 701 -195 q 654 -249 676 -236 q 600 -267 631 -261 q 532 -272 569 -272 q 456 -266 493 -272 q 390 -254 420 -260 l 390 -186 q 456 -204 420 -197 q 526 -211 492 -211 q 574 -208 555 -211 q 606 -198 594 -204 q 623 -183 618 -192 q 628 -164 628 -174 q 621 -142 628 -151 q 603 -129 614 -134 q 577 -121 591 -123 q 546 -119 562 -119 q 510 -120 528 -119 q 476 -123 492 -121 l 515 -18 q 306 -1 400 -18 q 118 47 208 17 l 118 151 q 313 76 210 96 q 529 56 416 56 q 677 65 609 56 q 794 95 745 75 q 871 149 844 116 q 899 231 899 182 q 877 298 899 269 q 817 350 854 328 q 729 389 779 372 q 622 420 678 406 q 506 449 566 435 q 389 479 446 463 q 282 515 333 495 q 194 563 232 536 q 135 627 157 591 q 113 710 113 663 q 130 793 113 757 q 179 856 148 829 q 251 900 210 882 q 339 929 292 918 q 437 944 387 939 q 538 949 488 949 q 641 944 592 949 q 734 931 689 939 q 822 913 779 924 q 909 892 865 903 l 909 794 q 848 822 883 807 q 769 848 814 836 q 669 867 725 859 q 546 875 614 875 q 400 865 464 875 q 291 836 336 856 q 223 785 247 816 q 200 713 200 755 q 222 651 200 677 q 282 604 244 625 q 370 567 319 584 q 477 536 420 551 q 594 507 534 522 q 710 474 654 492 q 818 436 767 457 q 906 386 868 414 q 965 321 943 357 q 987 236 987 284 q 968 145 987 184 q 915 78 948 106 q 836 31 881 50 q 740 1 791 12 q 633 -14 688 -9 q 576 -17 605 -16 l 558 -66 z "},"ş":{"ha":1093,"x_min":113,"x_max":987,"o":"m 558 -66 q 614 -71 588 -66 q 660 -87 640 -76 q 690 -117 679 -98 q 701 -164 701 -136 q 689 -215 701 -195 q 654 -249 676 -236 q 600 -267 631 -261 q 532 -272 569 -272 q 456 -266 493 -272 q 390 -254 420 -260 l 390 -186 q 456 -204 420 -197 q 526 -211 492 -211 q 574 -208 555 -211 q 606 -198 594 -204 q 623 -183 618 -192 q 628 -164 628 -174 q 621 -142 628 -151 q 603 -129 614 -134 q 577 -121 591 -123 q 546 -119 562 -119 q 510 -120 528 -119 q 476 -123 492 -121 l 515 -18 q 306 -1 400 -18 q 118 47 208 17 l 118 151 q 313 76 210 96 q 529 56 416 56 q 677 65 609 56 q 794 95 745 75 q 871 149 844 116 q 899 231 899 182 q 877 298 899 269 q 817 350 854 328 q 729 389 779 372 q 622 420 678 406 q 506 449 566 435 q 389 479 446 463 q 282 515 333 495 q 194 563 232 536 q 135 627 157 591 q 113 710 113 663 q 130 793 113 757 q 179 856 148 829 q 251 900 210 882 q 339 929 292 918 q 437 944 387 939 q 538 949 488 949 q 641 944 592 949 q 734 931 689 939 q 822 913 779 924 q 909 892 865 903 l 909 794 q 848 822 883 807 q 769 848 814 836 q 669 867 725 859 q 546 875 614 875 q 400 865 464 875 q 291 836 336 856 q 223 785 247 816 q 200 713 200 755 q 222 651 200 677 q 282 604 244 625 q 370 567 319 584 q 477 536 420 551 q 594 507 534 522 q 710 474 654 492 q 818 436 767 457 q 906 386 868 414 q 965 321 943 357 q 987 236 987 284 q 968 145 987 184 q 915 78 948 106 q 836 31 881 50 q 740 1 791 12 q 633 -14 688 -9 q 576 -17 605 -16 l 558 -66 z "},"Š":{"ha":1093,"x_min":113,"x_max":987,"o":"m 909 794 q 848 822 883 807 q 769 848 814 836 q 669 867 725 859 q 546 875 614 875 q 400 865 464 875 q 291 836 336 856 q 223 785 247 816 q 200 713 200 755 q 222 651 200 677 q 282 604 244 625 q 370 567 319 584 q 477 536 420 551 q 594 507 534 522 q 710 474 654 492 q 818 436 767 457 q 906 386 868 414 q 965 321 943 357 q 987 236 987 284 q 968 145 987 184 q 915 78 948 106 q 836 31 881 50 q 740 1 791 12 q 634 -14 688 -9 q 526 -18 579 -18 q 306 -1 405 -18 q 118 47 208 17 l 118 151 q 313 76 210 96 q 529 56 416 56 q 677 65 609 56 q 794 95 745 75 q 871 149 844 116 q 899 231 899 182 q 877 298 899 269 q 817 350 854 328 q 729 389 779 372 q 622 420 678 406 q 506 449 566 435 q 389 479 446 463 q 282 515 333 495 q 194 563 232 536 q 135 627 157 591 q 113 710 113 663 q 130 793 113 757 q 179 856 148 829 q 251 900 210 882 q 339 929 292 918 q 437 944 387 939 q 538 949 488 949 q 641 944 592 949 q 734 931 689 939 q 822 913 779 924 q 909 892 865 903 l 909 794 m 800 1166 l 538 1018 l 275 1166 l 302 1215 l 538 1107 l 774 1215 l 800 1166 z "},"š":{"ha":1093,"x_min":113,"x_max":987,"o":"m 909 794 q 848 822 883 807 q 769 848 814 836 q 669 867 725 859 q 546 875 614 875 q 400 865 464 875 q 291 836 336 856 q 223 785 247 816 q 200 713 200 755 q 222 651 200 677 q 282 604 244 625 q 370 567 319 584 q 477 536 420 551 q 594 507 534 522 q 710 474 654 492 q 818 436 767 457 q 906 386 868 414 q 965 321 943 357 q 987 236 987 284 q 968 145 987 184 q 915 78 948 106 q 836 31 881 50 q 740 1 791 12 q 634 -14 688 -9 q 526 -18 579 -18 q 306 -1 405 -18 q 118 47 208 17 l 118 151 q 313 76 210 96 q 529 56 416 56 q 677 65 609 56 q 794 95 745 75 q 871 149 844 116 q 899 231 899 182 q 877 298 899 269 q 817 350 854 328 q 729 389 779 372 q 622 420 678 406 q 506 449 566 435 q 389 479 446 463 q 282 515 333 495 q 194 563 232 536 q 135 627 157 591 q 113 710 113 663 q 130 793 113 757 q 179 856 148 829 q 251 900 210 882 q 339 929 292 918 q 437 944 387 939 q 538 949 488 949 q 641 944 592 949 q 734 931 689 939 q 822 913 779 924 q 909 892 865 903 l 909 794 m 800 1166 l 538 1018 l 275 1166 l 302 1215 l 538 1107 l 774 1215 l 800 1166 z "},"Ţ":{"ha":985,"x_min":26,"x_max":958,"o":"m 534 854 l 534 0 l 450 0 l 450 854 l 26 854 l 26 932 l 958 932 l 958 854 l 534 854 m 497 -282 l 429 -282 l 455 -97 l 553 -97 l 497 -282 z "},"ţ":{"ha":985,"x_min":26,"x_max":958,"o":"m 534 854 l 534 0 l 450 0 l 450 854 l 26 854 l 26 932 l 958 932 l 958 854 l 534 854 m 497 -282 l 429 -282 l 455 -97 l 553 -97 l 497 -282 z "},"Ť":{"ha":985,"x_min":26,"x_max":958,"o":"m 534 854 l 534 0 l 450 0 l 450 854 l 26 854 l 26 932 l 958 932 l 958 854 l 534 854 m 754 1166 l 492 1018 l 229 1166 l 256 1215 l 492 1107 l 728 1215 l 754 1166 z "},"ť":{"ha":985,"x_min":26,"x_max":958,"o":"m 534 854 l 534 0 l 450 0 l 450 854 l 26 854 l 26 932 l 958 932 l 958 854 l 534 854 m 755 1166 l 493 1018 l 231 1166 l 257 1215 l 493 1107 l 729 1215 l 755 1166 z "},"Ŧ":{"ha":985,"x_min":26,"x_max":958,"o":"m 534 854 l 534 572 l 861 572 l 861 496 l 534 496 l 534 0 l 450 0 l 450 496 l 123 496 l 123 572 l 450 572 l 450 854 l 26 854 l 26 932 l 958 932 l 958 854 l 534 854 z "},"ŧ":{"ha":985,"x_min":26,"x_max":958,"o":"m 534 854 l 534 572 l 861 572 l 861 496 l 534 496 l 534 0 l 450 0 l 450 496 l 123 496 l 123 572 l 450 572 l 450 854 l 26 854 l 26 932 l 958 932 l 958 854 l 534 854 z "},"Ũ":{"ha":1238,"x_min":149,"x_max":1089,"o":"m 1089 293 q 1060 166 1089 223 q 971 67 1030 109 q 825 4 913 26 q 619 -18 736 -18 q 414 4 502 -18 q 267 67 326 26 q 178 166 208 109 q 149 293 149 223 l 149 932 l 233 932 l 233 286 q 258 198 233 239 q 332 125 283 156 q 452 75 380 94 q 619 57 524 57 q 785 75 713 57 q 906 125 857 94 q 980 198 955 156 q 1004 286 1004 239 l 1004 932 l 1089 932 l 1089 293 l 1089 293 m 860 1173 q 855 1130 860 1156 q 836 1080 850 1104 q 797 1040 821 1057 q 732 1023 772 1023 q 670 1036 701 1023 q 610 1064 639 1049 q 555 1093 581 1080 q 507 1105 529 1105 q 475 1095 487 1105 q 457 1071 463 1085 q 449 1044 451 1057 q 446 1023 447 1030 l 382 1023 q 387 1066 382 1040 q 407 1115 393 1091 q 446 1156 421 1139 q 511 1173 471 1173 q 567 1160 538 1173 q 626 1132 596 1147 q 683 1104 655 1117 q 735 1091 711 1091 q 767 1101 755 1091 q 785 1125 779 1112 q 793 1152 791 1139 q 796 1173 795 1166 l 860 1173 l 860 1173 z "},"ũ":{"ha":1293,"x_min":153,"x_max":1136,"o":"m 239 932 l 239 317 q 258 189 238 239 q 317 110 279 138 q 410 70 355 81 q 533 58 465 58 q 688 78 612 58 q 831 126 764 97 q 955 192 899 156 q 1050 261 1010 228 l 1050 932 l 1136 932 l 1136 0 l 1050 0 l 1050 164 q 946 101 1002 134 q 824 40 890 68 q 684 -5 759 13 q 526 -22 610 -22 q 362 1 432 -22 q 245 68 292 25 q 176 169 199 111 q 153 298 153 228 l 153 932 l 239 932 m 885 1173 q 880 1130 885 1156 q 861 1080 875 1104 q 822 1040 846 1057 q 758 1023 797 1023 q 695 1036 726 1023 q 635 1064 664 1049 q 580 1093 606 1080 q 532 1105 554 1105 q 500 1095 512 1105 q 482 1071 488 1085 q 474 1044 476 1057 q 471 1023 472 1030 l 407 1023 q 412 1066 407 1040 q 432 1115 418 1091 q 471 1156 446 1139 q 536 1173 496 1173 q 592 1160 563 1173 q 651 1132 621 1147 q 708 1104 680 1117 q 760 1091 736 1091 q 792 1101 781 1091 q 810 1125 804 1112 q 819 1152 817 1139 q 821 1173 821 1166 l 885 1173 l 885 1173 z "},"Ū":{"ha":1238,"x_min":149,"x_max":1089,"o":"m 1089 293 q 1060 166 1089 223 q 971 67 1030 109 q 825 4 913 26 q 619 -18 736 -18 q 414 4 502 -18 q 267 67 326 26 q 178 166 208 109 q 149 293 149 223 l 149 932 l 233 932 l 233 286 q 258 198 233 239 q 332 125 283 156 q 452 75 380 94 q 619 57 524 57 q 785 75 713 57 q 906 125 857 94 q 980 198 955 156 q 1004 286 1004 239 l 1004 932 l 1089 932 l 1089 293 l 1089 293 m 433 1038 l 433 1115 l 806 1115 l 806 1038 l 433 1038 z "},"ū":{"ha":1293,"x_min":153,"x_max":1136,"o":"m 239 932 l 239 317 q 258 189 238 239 q 317 110 279 138 q 410 70 355 81 q 533 58 465 58 q 688 78 612 58 q 831 126 764 97 q 955 192 899 156 q 1050 261 1010 228 l 1050 932 l 1136 932 l 1136 0 l 1050 0 l 1050 164 q 946 101 1002 134 q 824 40 890 68 q 684 -5 759 13 q 526 -22 610 -22 q 362 1 432 -22 q 245 68 292 25 q 176 169 199 111 q 153 298 153 228 l 153 932 l 239 932 m 458 1038 l 458 1115 l 831 1115 l 831 1038 l 458 1038 z "},"Ŭ":{"ha":1238,"x_min":149,"x_max":1089,"o":"m 1089 293 q 1060 166 1089 223 q 971 67 1030 109 q 825 4 913 26 q 619 -18 736 -18 q 414 4 502 -18 q 267 67 326 26 q 178 166 208 109 q 149 293 149 223 l 149 932 l 233 932 l 233 286 q 258 198 233 239 q 332 125 283 156 q 452 75 380 94 q 619 57 524 57 q 785 75 713 57 q 906 125 857 94 q 980 198 955 156 q 1004 286 1004 239 l 1004 932 l 1089 932 l 1089 293 l 1089 293 m 854 1187 q 833 1134 848 1162 q 791 1082 819 1105 q 723 1042 764 1058 q 620 1026 681 1026 q 517 1042 559 1026 q 448 1082 475 1058 q 406 1134 420 1105 q 385 1187 391 1162 l 464 1187 q 478 1159 468 1175 q 506 1129 488 1143 q 551 1105 524 1115 q 620 1095 579 1095 q 688 1105 660 1095 q 734 1129 715 1115 q 762 1159 752 1143 q 777 1187 772 1175 l 854 1187 l 854 1187 z "},"ŭ":{"ha":1293,"x_min":153,"x_max":1136,"o":"m 239 932 l 239 317 q 258 189 238 239 q 317 110 279 138 q 410 70 355 81 q 533 58 465 58 q 688 78 612 58 q 831 126 764 97 q 955 192 899 156 q 1050 261 1010 228 l 1050 932 l 1136 932 l 1136 0 l 1050 0 l 1050 164 q 946 101 1002 134 q 824 40 890 68 q 684 -5 759 13 q 526 -22 610 -22 q 362 1 432 -22 q 245 68 292 25 q 176 169 199 111 q 153 298 153 228 l 153 932 l 239 932 m 880 1187 q 859 1134 873 1162 q 817 1082 844 1105 q 748 1042 789 1058 q 645 1026 706 1026 q 542 1042 584 1026 q 473 1082 500 1058 q 431 1134 446 1105 q 410 1187 416 1162 l 489 1187 q 503 1159 493 1175 q 531 1129 513 1143 q 576 1105 549 1115 q 645 1095 604 1095 q 713 1105 685 1095 q 759 1129 741 1115 q 787 1159 777 1143 q 802 1187 798 1175 l 880 1187 l 880 1187 z "},"Ů":{"ha":1238,"x_min":149,"x_max":1089,"o":"m 1089 293 q 1060 166 1089 223 q 971 67 1030 109 q 825 4 913 26 q 619 -18 736 -18 q 414 4 502 -18 q 267 67 326 26 q 178 166 208 109 q 149 293 149 223 l 149 932 l 233 932 l 233 286 q 258 198 233 239 q 332 125 283 156 q 452 75 380 94 q 619 57 524 57 q 785 75 713 57 q 906 125 857 94 q 980 198 955 156 q 1004 286 1004 239 l 1004 932 l 1089 932 l 1089 293 l 1089 293 m 442 1129 q 455 1182 442 1158 q 491 1222 467 1206 q 547 1248 514 1239 q 620 1257 580 1257 q 692 1248 659 1257 q 748 1222 725 1239 q 785 1182 772 1206 q 798 1129 798 1158 q 785 1076 798 1099 q 748 1035 772 1052 q 692 1010 725 1019 q 620 1001 659 1001 q 547 1010 580 1001 q 491 1035 514 1019 q 455 1076 467 1052 q 442 1129 442 1099 m 511 1129 q 537 1082 511 1101 q 620 1063 562 1063 q 702 1082 677 1063 q 726 1129 726 1101 q 702 1175 726 1156 q 620 1194 677 1194 q 537 1175 562 1194 q 511 1129 511 1156 z "},"ů":{"ha":1293,"x_min":153,"x_max":1136,"o":"m 239 932 l 239 317 q 258 189 238 239 q 317 110 279 138 q 410 70 355 81 q 533 58 465 58 q 688 78 612 58 q 831 126 764 97 q 955 192 899 156 q 1050 261 1010 228 l 1050 932 l 1136 932 l 1136 0 l 1050 0 l 1050 164 q 946 101 1002 134 q 824 40 890 68 q 684 -5 759 13 q 526 -22 610 -22 q 362 1 432 -22 q 245 68 292 25 q 176 169 199 111 q 153 298 153 228 l 153 932 l 239 932 m 467 1129 q 480 1182 467 1158 q 516 1222 492 1206 q 572 1248 539 1239 q 645 1257 605 1257 q 717 1248 684 1257 q 773 1222 750 1239 q 810 1182 797 1206 q 823 1129 823 1158 q 810 1076 823 1099 q 773 1035 797 1052 q 717 1010 750 1019 q 645 1001 684 1001 q 572 1010 605 1001 q 516 1035 539 1019 q 480 1076 492 1052 q 467 1129 467 1099 m 536 1129 q 562 1082 536 1101 q 645 1063 587 1063 q 727 1082 702 1063 q 751 1129 751 1101 q 727 1175 751 1156 q 645 1194 702 1194 q 562 1175 587 1194 q 536 1129 536 1156 z "},"Ű":{"ha":1238,"x_min":149,"x_max":1089,"o":"m 1089 293 q 1060 166 1089 223 q 971 67 1030 109 q 825 4 913 26 q 619 -18 736 -18 q 414 4 502 -18 q 267 67 326 26 q 178 166 208 109 q 149 293 149 223 l 149 932 l 233 932 l 233 286 q 258 198 233 239 q 332 125 283 156 q 452 75 380 94 q 619 57 524 57 q 785 75 713 57 q 906 125 857 94 q 980 198 955 156 q 1004 286 1004 239 l 1004 932 l 1089 932 l 1089 293 l 1089 293 m 665 1144 l 464 1018 l 428 1066 l 621 1211 l 665 1144 m 906 1144 l 705 1018 l 668 1066 l 861 1211 l 906 1144 z "},"ű":{"ha":1293,"x_min":153,"x_max":1136,"o":"m 239 932 l 239 317 q 258 189 238 239 q 317 110 279 138 q 410 70 355 81 q 533 58 465 58 q 688 78 612 58 q 831 126 764 97 q 955 192 899 156 q 1050 261 1010 228 l 1050 932 l 1136 932 l 1136 0 l 1050 0 l 1050 164 q 946 101 1002 134 q 824 40 890 68 q 684 -5 759 13 q 526 -22 610 -22 q 362 1 432 -22 q 245 68 292 25 q 176 169 199 111 q 153 298 153 228 l 153 932 l 239 932 m 690 1144 l 489 1018 l 453 1066 l 646 1211 l 690 1144 m 931 1144 l 730 1018 l 693 1066 l 886 1211 l 931 1144 z "},"Ų":{"ha":1238,"x_min":149,"x_max":1089,"o":"m 1089 293 q 1062 170 1089 225 q 979 73 1034 114 q 842 9 924 33 q 650 -18 760 -15 q 619 -43 633 -31 q 594 -70 605 -56 q 576 -96 583 -83 q 570 -123 570 -110 q 595 -165 570 -152 q 667 -178 620 -178 q 730 -173 701 -178 q 789 -160 760 -168 l 789 -229 q 731 -237 761 -233 q 656 -241 701 -241 q 588 -236 618 -241 q 536 -217 557 -230 q 503 -185 515 -205 q 492 -139 492 -166 q 511 -75 492 -104 q 571 -17 530 -45 q 386 12 465 -12 q 254 77 307 37 q 175 172 201 117 q 149 293 149 227 l 149 932 l 233 932 l 233 286 q 258 198 233 239 q 332 125 283 156 q 452 75 380 94 q 619 57 524 57 q 785 75 713 57 q 906 125 857 94 q 980 198 955 156 q 1004 286 1004 239 l 1004 932 l 1089 932 l 1089 293 l 1089 293 z "},"ų":{"ha":1293,"x_min":153,"x_max":1227,"o":"m 239 932 l 239 317 q 258 189 238 239 q 317 110 279 138 q 410 70 355 81 q 533 58 465 58 q 688 78 612 58 q 831 126 764 97 q 955 192 899 156 q 1050 261 1010 228 l 1050 932 l 1136 932 l 1136 0 q 1085 -24 1108 -9 q 1044 -55 1061 -39 q 1018 -90 1027 -72 q 1008 -123 1008 -107 q 1034 -165 1008 -152 q 1105 -178 1059 -178 q 1169 -173 1139 -178 q 1227 -160 1199 -168 l 1227 -229 q 1170 -237 1200 -233 q 1095 -241 1139 -241 q 1026 -236 1057 -241 q 975 -217 996 -230 q 942 -185 954 -205 q 930 -139 930 -166 q 1050 7 930 -57 l 1050 164 q 946 101 1002 134 q 824 40 890 68 q 684 -5 759 13 q 526 -22 610 -22 q 362 1 432 -22 q 245 68 292 25 q 176 169 199 111 q 153 298 153 228 l 153 932 l 239 932 z "},"Ŵ":{"ha":1758,"x_min":52,"x_max":1707,"o":"m 936 932 l 1268 68 l 1613 932 l 1707 932 l 1332 0 l 1206 0 l 879 842 l 553 0 l 427 0 l 52 932 l 146 932 l 490 68 l 822 932 l 936 932 m 1114 1018 l 878 1126 l 642 1018 l 616 1066 l 878 1215 l 1141 1066 l 1114 1018 z "},"ŵ":{"ha":1758,"x_min":52,"x_max":1707,"o":"m 936 932 l 1268 68 l 1613 932 l 1707 932 l 1332 0 l 1206 0 l 879 842 l 553 0 l 427 0 l 52 932 l 146 932 l 490 68 l 822 932 l 936 932 m 1114 1018 l 878 1126 l 642 1018 l 616 1066 l 878 1215 l 1141 1066 l 1114 1018 z "},"Ŷ":{"ha":1060,"x_min":50,"x_max":1010,"o":"m 572 395 l 572 0 l 488 0 l 488 395 l 50 932 l 151 932 l 530 465 l 908 932 l 1010 932 l 572 395 m 767 1018 l 531 1126 l 295 1018 l 269 1066 l 531 1215 l 793 1066 l 767 1018 z "},"ŷ":{"ha":1265,"x_min":125,"x_max":1108,"o":"m 1108 340 q 1065 182 1108 249 q 948 71 1023 115 q 771 6 873 27 q 550 -16 669 -16 q 313 1 421 -16 q 125 47 205 18 l 125 146 q 214 112 168 127 q 313 84 260 96 q 424 66 365 73 q 553 60 484 60 q 736 78 650 60 q 885 133 821 97 q 985 220 948 168 q 1022 340 1022 273 l 1022 517 q 942 432 989 473 q 837 361 895 392 q 711 312 779 330 q 568 293 644 293 q 417 309 483 293 q 301 353 351 325 q 218 419 252 380 q 164 502 184 457 q 134 597 143 547 q 125 697 125 646 l 125 932 l 211 932 l 211 715 q 230 574 211 637 q 291 465 248 510 q 403 394 334 419 q 575 370 473 370 q 721 391 654 370 q 842 449 787 412 q 942 532 897 485 q 1022 632 987 580 l 1022 932 l 1108 932 l 1108 340 m 852 1018 l 616 1126 l 380 1018 l 353 1066 l 616 1215 l 878 1066 l 852 1018 z "},"Ÿ":{"ha":1060,"x_min":50,"x_max":1010,"o":"m 572 395 l 572 0 l 488 0 l 488 395 l 50 932 l 151 932 l 530 465 l 908 932 l 1010 932 l 572 395 m 345 1031 l 345 1132 l 445 1132 l 445 1031 l 345 1031 m 617 1031 l 617 1132 l 717 1132 l 717 1031 l 617 1031 z "},"Ź":{"ha":1011,"x_min":100,"x_max":921,"o":"m 100 0 l 100 69 l 775 852 l 118 852 l 118 932 l 907 932 l 907 886 l 211 79 l 921 79 l 921 0 l 100 0 m 755 1144 l 457 1018 l 431 1071 l 721 1215 l 755 1144 z "},"ź":{"ha":1011,"x_min":100,"x_max":921,"o":"m 100 0 l 100 69 l 775 852 l 118 852 l 118 932 l 907 932 l 907 886 l 211 79 l 921 79 l 921 0 l 100 0 m 755 1144 l 457 1018 l 431 1071 l 721 1215 l 755 1144 z "},"Ż":{"ha":1011,"x_min":100,"x_max":921,"o":"m 100 0 l 100 69 l 775 852 l 118 852 l 118 932 l 907 932 l 907 886 l 211 79 l 921 79 l 921 0 l 100 0 m 463 1031 l 463 1136 l 568 1136 l 568 1031 l 463 1031 z "},"ż":{"ha":1011,"x_min":100,"x_max":921,"o":"m 100 0 l 100 69 l 775 852 l 118 852 l 118 932 l 907 932 l 907 886 l 211 79 l 921 79 l 921 0 l 100 0 m 463 1031 l 463 1136 l 568 1136 l 568 1031 l 463 1031 z "},"Ž":{"ha":1011,"x_min":100,"x_max":921,"o":"m 100 0 l 100 69 l 775 852 l 118 852 l 118 932 l 907 932 l 907 886 l 211 79 l 921 79 l 921 0 l 100 0 m 778 1166 l 515 1018 l 253 1166 l 279 1215 l 515 1107 l 751 1215 l 778 1166 z "},"ž":{"ha":1011,"x_min":100,"x_max":921,"o":"m 100 0 l 100 69 l 775 852 l 118 852 l 118 932 l 907 932 l 907 886 l 211 79 l 921 79 l 921 0 l 100 0 m 778 1166 l 515 1018 l 253 1166 l 279 1215 l 515 1107 l 751 1215 l 778 1166 z "},"ƒ":{"ha":1161,"x_min":41,"x_max":1120,"o":"m 596 606 l 627 711 q 659 805 641 762 q 710 880 677 848 q 796 930 743 912 q 932 949 848 949 q 1028 941 981 949 q 1120 921 1075 933 l 1120 821 q 1087 840 1104 831 q 1048 858 1070 850 q 998 870 1027 865 q 930 875 969 875 q 834 862 871 875 q 773 827 797 850 q 737 773 750 805 q 713 703 724 741 l 685 606 l 903 606 l 903 533 l 664 533 l 579 253 q 552 171 566 210 q 520 98 538 132 q 478 38 503 64 q 421 -8 454 11 q 342 -37 387 -27 q 237 -47 297 -47 q 192 -45 216 -47 q 142 -39 168 -43 q 91 -29 117 -35 q 41 -16 66 -23 l 41 83 q 79 63 58 73 q 124 45 100 53 q 176 32 148 37 q 237 26 205 26 q 345 41 303 26 q 413 84 387 56 q 457 155 440 113 q 490 252 473 197 l 575 533 l 367 533 l 367 606 l 596 606 z "},"Ǽ":{"ha":1629,"x_min":0,"x_max":1524,"o":"m 737 0 l 737 244 l 272 244 l 111 0 l 0 0 l 631 932 l 1514 932 l 1514 852 l 829 852 l 829 532 l 1479 532 l 1479 453 l 829 453 l 829 79 l 1524 79 l 1524 0 l 737 0 m 323 323 l 737 323 l 737 852 l 673 852 l 323 323 m 1267 1144 l 968 1018 l 942 1071 l 1232 1215 l 1267 1144 z "},"ǽ":{"ha":2155,"x_min":85,"x_max":2078,"o":"m 2001 49 q 1895 19 1944 31 q 1800 -2 1847 6 q 1703 -13 1752 -9 q 1594 -17 1653 -17 q 1310 28 1433 -17 q 1109 157 1187 73 q 946 75 1023 109 q 792 21 868 41 q 638 -9 716 0 q 475 -18 561 -18 q 312 -2 384 -18 q 189 46 239 14 q 112 126 139 79 q 85 237 85 174 q 116 348 85 300 q 206 431 148 395 q 347 491 264 467 q 531 533 429 516 q 751 562 633 551 q 1000 581 869 573 l 1000 652 q 984 728 1000 695 q 939 786 968 762 q 870 828 909 811 q 785 854 831 844 q 689 869 739 865 q 587 873 638 873 q 463 867 519 873 q 357 848 406 860 q 264 821 309 836 q 174 787 219 805 l 174 886 q 375 930 268 911 q 602 949 481 949 q 767 936 689 949 q 906 896 844 923 q 1011 824 968 868 q 1072 718 1055 780 q 1156 812 1107 770 q 1265 882 1204 853 q 1396 927 1325 911 q 1547 942 1468 942 q 1773 908 1674 942 q 1940 811 1872 874 q 2043 658 2007 748 q 2078 456 2078 568 l 2078 435 l 1084 435 q 1128 278 1092 348 q 1230 159 1164 208 q 1393 84 1296 111 q 1618 58 1489 58 q 1730 66 1673 58 q 1837 86 1786 73 q 1931 114 1889 98 q 2001 147 1974 130 l 2001 49 m 501 57 q 685 73 599 57 q 841 114 770 90 q 967 168 912 139 q 1059 224 1022 197 q 997 460 997 325 q 997 483 997 471 q 999 504 998 494 q 623 469 779 492 q 366 414 466 447 q 219 339 266 382 q 172 241 172 296 q 195 162 172 197 q 260 104 218 127 q 364 69 303 81 q 501 57 425 57 m 1994 509 q 1963 645 1990 580 q 1882 759 1935 709 q 1745 838 1828 808 q 1546 867 1662 867 q 1354 838 1436 867 q 1215 759 1272 808 q 1126 645 1158 710 q 1084 509 1093 581 l 1994 509 m 1335 1144 l 1036 1018 l 1010 1071 l 1300 1215 l 1335 1144 z "},"Ǿ":{"ha":1367,"x_min":92,"x_max":1275,"o":"m 1275 465 q 1230 249 1275 340 q 1105 98 1184 157 q 918 10 1025 39 q 685 -18 810 -18 q 541 -8 609 -18 q 411 22 472 3 l 307 -123 l 220 -123 l 343 49 q 239 116 286 76 q 160 207 193 155 q 109 323 127 259 q 92 465 92 388 q 113 617 92 549 q 172 739 134 685 q 263 832 210 793 q 384 898 317 871 q 526 936 450 924 q 685 949 602 949 q 958 907 834 949 l 1064 1054 l 1150 1054 l 1025 880 q 1128 813 1082 852 q 1207 722 1175 774 q 1257 607 1240 671 q 1275 465 1275 543 m 913 844 q 685 873 817 873 q 466 846 561 873 q 308 767 372 819 q 212 639 244 715 q 179 465 179 563 q 232 249 179 337 q 389 113 284 161 l 464 216 l 913 844 m 457 86 q 685 57 553 57 q 903 84 809 57 q 1060 162 997 111 q 1155 290 1123 214 q 1187 465 1187 366 q 1136 681 1187 592 q 981 818 1084 769 l 905 714 l 457 86 m 926 1144 l 628 1018 l 602 1071 l 892 1215 l 926 1144 z "},"ǿ":{"ha":1367,"x_min":92,"x_max":1275,"o":"m 1275 465 q 1230 249 1275 340 q 1105 98 1184 157 q 918 10 1025 39 q 685 -18 810 -18 q 541 -8 609 -18 q 411 22 472 3 l 307 -123 l 220 -123 l 343 49 q 239 116 286 76 q 160 207 193 155 q 109 323 127 259 q 92 465 92 388 q 113 617 92 549 q 172 739 134 685 q 263 832 210 793 q 384 898 317 871 q 526 936 450 924 q 685 949 602 949 q 958 907 834 949 l 1064 1054 l 1150 1054 l 1025 880 q 1128 813 1082 852 q 1207 722 1175 774 q 1257 607 1240 671 q 1275 465 1275 543 m 913 844 q 685 873 817 873 q 466 846 561 873 q 308 767 372 819 q 212 639 244 715 q 179 465 179 563 q 232 249 179 337 q 389 113 284 161 l 464 216 l 913 844 m 457 86 q 685 57 553 57 q 903 84 809 57 q 1060 162 997 111 q 1155 290 1123 214 q 1187 465 1187 366 q 1136 681 1187 592 q 981 818 1084 769 l 905 714 l 457 86 m 926 1144 l 628 1018 l 602 1071 l 892 1215 l 926 1144 z "},"ȷ":{"ha":821,"x_min":0,"x_max":668,"o":"m 668 298 q 641 163 668 221 q 565 66 614 105 q 448 8 516 28 q 298 -11 380 -11 q 205 -6 248 -11 q 126 5 162 -2 q 59 19 90 12 q 0 35 28 27 l 0 122 q 59 101 28 111 q 127 83 90 91 q 213 70 165 75 q 321 65 260 65 q 424 80 376 65 q 507 125 471 96 q 563 197 543 155 q 583 294 583 239 l 583 932 l 668 932 l 668 298 z "},"ˆ":{"ha":733,"x_min":104,"x_max":629,"o":"m 603 772 l 367 880 l 131 772 l 104 821 l 367 970 l 629 821 l 603 772 z "},"ˇ":{"ha":733,"x_min":104,"x_max":629,"o":"m 629 921 l 367 772 l 104 921 l 131 970 l 367 861 l 603 970 l 629 921 z "},"˘":{"ha":733,"x_min":132,"x_max":602,"o":"m 602 942 q 581 888 595 917 q 538 836 566 860 q 470 797 511 812 q 367 781 428 781 q 264 797 306 781 q 195 836 222 812 q 153 888 168 860 q 132 942 138 917 l 211 942 q 225 914 215 930 q 253 884 235 898 q 298 860 271 869 q 367 850 326 850 q 435 860 407 850 q 481 884 463 869 q 509 914 499 898 q 524 942 519 930 l 602 942 l 602 942 z "},"˙":{"ha":733,"x_min":314,"x_max":419,"o":"m 314 786 l 314 890 l 419 890 l 419 786 l 314 786 z "},"˚":{"ha":733,"x_min":189,"x_max":545,"o":"m 189 884 q 202 937 189 913 q 238 977 214 960 q 294 1002 261 994 q 367 1011 327 1011 q 439 1002 406 1011 q 495 977 472 994 q 532 937 519 960 q 545 884 545 913 q 532 830 545 854 q 495 790 519 806 q 439 764 472 773 q 367 755 406 755 q 294 764 327 755 q 238 790 261 773 q 202 830 214 806 q 189 884 189 854 m 258 884 q 284 837 258 856 q 367 818 309 818 q 449 837 424 818 q 473 884 473 856 q 449 930 473 911 q 367 949 424 949 q 284 930 309 949 q 258 884 258 911 z "},"˛":{"ha":733,"x_min":212,"x_max":510,"o":"m 418 14 q 373 -16 396 0 q 332 -51 351 -33 q 302 -87 314 -68 q 290 -123 290 -105 q 315 -165 290 -152 q 387 -178 340 -178 q 451 -173 421 -178 q 510 -160 481 -168 l 510 -229 q 451 -237 481 -233 q 376 -241 421 -241 q 309 -236 339 -241 q 257 -217 278 -230 q 224 -185 235 -205 q 212 -139 212 -166 q 245 -58 212 -95 q 345 14 277 -21 l 418 14 z "},"˜":{"ha":733,"x_min":127,"x_max":606,"o":"m 606 928 q 601 884 606 910 q 581 835 595 859 q 542 794 567 811 q 478 778 517 778 q 415 791 446 778 q 356 819 385 804 q 301 847 327 834 q 253 860 275 860 q 221 850 233 860 q 203 826 209 840 q 195 798 197 812 q 192 778 193 785 l 127 778 q 133 820 127 795 q 153 870 138 846 q 192 911 167 894 q 257 928 217 928 q 313 915 283 928 q 371 887 342 902 q 429 859 401 871 q 481 846 456 846 q 513 856 501 846 q 531 880 525 866 q 539 907 537 893 q 542 928 541 920 l 606 928 l 606 928 z "},"˝":{"ha":733,"x_min":175,"x_max":653,"o":"m 412 899 l 211 772 l 175 821 l 368 965 l 412 899 m 653 899 l 452 772 l 415 821 l 608 965 l 653 899 z "},"̦":{"ha":733,"x_min":302,"x_max":427,"o":"m 371 -282 l 302 -282 l 329 -97 l 427 -97 l 371 -282 z "},"μ":{"ha":979,"x_min":46,"x_max":850,"o":"m 310 650 l 227 218 q 250 153 235 182 q 287 101 265 123 q 336 68 308 80 q 401 57 365 57 q 494 74 452 57 q 571 117 536 90 q 635 178 606 144 q 688 245 664 212 l 765 650 l 850 650 l 772 245 q 765 195 767 217 q 762 153 762 172 q 765 110 762 130 q 771 73 767 91 q 781 38 775 56 q 791 0 786 20 l 707 0 q 689 66 697 31 q 681 154 681 102 q 625 94 654 124 q 561 39 596 64 q 483 0 525 15 q 387 -16 440 -16 q 277 21 325 -16 q 207 119 230 58 l 131 -278 l 46 -278 l 225 650 l 310 650 z "},"Ẁ":{"ha":1758,"x_min":52,"x_max":1707,"o":"m 936 932 l 1268 68 l 1613 932 l 1707 932 l 1332 0 l 1206 0 l 879 842 l 553 0 l 427 0 l 52 932 l 146 932 l 490 68 l 822 932 l 936 932 m 673 1215 l 964 1071 l 937 1018 l 637 1144 l 673 1215 z "},"ẁ":{"ha":1758,"x_min":52,"x_max":1707,"o":"m 936 932 l 1268 68 l 1613 932 l 1707 932 l 1332 0 l 1206 0 l 879 842 l 553 0 l 427 0 l 52 932 l 146 932 l 490 68 l 822 932 l 936 932 m 673 1215 l 964 1071 l 937 1018 l 637 1144 l 673 1215 z "},"Ẃ":{"ha":1758,"x_min":52,"x_max":1707,"o":"m 936 932 l 1268 68 l 1613 932 l 1707 932 l 1332 0 l 1206 0 l 879 842 l 553 0 l 427 0 l 52 932 l 146 932 l 490 68 l 822 932 l 936 932 m 1118 1144 l 820 1018 l 793 1071 l 1084 1215 l 1118 1144 z "},"ẃ":{"ha":1758,"x_min":52,"x_max":1707,"o":"m 936 932 l 1268 68 l 1613 932 l 1707 932 l 1332 0 l 1206 0 l 879 842 l 553 0 l 427 0 l 52 932 l 146 932 l 490 68 l 822 932 l 936 932 m 1118 1144 l 820 1018 l 793 1071 l 1084 1215 l 1118 1144 z "},"Ẅ":{"ha":1758,"x_min":52,"x_max":1707,"o":"m 936 932 l 1268 68 l 1613 932 l 1707 932 l 1332 0 l 1206 0 l 879 842 l 553 0 l 427 0 l 52 932 l 146 932 l 490 68 l 822 932 l 936 932 m 692 1031 l 692 1132 l 792 1132 l 792 1031 l 692 1031 m 964 1031 l 964 1132 l 1064 1132 l 1064 1031 l 964 1031 z "},"ẅ":{"ha":1758,"x_min":52,"x_max":1707,"o":"m 936 932 l 1268 68 l 1613 932 l 1707 932 l 1332 0 l 1206 0 l 879 842 l 553 0 l 427 0 l 52 932 l 146 932 l 490 68 l 822 932 l 936 932 m 692 1031 l 692 1132 l 792 1132 l 792 1031 l 692 1031 m 964 1031 l 964 1132 l 1064 1132 l 1064 1031 l 964 1031 z "},"Ỳ":{"ha":1060,"x_min":50,"x_max":1010,"o":"m 572 395 l 572 0 l 488 0 l 488 395 l 50 932 l 151 932 l 530 465 l 908 932 l 1010 932 l 572 395 m 326 1215 l 617 1071 l 589 1018 l 290 1144 l 326 1215 z "},"ỳ":{"ha":1265,"x_min":125,"x_max":1108,"o":"m 1108 340 q 1065 182 1108 249 q 948 71 1023 115 q 771 6 873 27 q 550 -16 669 -16 q 313 1 421 -16 q 125 47 205 18 l 125 146 q 214 112 168 127 q 313 84 260 96 q 424 66 365 73 q 553 60 484 60 q 736 78 650 60 q 885 133 821 97 q 985 220 948 168 q 1022 340 1022 273 l 1022 517 q 942 432 989 473 q 837 361 895 392 q 711 312 779 330 q 568 293 644 293 q 417 309 483 293 q 301 353 351 325 q 218 419 252 380 q 164 502 184 457 q 134 597 143 547 q 125 697 125 646 l 125 932 l 211 932 l 211 715 q 230 574 211 637 q 291 465 248 510 q 403 394 334 419 q 575 370 473 370 q 721 391 654 370 q 842 449 787 412 q 942 532 897 485 q 1022 632 987 580 l 1022 932 l 1108 932 l 1108 340 m 410 1215 l 702 1071 l 674 1018 l 375 1144 l 410 1215 z "},"–":{"ha":583,"x_min":28,"x_max":555,"o":"m 28 428 l 28 503 l 555 503 l 555 428 l 28 428 z "},"—":{"ha":1389,"x_min":0,"x_max":1389,"o":"m 0 428 l 0 503 l 1389 503 l 1389 428 l 0 428 z "},"‘":{"ha":227,"x_min":41,"x_max":184,"o":"m 41 688 l 117 932 l 184 932 l 139 688 l 41 688 z "},"’":{"ha":227,"x_min":41,"x_max":184,"o":"m 110 688 l 41 688 l 87 932 l 184 932 l 110 688 z "},"‚":{"ha":227,"x_min":41,"x_max":184,"o":"m 110 -125 l 41 -125 l 87 119 l 184 119 l 110 -125 z "},"“":{"ha":421,"x_min":41,"x_max":379,"o":"m 41 688 l 117 932 l 184 932 l 139 688 l 41 688 m 236 688 l 311 932 l 379 932 l 334 688 l 236 688 z "},"”":{"ha":421,"x_min":41,"x_max":379,"o":"m 379 932 l 304 688 l 236 688 l 282 932 l 379 932 m 184 932 l 110 688 l 41 688 l 87 932 l 184 932 z "},"„":{"ha":421,"x_min":41,"x_max":379,"o":"m 379 119 l 304 -125 l 236 -125 l 282 119 l 379 119 m 184 119 l 110 -125 l 41 -125 l 87 119 l 184 119 z "},"†":{"ha":694,"x_min":125,"x_max":570,"o":"m 125 682 l 306 682 l 306 932 l 389 932 l 389 682 l 570 682 l 570 604 l 389 604 l 389 -16 l 306 -16 l 306 604 l 125 604 l 125 682 z "},"‡":{"ha":694,"x_min":125,"x_max":570,"o":"m 125 682 l 306 682 l 306 932 l 389 932 l 389 682 l 570 682 l 570 604 l 389 604 l 389 390 l 570 390 l 570 313 l 389 313 l 389 -16 l 306 -16 l 306 313 l 125 313 l 125 390 l 306 390 l 306 604 l 125 604 l 125 682 z "},"•":{"ha":489,"x_min":111,"x_max":378,"o":"m 111 479 q 122 531 111 507 q 150 573 132 555 q 192 602 168 591 q 244 612 216 612 q 296 602 272 612 q 339 573 321 591 q 367 531 357 555 q 378 479 378 507 q 367 427 378 452 q 339 385 357 403 q 296 356 321 367 q 244 346 272 346 q 192 356 216 346 q 150 385 168 367 q 122 427 132 403 q 111 479 111 452 z "},"…":{"ha":771,"x_min":69,"x_max":701,"o":"m 69 0 l 69 147 l 187 147 l 187 0 l 69 0 m 326 0 l 326 147 l 444 147 l 444 0 l 326 0 m 583 0 l 583 147 l 701 147 l 701 0 l 583 0 z "},"‰":{"ha":1947,"x_min":69,"x_max":1878,"o":"m 335 0 l 243 0 l 987 932 l 1078 932 l 335 0 m 1253 220 q 1231 121 1253 165 q 1173 46 1210 77 q 1088 -2 1137 15 q 987 -18 1040 -18 q 887 -2 935 -18 q 803 46 839 15 q 745 121 766 77 q 724 220 724 165 q 745 319 724 275 q 803 394 766 363 q 887 441 839 425 q 987 457 935 457 q 1088 441 1040 457 q 1173 394 1137 425 q 1231 319 1210 363 q 1253 220 1253 275 m 1173 220 q 1160 287 1173 256 q 1124 342 1148 319 q 1066 380 1101 366 q 987 393 1031 393 q 909 380 943 393 q 851 342 875 366 q 816 287 828 319 q 804 220 804 256 q 816 152 804 184 q 851 97 828 121 q 909 60 875 74 q 987 46 943 46 q 1066 60 1031 46 q 1124 97 1101 74 q 1160 152 1148 121 q 1173 220 1173 184 m 599 711 q 577 613 599 656 q 519 538 555 569 q 435 490 483 507 q 334 473 387 473 q 233 490 281 473 q 149 538 185 507 q 91 613 113 569 q 69 711 69 656 q 91 811 69 767 q 149 886 113 855 q 233 932 185 916 q 334 949 281 949 q 435 932 387 949 q 519 886 483 916 q 577 811 555 855 q 599 711 599 767 m 518 711 q 506 779 518 747 q 470 834 494 810 q 412 871 447 858 q 334 885 378 885 q 255 871 289 885 q 197 834 220 858 q 162 779 174 810 q 150 711 150 747 q 162 644 150 675 q 197 589 174 612 q 255 552 220 566 q 334 538 289 538 q 412 552 378 538 q 470 589 447 566 q 506 644 494 612 q 518 711 518 675 m 1878 220 q 1856 121 1878 165 q 1799 46 1835 77 q 1714 -2 1762 15 q 1613 -18 1666 -18 q 1512 -2 1560 -18 q 1428 46 1464 15 q 1370 121 1392 77 q 1349 220 1349 165 q 1370 319 1349 275 q 1428 394 1392 363 q 1512 441 1464 425 q 1613 457 1560 457 q 1714 441 1666 457 q 1799 394 1762 425 q 1856 319 1835 363 q 1878 220 1878 275 m 1797 220 q 1785 287 1797 256 q 1749 342 1773 319 q 1691 380 1726 366 q 1613 393 1657 393 q 1534 380 1569 393 q 1477 342 1500 366 q 1441 287 1453 319 q 1429 220 1429 256 q 1441 152 1429 184 q 1477 97 1453 121 q 1534 60 1500 74 q 1613 46 1569 46 q 1691 60 1657 46 q 1749 97 1726 74 q 1785 152 1773 121 q 1797 220 1797 184 z "},"‹":{"ha":358,"x_min":56,"x_max":307,"o":"m 56 435 l 56 496 l 249 724 l 307 673 l 134 465 l 307 257 l 249 207 l 56 435 z "},"›":{"ha":358,"x_min":56,"x_max":307,"o":"m 114 207 l 56 257 l 229 465 l 56 673 l 114 724 l 307 496 l 307 435 l 114 207 z "},"⁄":{"ha":278,"x_min":-278,"x_max":555,"o":"m -186 0 l -278 0 l 465 932 l 555 932 l -186 0 z "},"€":{"ha":1157,"x_min":37,"x_max":1051,"o":"m 61 606 l 193 606 q 259 752 214 688 q 367 860 303 816 q 512 926 431 903 q 686 949 593 949 q 797 942 747 949 q 889 924 846 935 q 971 896 932 912 q 1051 861 1010 880 l 1051 741 q 978 797 1019 772 q 891 839 937 822 q 793 866 844 857 q 689 875 742 875 q 545 857 612 875 q 426 806 478 840 q 336 722 373 772 q 279 606 298 671 l 831 606 l 807 532 l 264 532 q 261 499 262 515 q 261 465 261 482 q 262 437 261 450 q 264 411 262 424 l 764 411 l 741 338 l 277 338 q 331 216 294 269 q 421 128 368 163 q 542 74 475 92 q 689 56 610 56 q 793 65 742 56 q 891 92 844 75 q 978 135 937 110 q 1051 192 1019 160 l 1051 71 q 969 36 1010 52 q 883 7 927 20 q 790 -12 839 -5 q 686 -18 741 -18 q 509 5 591 -18 q 362 74 427 29 q 254 186 298 119 q 191 338 210 252 l 37 338 l 61 411 l 178 411 q 176 437 176 424 q 176 465 176 450 q 177 499 176 482 q 179 532 178 515 l 37 532 l 61 606 z "},"™":{"ha":1075,"x_min":41,"x_max":936,"o":"m 237 879 l 237 528 l 176 528 l 176 879 l 41 879 l 41 932 l 372 932 l 372 879 l 237 879 m 875 528 l 875 856 l 707 528 l 664 528 l 496 856 l 496 528 l 435 528 l 435 932 l 514 932 l 686 593 l 857 932 l 936 932 l 936 528 l 875 528 z "},"∂":{"ha":1097,"x_min":83,"x_max":1014,"o":"m 575 875 q 499 868 536 875 q 428 851 462 861 q 363 830 393 842 q 310 808 334 819 l 322 901 q 385 920 355 911 q 447 935 416 928 q 510 945 477 941 q 581 949 543 949 q 773 920 691 949 q 908 838 854 890 q 988 710 962 785 q 1014 545 1014 635 q 973 301 1014 406 q 860 124 932 195 q 688 18 787 54 q 471 -18 589 -18 q 306 3 378 -18 q 184 63 234 25 q 109 154 135 102 q 83 267 83 205 q 121 408 83 347 q 220 510 158 469 q 363 573 282 552 q 532 595 444 595 q 666 580 606 595 q 775 543 727 565 q 860 497 824 522 q 921 452 896 472 q 926 499 924 475 q 928 547 928 524 q 910 675 928 616 q 851 780 892 735 q 742 849 810 824 q 575 875 675 875 m 549 521 q 382 502 454 521 q 263 449 311 483 q 192 369 216 416 q 168 268 168 323 q 189 183 168 222 q 250 116 210 144 q 349 72 290 87 q 484 56 408 56 q 650 82 578 56 q 774 153 722 109 q 858 252 825 197 q 907 364 890 307 q 848 413 883 386 q 769 464 814 440 q 669 505 724 488 q 549 521 614 521 z "},"−":{"ha":882,"x_min":117,"x_max":765,"o":"m 117 428 l 117 501 l 765 501 l 765 428 l 117 428 z "},"∕":{"ha":278,"x_min":-278,"x_max":555,"o":"m -186 0 l -278 0 l 465 932 l 555 932 l -186 0 z "},"≈":{"ha":882,"x_min":106,"x_max":777,"o":"m 777 361 q 708 313 748 332 q 612 293 667 293 q 527 304 570 293 q 439 330 484 316 q 350 355 395 344 q 262 367 306 367 q 216 360 239 367 q 174 342 194 353 q 136 317 153 331 q 106 290 119 304 l 106 371 q 138 398 120 385 q 178 420 157 411 q 222 435 199 429 q 268 440 245 440 q 353 429 309 440 q 442 403 397 417 q 531 377 487 389 q 619 366 576 366 q 665 372 643 366 q 708 390 688 379 q 746 415 728 401 q 777 443 763 429 l 777 361 m 777 597 q 708 549 748 569 q 612 529 667 529 q 527 541 570 529 q 439 566 484 552 q 350 591 395 580 q 262 603 306 603 q 216 596 239 603 q 174 578 194 589 q 136 553 153 567 q 106 526 119 540 l 106 607 q 138 634 120 621 q 178 656 157 647 q 222 671 199 665 q 268 676 245 676 q 353 665 309 676 q 442 639 397 653 q 531 613 487 625 q 619 602 576 602 q 665 608 643 602 q 708 626 688 615 q 746 651 728 637 q 777 679 763 665 l 777 597 z "},"≠":{"ha":882,"x_min":117,"x_max":765,"o":"m 532 631 l 765 631 l 765 557 l 507 557 l 446 372 l 765 372 l 765 297 l 421 297 l 353 89 l 271 89 l 339 297 l 117 297 l 117 372 l 364 372 l 425 557 l 117 557 l 117 631 l 450 631 l 519 839 l 602 839 l 532 631 z "},"≤":{"ha":882,"x_min":106,"x_max":766,"o":"m 117 66 l 117 140 l 765 140 l 765 66 l 117 66 m 106 460 l 106 524 l 766 794 l 766 717 l 204 492 l 766 268 l 766 191 l 106 460 z "},"≥":{"ha":882,"x_min":115,"x_max":777,"o":"m 117 66 l 117 140 l 765 140 l 765 66 l 117 66 m 115 191 l 115 268 l 677 492 l 115 717 l 115 794 l 777 524 l 777 460 l 115 191 z "},"ﬁ":{"ha":1535,"x_min":157,"x_max":1377,"o":"m 633 852 q 457 839 531 852 q 335 795 383 825 q 264 721 288 766 q 241 612 241 675 l 241 509 l 1038 509 l 1038 429 l 241 429 l 241 0 l 157 0 l 157 627 q 182 755 157 699 q 263 851 208 812 q 406 911 319 890 q 616 932 493 932 l 1051 932 l 1051 852 l 633 852 m 1293 0 l 1293 932 l 1377 932 l 1377 0 l 1293 0 z "},"ﬂ":{"ha":2122,"x_min":157,"x_max":2108,"o":"m 633 852 q 457 839 531 852 q 335 795 383 825 q 264 721 288 766 q 241 612 241 675 l 241 509 l 1038 509 l 1038 429 l 241 429 l 241 0 l 157 0 l 157 627 q 182 755 157 699 q 263 851 208 812 q 406 911 319 890 q 616 932 493 932 l 1051 932 l 1051 852 l 633 852 m 1377 322 q 1388 214 1377 259 q 1430 139 1398 168 q 1524 96 1463 110 q 1687 82 1586 82 l 2108 82 l 2108 0 l 1670 0 q 1486 18 1558 0 q 1370 74 1413 36 q 1310 169 1326 111 q 1293 306 1293 227 l 1293 932 l 1377 932 l 1377 322 z "}}}
